M48
;DRILL file {KiCad 4.0.6-e0-6349~53~ubuntu16.04.1} date Thu Jul 27 21:58:54 2017
;FORMAT={-:-/ absolute / inch / decimal}
FMAT,2
INCH,TZ
T1C0.008
T2C0.012
T3C0.016
T4C0.040
T5C0.045
T6C0.059
T7C0.063
%
G90
G05
M72
T1
X4.7559Y-4.9094
X4.7559Y-4.9331
X4.7717Y-4.8976
X4.7717Y-4.9213
X4.7717Y-4.9449
T2
X4.0256Y-2.0768
X4.0256Y-2.1358
X4.0256Y-2.1949
X4.0256Y-2.2539
X4.0256Y-2.313
X4.0256Y-2.372
X4.0256Y-2.4311
X4.0256Y-2.4902
X4.0256Y-2.5492
X4.0256Y-2.6083
X4.0256Y-2.6673
X4.0256Y-2.7264
X4.0256Y-2.7854
X4.0256Y-2.8445
X4.0256Y-2.9035
X4.0256Y-2.9626
X4.0256Y-3.0217
X4.0256Y-3.0807
X4.0256Y-3.1398
X4.0256Y-3.1988
X4.0256Y-3.2579
X4.0256Y-3.3169
X4.0256Y-3.376
X4.0256Y-3.435
X4.0256Y-3.4941
X4.0256Y-3.5531
X4.0256Y-3.6122
X4.0256Y-3.6713
X4.0256Y-3.7303
X4.0256Y-3.7894
X4.0256Y-3.8484
X4.0256Y-3.9075
X4.0256Y-3.9665
X4.0256Y-4.0256
X4.0256Y-4.0846
X4.0256Y-4.1437
X4.0256Y-4.2028
X4.0256Y-4.2618
X4.0256Y-4.3209
X4.0256Y-4.3799
X4.0256Y-4.439
X4.0256Y-4.6358
X4.0256Y-4.6949
X4.0256Y-4.7539
X4.0256Y-4.813
X4.0256Y-4.872
X4.0256Y-4.9311
X4.0256Y-4.9902
X4.0256Y-5.0492
X4.0256Y-5.1083
X4.0256Y-5.1673
X4.0256Y-5.2264
X4.0256Y-5.2854
X4.0256Y-5.3445
X4.0256Y-5.4035
X4.0256Y-5.4626
X4.0256Y-5.5217
X4.0256Y-5.5807
X4.0256Y-5.6398
X4.0256Y-5.6988
X4.0256Y-5.7579
X4.0256Y-5.8169
X4.0846Y-2.0571
X4.0846Y-4.439
X4.0846Y-4.6161
X4.0846Y-5.8169
X4.1437Y-2.0571
X4.1437Y-4.439
X4.1437Y-4.6161
X4.1437Y-5.8169
X4.1929Y-5.2165
X4.2028Y-2.0571
X4.2028Y-4.439
X4.2028Y-4.6161
X4.2028Y-5.8169
X4.252Y-3.9173
X4.252Y-4.0354
X4.252Y-4.1535
X4.252Y-4.2717
X4.2618Y-2.0571
X4.2618Y-4.439
X4.2618Y-4.6161
X4.2618Y-5.8169
X4.311Y-3.1791
X4.3209Y-2.0571
X4.3209Y-4.439
X4.3209Y-4.6161
X4.3209Y-5.8169
X4.3701Y-3.2382
X4.3701Y-3.9173
X4.3701Y-4.0354
X4.3701Y-4.1535
X4.3701Y-4.2717
X4.3799Y-4.439
X4.3799Y-4.6161
X4.3799Y-5.8169
X4.439Y-4.439
X4.439Y-4.6161
X4.439Y-5.8169
X4.4882Y-3.9173
X4.4882Y-4.0354
X4.4882Y-4.1535
X4.4882Y-4.2717
X4.498Y-2.0571
X4.498Y-4.439
X4.498Y-4.6161
X4.498Y-5.8169
X4.5079Y-3.3465
X4.5079Y-3.4646
X4.5079Y-3.5827
X4.5079Y-3.7008
X4.5276Y-3.1299
X4.5374Y-4.9311
X4.5374Y-5.
X4.5571Y-2.0571
X4.5571Y-4.439
X4.5571Y-4.6161
X4.5571Y-5.8169
X4.6063Y-4.9311
X4.6161Y-2.0571
X4.6161Y-4.439
X4.6161Y-4.6161
X4.6161Y-5.8169
X4.6752Y-2.0571
X4.6752Y-3.1299
X4.6752Y-3.3465
X4.6752Y-3.4646
X4.6752Y-3.7205
X4.6752Y-4.439
X4.6752Y-4.6161
X4.6752Y-5.8169
X4.7343Y-2.0571
X4.7343Y-4.439
X4.7343Y-4.6161
X4.7343Y-5.8169
X4.7933Y-2.0571
X4.7933Y-3.1299
X4.7933Y-3.3465
X4.7933Y-3.4646
X4.7933Y-3.5827
X4.7933Y-4.439
X4.7933Y-4.6161
X4.7933Y-5.8169
X4.8031Y-5.1181
X4.8031Y-5.1969
X4.8031Y-5.1969
X4.8524Y-2.0571
X4.8524Y-4.439
X4.8524Y-4.6161
X4.8524Y-5.8169
X4.8819Y-5.1181
X4.8819Y-5.1969
X4.8819Y-5.1969
X4.9114Y-2.0571
X4.9114Y-3.1299
X4.9114Y-3.3465
X4.9114Y-4.439
X4.9114Y-4.6161
X4.9114Y-5.8169
X4.9606Y-5.1181
X4.9606Y-5.1969
X4.9606Y-5.1969
X4.9705Y-2.0571
X4.9705Y-4.439
X4.9705Y-4.6161
X4.9705Y-5.8169
X5.0295Y-2.0571
X5.0295Y-4.439
X5.0295Y-4.6161
X5.0295Y-5.8169
X5.0394Y-5.1969
X5.0591Y-3.2874
X5.0591Y-3.4055
X5.0591Y-3.4744
X5.0591Y-3.5433
X5.0886Y-2.0571
X5.0886Y-4.439
X5.0886Y-4.6161
X5.0886Y-5.8169
X5.1476Y-2.0571
X5.1476Y-4.439
X5.1476Y-4.6161
X5.1476Y-5.8169
X5.187Y-3.2874
X5.2067Y-2.0571
X5.2067Y-4.439
X5.2067Y-4.6161
X5.2067Y-5.8169
X5.2657Y-2.0571
X5.2657Y-4.439
X5.2657Y-4.6161
X5.2657Y-5.8169
X5.2854Y-3.5236
X5.3248Y-2.0571
X5.3248Y-3.4843
X5.3248Y-4.439
X5.3248Y-4.6161
X5.3248Y-5.8169
X5.3839Y-2.0571
X5.3839Y-4.439
X5.3839Y-4.6161
X5.3839Y-5.8169
X5.4429Y-2.0571
X5.4429Y-4.439
X5.4429Y-4.6161
X5.4429Y-5.8169
X5.4705Y-3.3366
X5.4705Y-3.3957
X5.5Y-3.3661
X5.502Y-2.0571
X5.502Y-4.439
X5.502Y-4.6161
X5.502Y-5.8169
X5.5295Y-3.3366
X5.5295Y-3.3957
X5.561Y-2.0571
X5.561Y-4.439
X5.561Y-4.6161
X5.561Y-5.8169
X5.6201Y-2.0571
X5.6201Y-4.439
X5.6201Y-4.6161
X5.6201Y-5.8169
X5.6791Y-2.0571
X5.6791Y-4.439
X5.6791Y-4.6161
X5.6791Y-5.8169
X5.7185Y-4.6358
X5.7185Y-4.6949
X5.7185Y-4.7539
X5.7185Y-4.813
X5.7185Y-4.872
X5.7185Y-4.9311
X5.7185Y-4.9902
X5.7185Y-5.0492
X5.7185Y-5.1083
X5.7185Y-5.1673
X5.7185Y-5.2264
X5.7185Y-5.2854
X5.7185Y-5.3445
X5.7185Y-5.4035
X5.7185Y-5.4626
X5.7185Y-5.5217
X5.7185Y-5.5807
X5.7185Y-5.6398
X5.7185Y-5.6988
X5.7185Y-5.7579
X5.7382Y-2.0571
X5.7382Y-4.439
X5.7972Y-2.0571
X5.7972Y-4.439
X5.8169Y-2.1358
X5.8169Y-2.1949
X5.8169Y-2.2539
X5.8169Y-2.313
X5.8169Y-2.372
X5.8169Y-2.4311
X5.8169Y-2.4902
X5.8169Y-2.5492
X5.8169Y-2.6083
X5.8169Y-2.6673
X5.8169Y-2.7264
X5.8169Y-2.7854
X5.8169Y-2.8445
X5.8169Y-2.9035
X5.8169Y-2.9626
X5.8169Y-3.0217
X5.8169Y-3.0807
X5.8169Y-3.1398
X5.8169Y-3.1988
X5.8169Y-3.2579
X5.8169Y-3.3169
X5.8169Y-3.376
X5.8169Y-3.435
X5.8169Y-3.4941
X5.8169Y-3.5531
X5.8169Y-3.6122
X5.8169Y-3.6713
X5.8169Y-3.7303
X5.8169Y-3.7894
X5.8169Y-3.8484
X5.8169Y-3.9075
X5.8169Y-3.9665
X5.8169Y-4.0256
X5.8169Y-4.0846
X5.8169Y-4.1437
X5.8169Y-4.2028
X5.8169Y-4.2618
X5.8169Y-4.3209
X5.8169Y-4.3799
X5.8957Y-4.6358
X5.8957Y-4.6949
X5.8957Y-4.7539
X5.8957Y-4.813
X5.8957Y-4.872
X5.8957Y-4.9311
X5.8957Y-4.9902
X5.8957Y-5.0492
X5.8957Y-5.1083
X5.8957Y-5.1673
X5.8957Y-5.2264
X5.8957Y-5.2854
X5.8957Y-5.3445
X5.8957Y-5.4035
X5.8957Y-5.4626
X5.8957Y-5.5217
X5.8957Y-5.5807
X5.8957Y-5.6398
X5.8957Y-5.6988
X5.8957Y-5.7579
X5.8957Y-5.8169
X5.9547Y-4.6161
X5.9547Y-5.8169
X5.9941Y-2.0768
X5.9941Y-2.1358
X5.9941Y-2.1949
X5.9941Y-2.2539
X5.9941Y-2.313
X5.9941Y-2.372
X5.9941Y-2.4311
X5.9941Y-2.4902
X5.9941Y-2.5492
X5.9941Y-2.6083
X5.9941Y-2.6673
X5.9941Y-2.7264
X5.9941Y-2.7854
X5.9941Y-2.8445
X5.9941Y-2.9035
X5.9941Y-2.9626
X5.9941Y-3.0217
X5.9941Y-3.0807
X5.9941Y-3.1398
X5.9941Y-3.1988
X5.9941Y-3.2579
X5.9941Y-3.3169
X5.9941Y-3.376
X5.9941Y-3.435
X5.9941Y-3.4941
X5.9941Y-3.5531
X5.9941Y-3.6122
X5.9941Y-3.6713
X5.9941Y-3.7303
X5.9941Y-3.7894
X5.9941Y-3.8484
X5.9941Y-3.9075
X5.9941Y-3.9665
X5.9941Y-4.0256
X5.9941Y-4.0846
X5.9941Y-4.1437
X5.9941Y-4.2028
X5.9941Y-4.2618
X5.9941Y-4.3209
X5.9941Y-4.3799
X5.9941Y-4.439
X6.0138Y-4.6161
X6.0138Y-5.8169
X6.0531Y-2.0571
X6.0531Y-4.439
X6.0728Y-4.6161
X6.0728Y-5.8169
X6.1122Y-2.0571
X6.1122Y-4.439
X6.1319Y-4.6161
X6.1319Y-5.8169
X6.1713Y-2.0571
X6.1713Y-4.439
X6.1909Y-4.6161
X6.1909Y-5.8169
X6.2205Y-3.9173
X6.2205Y-4.0354
X6.2205Y-4.1535
X6.2205Y-4.2717
X6.2303Y-2.0571
X6.2303Y-4.439
X6.25Y-4.6161
X6.25Y-5.8169
X6.2795Y-3.1791
X6.2894Y-2.0571
X6.2894Y-4.439
X6.3091Y-4.6161
X6.3091Y-5.8169
X6.3386Y-3.2382
X6.3386Y-3.9173
X6.3386Y-4.0354
X6.3386Y-4.1535
X6.3386Y-4.2717
X6.3484Y-4.439
X6.3681Y-4.6161
X6.3681Y-5.8169
X6.4075Y-4.439
X6.4272Y-4.6161
X6.4272Y-5.8169
X6.4567Y-3.9173
X6.4567Y-4.0354
X6.4567Y-4.1535
X6.4567Y-4.2717
X6.4665Y-2.0571
X6.4665Y-4.439
X6.4764Y-3.3465
X6.4764Y-3.4646
X6.4764Y-3.5827
X6.4764Y-3.7008
X6.4862Y-4.6161
X6.4862Y-5.8169
X6.4961Y-3.1299
X6.5256Y-2.0571
X6.5256Y-4.439
X6.5453Y-4.6161
X6.5453Y-5.8169
X6.5846Y-2.0571
X6.5846Y-4.439
X6.6043Y-4.6161
X6.6043Y-5.8169
X6.6437Y-2.0571
X6.6437Y-3.1299
X6.6437Y-3.3465
X6.6437Y-3.4646
X6.6437Y-3.7205
X6.6437Y-4.439
X6.6634Y-4.6161
X6.6634Y-5.8169
X6.7028Y-2.0571
X6.7028Y-4.439
X6.7224Y-4.6161
X6.7224Y-5.8169
X6.7618Y-2.0571
X6.7618Y-3.1299
X6.7618Y-3.3465
X6.7618Y-3.4646
X6.7618Y-3.5827
X6.7618Y-4.439
X6.7815Y-4.6161
X6.7815Y-5.8169
X6.8209Y-2.0571
X6.8209Y-4.439
X6.8406Y-4.6161
X6.8406Y-5.8169
X6.8799Y-2.0571
X6.8799Y-3.1299
X6.8799Y-3.3465
X6.8799Y-4.439
X6.8996Y-4.6161
X6.8996Y-5.8169
X6.939Y-2.0571
X6.939Y-4.439
X6.9587Y-4.6161
X6.9587Y-5.8169
X6.998Y-2.0571
X6.998Y-4.439
X7.0177Y-4.6161
X7.0177Y-5.8169
X7.0276Y-3.2874
X7.0276Y-3.4055
X7.0276Y-3.4744
X7.0276Y-3.5433
X7.0571Y-2.0571
X7.0571Y-4.439
X7.0768Y-4.6161
X7.0768Y-5.8169
X7.1161Y-2.0571
X7.1161Y-4.439
X7.1358Y-4.6161
X7.1358Y-5.8169
X7.1555Y-3.2874
X7.1752Y-2.0571
X7.1752Y-4.439
X7.1949Y-4.6161
X7.1949Y-5.8169
X7.2343Y-2.0571
X7.2343Y-4.439
X7.2539Y-3.5236
X7.2539Y-4.6161
X7.2539Y-5.8169
X7.2933Y-2.0571
X7.2933Y-3.4843
X7.2933Y-4.439
X7.313Y-4.6161
X7.313Y-5.8169
X7.3524Y-2.0571
X7.3524Y-4.439
X7.372Y-4.6161
X7.372Y-5.8169
X7.4114Y-2.0571
X7.4114Y-4.439
X7.4311Y-4.6161
X7.4311Y-5.8169
X7.439Y-3.3366
X7.439Y-3.3957
X7.4685Y-3.3661
X7.4705Y-2.0571
X7.4705Y-4.439
X7.4902Y-4.6161
X7.4902Y-5.8169
X7.498Y-3.3366
X7.498Y-3.3957
X7.5295Y-2.0571
X7.5295Y-4.439
X7.5492Y-4.6161
X7.5492Y-5.8169
X7.5886Y-2.0571
X7.5886Y-4.439
X7.6083Y-4.6161
X7.6083Y-5.8169
X7.6476Y-2.0571
X7.6476Y-4.439
X7.6673Y-4.6161
X7.6673Y-5.8169
X7.7067Y-2.0571
X7.7067Y-4.439
X7.7264Y-4.6161
X7.7264Y-5.8169
X7.7657Y-2.0571
X7.7657Y-4.439
X7.7854Y-2.1358
X7.7854Y-2.1949
X7.7854Y-2.2539
X7.7854Y-2.313
X7.7854Y-2.372
X7.7854Y-2.4311
X7.7854Y-2.4902
X7.7854Y-2.5492
X7.7854Y-2.6083
X7.7854Y-2.6673
X7.7854Y-2.7264
X7.7854Y-2.7854
X7.7854Y-2.8445
X7.7854Y-2.9035
X7.7854Y-2.9626
X7.7854Y-3.0217
X7.7854Y-3.0807
X7.7854Y-3.1398
X7.7854Y-3.1988
X7.7854Y-3.2579
X7.7854Y-3.3169
X7.7854Y-3.376
X7.7854Y-3.435
X7.7854Y-3.4941
X7.7854Y-3.5531
X7.7854Y-3.6122
X7.7854Y-3.6713
X7.7854Y-3.7303
X7.7854Y-3.7894
X7.7854Y-3.8484
X7.7854Y-3.9075
X7.7854Y-3.9665
X7.7854Y-4.0256
X7.7854Y-4.0846
X7.7854Y-4.1437
X7.7854Y-4.2028
X7.7854Y-4.2618
X7.7854Y-4.3209
X7.7854Y-4.3799
X7.7854Y-4.6358
X7.7854Y-4.6949
X7.7854Y-4.7539
X7.7854Y-4.813
X7.7854Y-4.872
X7.7854Y-4.9311
X7.7854Y-4.9902
X7.7854Y-5.0492
X7.7854Y-5.1083
X7.7854Y-5.1673
X7.7854Y-5.2264
X7.7854Y-5.2854
X7.7854Y-5.3445
X7.7854Y-5.4035
X7.7854Y-5.4626
X7.7854Y-5.5217
X7.7854Y-5.5807
X7.7854Y-5.6398
X7.7854Y-5.6988
X7.7854Y-5.7579
X7.7854Y-5.8169
T3
X4.3898Y-2.628
X4.3898Y-3.0413
X4.4783Y-2.7953
X4.5669Y-2.9921
X4.7343Y-2.7756
X4.7933Y-2.4213
X4.8425Y-2.5886
X4.9705Y-3.3366
X5.0098Y-2.4213
X5.0394Y-2.7953
X5.128Y-3.1693
X5.128Y-3.3366
X5.1476Y-3.7205
X5.1772Y-2.372
X5.2165Y-3.3957
X5.2953Y-2.5886
X5.3839Y-3.4341
X6.3583Y-2.628
X6.3583Y-3.0413
X6.4469Y-2.7953
X6.5354Y-2.9921
X6.7028Y-2.7756
X6.7618Y-2.4213
X6.811Y-2.5886
X6.939Y-3.3366
X6.9783Y-2.4213
X7.0079Y-2.7953
X7.0965Y-3.1693
X7.0965Y-3.3366
X7.1161Y-3.7205
X7.1457Y-2.372
X7.185Y-3.3957
X7.2638Y-2.5886
X7.3524Y-3.4341
T4
X4.1339Y-2.172
X4.1339Y-2.272
X4.1339Y-2.372
X4.1339Y-2.5854
X4.1339Y-2.6854
X4.1339Y-2.7854
X4.9378Y-2.1752
X5.0378Y-2.1752
X5.1378Y-2.1752
X6.1024Y-2.172
X6.1024Y-2.272
X6.1024Y-2.372
X6.1024Y-2.5854
X6.1024Y-2.6854
X6.1024Y-2.7854
X6.9063Y-2.1752
X7.0063Y-2.1752
X7.1063Y-2.1752
T5
X4.1043Y-5.1665
X4.1043Y-5.2665
X5.3437Y-4.3504
X5.4437Y-4.3504
X7.3122Y-4.3504
X7.4122Y-4.3504
T6
X4.2028Y-4.8819
X5.315Y-4.9409
X5.5492Y-4.0157
X5.5591Y-2.3996
X6.2008Y-4.813
X6.2008Y-5.2067
X7.5177Y-4.0157
X7.5276Y-2.3996
X7.5492Y-5.0098
T7
X4.1028Y-4.7819
X4.1028Y-4.9819
X4.3028Y-4.7819
X4.3028Y-4.9819
X5.215Y-4.8409
X5.215Y-5.0409
X5.415Y-4.8409
X5.415Y-5.0409
X5.4492Y-3.9157
X5.4492Y-4.1157
X5.4591Y-2.2996
X5.4591Y-2.4996
X5.6492Y-3.9157
X5.6492Y-4.1157
X5.6591Y-2.2996
X5.6591Y-2.4996
X6.1008Y-4.713
X6.1008Y-4.913
X6.1008Y-5.1067
X6.1008Y-5.3067
X6.3008Y-4.713
X6.3008Y-4.913
X6.3008Y-5.1067
X6.3008Y-5.3067
X7.4177Y-3.9157
X7.4177Y-4.1157
X7.4276Y-2.2996
X7.4276Y-2.4996
X7.4492Y-4.9098
X7.4492Y-5.1098
X7.6177Y-3.9157
X7.6177Y-4.1157
X7.6276Y-2.2996
X7.6276Y-2.4996
X7.6492Y-4.9098
X7.6492Y-5.1098
T0
M30
