G04 #@! TF.FileFunction,Paste,Top*
%FSLAX46Y46*%
G04 Gerber Fmt 4.6, Leading zero omitted, Abs format (unit mm)*
G04 Created by KiCad (PCBNEW 4.0.6-e0-6349~53~ubuntu16.04.1) date Thu Jul 27 23:40:07 2017*
%MOMM*%
%LPD*%
G01*
G04 APERTURE LIST*
%ADD10C,0.100000*%
%ADD11R,2.500000X1.950000*%
%ADD12R,1.950000X2.500000*%
%ADD13R,2.550000X2.500000*%
%ADD14R,0.600000X0.800000*%
%ADD15R,0.450000X1.450000*%
%ADD16R,0.360000X0.560000*%
%ADD17R,0.560000X0.360000*%
%ADD18R,0.500000X0.900000*%
%ADD19R,0.900000X0.500000*%
%ADD20R,0.500000X0.400000*%
%ADD21R,0.400000X0.500000*%
%ADD22R,4.000000X4.500000*%
%ADD23R,4.500000X1.000000*%
%ADD24R,1.100000X1.100000*%
%ADD25R,1.500000X1.400000*%
%ADD26R,0.800000X0.600000*%
%ADD27R,1.400000X2.900000*%
%ADD28R,0.889000X0.420000*%
%ADD29R,0.480000X0.840000*%
%ADD30R,0.840000X0.480000*%
%ADD31R,0.640000X0.720000*%
%ADD32R,0.700000X0.650000*%
%ADD33R,1.090000X1.090000*%
%ADD34R,0.225000X0.493000*%
%ADD35R,0.493000X0.225000*%
%ADD36R,0.600000X0.300000*%
%ADD37R,0.800000X1.600000*%
G04 APERTURE END LIST*
D10*
D11*
X133250000Y-96975000D03*
X133250000Y-100025000D03*
D12*
X126275000Y-82250000D03*
X123225000Y-82250000D03*
D13*
X124025000Y-91750000D03*
X118975000Y-91750000D03*
D14*
X133500000Y-110050000D03*
X133500000Y-108950000D03*
D15*
X126725000Y-73900000D03*
X127375000Y-73900000D03*
X128025000Y-73900000D03*
X128675000Y-73900000D03*
X128675000Y-68000000D03*
X128025000Y-68000000D03*
X127375000Y-68000000D03*
X126725000Y-68000000D03*
D16*
X129050000Y-82250000D03*
X129950000Y-82250000D03*
D17*
X133250000Y-90800000D03*
X133250000Y-91700000D03*
X130250000Y-90800000D03*
X130250000Y-91700000D03*
X138250000Y-93300000D03*
X138250000Y-94200000D03*
D18*
X133750000Y-80000000D03*
X135250000Y-80000000D03*
X133742381Y-77875000D03*
X135242381Y-77875000D03*
X133750000Y-75750000D03*
X135250000Y-75750000D03*
D19*
X141200000Y-74250000D03*
X141200000Y-75750000D03*
D20*
X137200000Y-81750000D03*
X138300000Y-81750000D03*
X140900000Y-93250000D03*
X142000000Y-93250000D03*
D21*
X141200000Y-67025000D03*
X141200000Y-68075000D03*
D20*
X141175000Y-70250000D03*
X142225000Y-70250000D03*
X141175000Y-72000000D03*
X142225000Y-72000000D03*
X137225000Y-80000000D03*
X138275000Y-80000000D03*
X141175000Y-78000000D03*
X142225000Y-78000000D03*
X141175000Y-79750000D03*
X142225000Y-79750000D03*
X141175000Y-81500000D03*
X142225000Y-81500000D03*
X126475000Y-78000000D03*
X127525000Y-78000000D03*
D21*
X133000000Y-82225000D03*
X133000000Y-83275000D03*
X136000000Y-84775000D03*
X136000000Y-83725000D03*
X130250000Y-87225000D03*
X130250000Y-88275000D03*
X140950000Y-89725000D03*
X140950000Y-90775000D03*
D20*
X124025000Y-88500000D03*
X122975000Y-88500000D03*
X139275000Y-89250000D03*
X138225000Y-89250000D03*
D21*
X140950000Y-95725000D03*
X140950000Y-96775000D03*
D20*
X138275000Y-95750000D03*
X137225000Y-95750000D03*
D22*
X108475000Y-100895000D03*
X113625000Y-100955000D03*
X108515000Y-106865000D03*
D23*
X120205000Y-100475000D03*
X120205000Y-102175000D03*
X120205000Y-105575000D03*
X120205000Y-103875000D03*
X120205000Y-107275000D03*
D22*
X113575000Y-106875000D03*
D20*
X114450000Y-74525000D03*
X113400000Y-74525000D03*
D24*
X121175000Y-53775000D03*
X119175000Y-53775000D03*
D25*
X120175000Y-57025000D03*
D16*
X125075000Y-96625000D03*
X124175000Y-96625000D03*
X126075000Y-98375000D03*
X125175000Y-98375000D03*
X124575000Y-111625000D03*
X123675000Y-111625000D03*
X112175000Y-95125000D03*
X113075000Y-95125000D03*
D17*
X129700000Y-64750000D03*
X129700000Y-65650000D03*
X127950000Y-64750000D03*
X127950000Y-65650000D03*
D16*
X131500000Y-65700000D03*
X132400000Y-65700000D03*
X126150000Y-65700000D03*
X125250000Y-65700000D03*
D17*
X123450000Y-70500000D03*
X123450000Y-71400000D03*
X117175000Y-53625000D03*
X117175000Y-54525000D03*
D14*
X128375000Y-98425000D03*
X128375000Y-97325000D03*
D26*
X111075000Y-85625000D03*
X112175000Y-85625000D03*
X108150000Y-61500000D03*
X109250000Y-61500000D03*
D14*
X115175000Y-53775000D03*
X115175000Y-54875000D03*
D20*
X114450000Y-72925000D03*
X113400000Y-72925000D03*
D27*
X126075000Y-102125000D03*
X129675000Y-102125000D03*
D20*
X111100000Y-88125000D03*
X112150000Y-88125000D03*
D27*
X126075000Y-107375000D03*
X129675000Y-107375000D03*
D20*
X126100000Y-111625000D03*
X127150000Y-111625000D03*
D21*
X110875000Y-95100000D03*
X110875000Y-96150000D03*
D20*
X113450000Y-81325000D03*
X112400000Y-81325000D03*
X113450000Y-83125000D03*
X112400000Y-83125000D03*
X127525000Y-76250000D03*
X126475000Y-76250000D03*
D28*
X109219500Y-76250000D03*
X109219500Y-76900000D03*
X109219500Y-77550000D03*
X109219500Y-78200000D03*
X109219500Y-78850000D03*
X109219500Y-79500000D03*
X113430500Y-79500000D03*
X113430500Y-78850000D03*
X113430500Y-78200000D03*
X113430500Y-77550000D03*
X113430500Y-76900000D03*
X113430500Y-76250000D03*
D29*
X112125000Y-92975000D03*
X111175000Y-92975000D03*
X113075000Y-92975000D03*
X113075000Y-90275000D03*
X111175000Y-90275000D03*
D30*
X118675000Y-82125000D03*
X118675000Y-83075000D03*
X118675000Y-81175000D03*
X115975000Y-81175000D03*
X115975000Y-83075000D03*
D21*
X133250000Y-87225000D03*
X133250000Y-88275000D03*
X183250000Y-87225000D03*
X183250000Y-88275000D03*
D20*
X113275000Y-124000000D03*
X112225000Y-124000000D03*
D21*
X117250000Y-128475000D03*
X117250000Y-129525000D03*
X124000000Y-134025000D03*
X124000000Y-132975000D03*
X115250000Y-128475000D03*
X115250000Y-129525000D03*
X122000000Y-134025000D03*
X122000000Y-132975000D03*
D20*
X125025000Y-127000000D03*
X123975000Y-127000000D03*
D21*
X126000000Y-134025000D03*
X126000000Y-132975000D03*
X128000000Y-134025000D03*
X128000000Y-132975000D03*
D20*
X129525000Y-125500000D03*
X128475000Y-125500000D03*
D21*
X113250000Y-125200000D03*
X113250000Y-126300000D03*
D20*
X118300000Y-124000000D03*
X117200000Y-124000000D03*
D21*
X128500000Y-129300000D03*
X128500000Y-128200000D03*
D31*
X109500000Y-136000000D03*
X110460000Y-134000000D03*
X108550000Y-134000000D03*
D32*
X113750000Y-134000000D03*
X115250000Y-134000000D03*
D17*
X120000000Y-133950000D03*
X120000000Y-133050000D03*
D16*
X128325000Y-127000000D03*
X127425000Y-127000000D03*
D30*
X168675000Y-82125000D03*
X168675000Y-83075000D03*
X168675000Y-81175000D03*
X165975000Y-81175000D03*
X165975000Y-83075000D03*
D29*
X162125000Y-92975000D03*
X161175000Y-92975000D03*
X163075000Y-92975000D03*
X163075000Y-90275000D03*
X161175000Y-90275000D03*
D28*
X159219500Y-76250000D03*
X159219500Y-76900000D03*
X159219500Y-77550000D03*
X159219500Y-78200000D03*
X159219500Y-78850000D03*
X159219500Y-79500000D03*
X163430500Y-79500000D03*
X163430500Y-78850000D03*
X163430500Y-78200000D03*
X163430500Y-77550000D03*
X163430500Y-76900000D03*
X163430500Y-76250000D03*
D20*
X166525000Y-132250000D03*
X165475000Y-132250000D03*
D21*
X170250000Y-122275000D03*
X170250000Y-121225000D03*
D20*
X175025000Y-132250000D03*
X173975000Y-132250000D03*
D21*
X178750000Y-122275000D03*
X178750000Y-121225000D03*
D20*
X183775000Y-132250000D03*
X182725000Y-132250000D03*
D18*
X166750000Y-122250000D03*
X165250000Y-122250000D03*
D19*
X170250000Y-132250000D03*
X170250000Y-133750000D03*
D18*
X175250000Y-122250000D03*
X173750000Y-122250000D03*
D19*
X178750000Y-132250000D03*
X178750000Y-133750000D03*
D18*
X184000000Y-122250000D03*
X182500000Y-122250000D03*
D20*
X177525000Y-76250000D03*
X176475000Y-76250000D03*
X163450000Y-83125000D03*
X162400000Y-83125000D03*
X163450000Y-81325000D03*
X162400000Y-81325000D03*
D21*
X160875000Y-95100000D03*
X160875000Y-96150000D03*
D20*
X176100000Y-111625000D03*
X177150000Y-111625000D03*
D27*
X176075000Y-107375000D03*
X179675000Y-107375000D03*
D20*
X161100000Y-88125000D03*
X162150000Y-88125000D03*
D27*
X176075000Y-102125000D03*
X179675000Y-102125000D03*
D20*
X164450000Y-72925000D03*
X163400000Y-72925000D03*
D14*
X165175000Y-53775000D03*
X165175000Y-54875000D03*
D26*
X158150000Y-61500000D03*
X159250000Y-61500000D03*
X161075000Y-85625000D03*
X162175000Y-85625000D03*
D14*
X178375000Y-98425000D03*
X178375000Y-97325000D03*
D17*
X167175000Y-53625000D03*
X167175000Y-54525000D03*
X173450000Y-70500000D03*
X173450000Y-71400000D03*
D16*
X176150000Y-65700000D03*
X175250000Y-65700000D03*
X181500000Y-65700000D03*
X182400000Y-65700000D03*
D17*
X177950000Y-64750000D03*
X177950000Y-65650000D03*
X179700000Y-64750000D03*
X179700000Y-65650000D03*
D16*
X162175000Y-95125000D03*
X163075000Y-95125000D03*
X174575000Y-111625000D03*
X173675000Y-111625000D03*
X176075000Y-98375000D03*
X175175000Y-98375000D03*
X175075000Y-96625000D03*
X174175000Y-96625000D03*
D24*
X171175000Y-53775000D03*
X169175000Y-53775000D03*
D25*
X170175000Y-57025000D03*
D20*
X164450000Y-74525000D03*
X163400000Y-74525000D03*
D22*
X158475000Y-100895000D03*
X163625000Y-100955000D03*
X158515000Y-106865000D03*
D23*
X170205000Y-100475000D03*
X170205000Y-102175000D03*
X170205000Y-105575000D03*
X170205000Y-103875000D03*
X170205000Y-107275000D03*
D22*
X163575000Y-106875000D03*
D20*
X188275000Y-95750000D03*
X187225000Y-95750000D03*
D21*
X190950000Y-95725000D03*
X190950000Y-96775000D03*
D20*
X189275000Y-89250000D03*
X188225000Y-89250000D03*
X174025000Y-88500000D03*
X172975000Y-88500000D03*
D21*
X190950000Y-89725000D03*
X190950000Y-90775000D03*
X180250000Y-87225000D03*
X180250000Y-88275000D03*
X186000000Y-84775000D03*
X186000000Y-83725000D03*
X183000000Y-82225000D03*
X183000000Y-83275000D03*
D20*
X176475000Y-78000000D03*
X177525000Y-78000000D03*
X191175000Y-81500000D03*
X192225000Y-81500000D03*
X191175000Y-79750000D03*
X192225000Y-79750000D03*
X191175000Y-78000000D03*
X192225000Y-78000000D03*
X187225000Y-80000000D03*
X188275000Y-80000000D03*
X191175000Y-72000000D03*
X192225000Y-72000000D03*
X191175000Y-70250000D03*
X192225000Y-70250000D03*
D21*
X191200000Y-67025000D03*
X191200000Y-68075000D03*
D20*
X190900000Y-93250000D03*
X192000000Y-93250000D03*
X187200000Y-81750000D03*
X188300000Y-81750000D03*
D19*
X191200000Y-74250000D03*
X191200000Y-75750000D03*
D18*
X183750000Y-75750000D03*
X185250000Y-75750000D03*
X183742381Y-77875000D03*
X185242381Y-77875000D03*
X183750000Y-80000000D03*
X185250000Y-80000000D03*
D17*
X188250000Y-93300000D03*
X188250000Y-94200000D03*
X180250000Y-90800000D03*
X180250000Y-91700000D03*
X183250000Y-90800000D03*
X183250000Y-91700000D03*
D16*
X179050000Y-82250000D03*
X179950000Y-82250000D03*
D15*
X176725000Y-73900000D03*
X177375000Y-73900000D03*
X178025000Y-73900000D03*
X178675000Y-73900000D03*
X178675000Y-68000000D03*
X178025000Y-68000000D03*
X177375000Y-68000000D03*
X176725000Y-68000000D03*
D26*
X108200000Y-131250000D03*
X109300000Y-131250000D03*
D14*
X183500000Y-110050000D03*
X183500000Y-108950000D03*
D13*
X174025000Y-91750000D03*
X168975000Y-91750000D03*
D12*
X176275000Y-82250000D03*
X173225000Y-82250000D03*
D11*
X183250000Y-96975000D03*
X183250000Y-100025000D03*
D33*
X190425000Y-86225000D03*
X188975000Y-86225000D03*
X188975000Y-84775000D03*
D34*
X190950000Y-87364000D03*
X190450000Y-87364000D03*
X189950000Y-87364000D03*
X189450000Y-87364000D03*
X188950000Y-87364000D03*
X188450000Y-87364000D03*
X188450000Y-83636000D03*
X188950000Y-83636000D03*
X189450000Y-83636000D03*
X190950000Y-83636000D03*
X190450000Y-83636000D03*
D35*
X187836000Y-84250000D03*
X187836000Y-84750000D03*
X187836000Y-85250000D03*
X187836000Y-85750000D03*
X187836000Y-86250000D03*
X187836000Y-86750000D03*
X191564000Y-86750000D03*
X191564000Y-86250000D03*
X191564000Y-85750000D03*
X191564000Y-84250000D03*
X191564000Y-84750000D03*
X191564000Y-85250000D03*
D34*
X189950000Y-83636000D03*
D33*
X190425000Y-84775000D03*
X140425000Y-86225000D03*
X138975000Y-86225000D03*
X138975000Y-84775000D03*
D34*
X140950000Y-87364000D03*
X140450000Y-87364000D03*
X139950000Y-87364000D03*
X139450000Y-87364000D03*
X138950000Y-87364000D03*
X138450000Y-87364000D03*
X138450000Y-83636000D03*
X138950000Y-83636000D03*
X139450000Y-83636000D03*
X140950000Y-83636000D03*
X140450000Y-83636000D03*
D35*
X137836000Y-84250000D03*
X137836000Y-84750000D03*
X137836000Y-85250000D03*
X137836000Y-85750000D03*
X137836000Y-86250000D03*
X137836000Y-86750000D03*
X141564000Y-86750000D03*
X141564000Y-86250000D03*
X141564000Y-85750000D03*
X141564000Y-84250000D03*
X141564000Y-84750000D03*
X141564000Y-85250000D03*
D34*
X139950000Y-83636000D03*
D33*
X140425000Y-84775000D03*
D36*
X120100000Y-124250000D03*
X120100000Y-124750000D03*
X120100000Y-125250000D03*
X120100000Y-125750000D03*
X121900000Y-125750000D03*
X121900000Y-125250000D03*
X121900000Y-124750000D03*
X121900000Y-124250000D03*
D37*
X121000000Y-125000000D03*
M02*
