M48
;DRILL file {KiCad 4.0.6-e0-6349~53~ubuntu16.04.1} date Thu Jul 27 23:40:11 2017
;FORMAT={-:-/ absolute / inch / decimal}
FMAT,2
INCH,TZ
T1C0.020
%
G90
G05
M72
T1
X4.375Y-4.498
X4.375Y-4.5571
X4.4045Y-4.498
X4.4045Y-4.5571
X4.4341Y-4.498
X4.4341Y-4.5571
X5.31Y-4.498
X5.31Y-4.5571
X5.3396Y-4.498
X5.3396Y-4.5571
X5.3691Y-4.498
X5.3691Y-4.5571
X5.7776Y-5.187
X5.7776Y-5.2165
X5.7776Y-5.2461
X5.8366Y-5.187
X5.8366Y-5.2165
X5.8366Y-5.2461
X5.876Y-2.5787
X5.876Y-2.6083
X5.876Y-2.6378
X5.876Y-3.8583
X5.876Y-3.8878
X5.876Y-3.9173
X5.935Y-2.5787
X5.935Y-2.6083
X5.935Y-2.6378
X5.935Y-3.8583
X5.935Y-3.8878
X5.935Y-3.9173
X6.2943Y-4.498
X6.2943Y-4.5571
X6.3238Y-4.498
X6.3238Y-4.5571
X6.3533Y-4.498
X6.3533Y-4.5571
X7.3278Y-4.498
X7.3278Y-4.5571
X7.3573Y-4.498
X7.3573Y-4.5571
X7.3868Y-4.498
X7.3868Y-4.5571
T0
M30
