G04 #@! TF.FileFunction,Legend,Bot*
%FSLAX46Y46*%
G04 Gerber Fmt 4.6, Leading zero omitted, Abs format (unit mm)*
G04 Created by KiCad (PCBNEW 4.0.6-e0-6349~53~ubuntu16.04.1) date Thu Jul 27 22:11:15 2017*
%MOMM*%
%LPD*%
G01*
G04 APERTURE LIST*
%ADD10C,0.100000*%
%ADD11C,0.200000*%
%ADD12C,0.010000*%
G04 APERTURE END LIST*
D10*
D11*
X109664286Y-97535714D02*
X109592857Y-97607143D01*
X109521429Y-97821429D01*
X109521429Y-97964286D01*
X109592857Y-98178571D01*
X109735714Y-98321429D01*
X109878571Y-98392857D01*
X110164286Y-98464286D01*
X110378571Y-98464286D01*
X110664286Y-98392857D01*
X110807143Y-98321429D01*
X110950000Y-98178571D01*
X111021429Y-97964286D01*
X111021429Y-97821429D01*
X110950000Y-97607143D01*
X110878571Y-97535714D01*
X110521429Y-96250000D02*
X109521429Y-96250000D01*
X110521429Y-96892857D02*
X109735714Y-96892857D01*
X109592857Y-96821429D01*
X109521429Y-96678571D01*
X109521429Y-96464286D01*
X109592857Y-96321429D01*
X109664286Y-96250000D01*
X109521429Y-95535714D02*
X111021429Y-95535714D01*
X110450000Y-95535714D02*
X110521429Y-95392857D01*
X110521429Y-95107143D01*
X110450000Y-94964286D01*
X110378571Y-94892857D01*
X110235714Y-94821428D01*
X109807143Y-94821428D01*
X109664286Y-94892857D01*
X109592857Y-94964286D01*
X109521429Y-95107143D01*
X109521429Y-95392857D01*
X109592857Y-95535714D01*
X109592857Y-93607143D02*
X109521429Y-93750000D01*
X109521429Y-94035714D01*
X109592857Y-94178571D01*
X109735714Y-94250000D01*
X110307143Y-94250000D01*
X110450000Y-94178571D01*
X110521429Y-94035714D01*
X110521429Y-93750000D01*
X110450000Y-93607143D01*
X110307143Y-93535714D01*
X110164286Y-93535714D01*
X110021429Y-94250000D01*
X109592857Y-92964286D02*
X109521429Y-92750000D01*
X109521429Y-92392857D01*
X109592857Y-92250000D01*
X109664286Y-92178571D01*
X109807143Y-92107143D01*
X109950000Y-92107143D01*
X110092857Y-92178571D01*
X110164286Y-92250000D01*
X110235714Y-92392857D01*
X110307143Y-92678571D01*
X110378571Y-92821429D01*
X110450000Y-92892857D01*
X110592857Y-92964286D01*
X110735714Y-92964286D01*
X110878571Y-92892857D01*
X110950000Y-92821429D01*
X111021429Y-92678571D01*
X111021429Y-92321429D01*
X110950000Y-92107143D01*
X109521429Y-90821429D02*
X110307143Y-90821429D01*
X110450000Y-90892858D01*
X110521429Y-91035715D01*
X110521429Y-91321429D01*
X110450000Y-91464286D01*
X109592857Y-90821429D02*
X109521429Y-90964286D01*
X109521429Y-91321429D01*
X109592857Y-91464286D01*
X109735714Y-91535715D01*
X109878571Y-91535715D01*
X110021429Y-91464286D01*
X110092857Y-91321429D01*
X110092857Y-90964286D01*
X110164286Y-90821429D01*
X110521429Y-90321429D02*
X110521429Y-89750000D01*
X111021429Y-90107143D02*
X109735714Y-90107143D01*
X109592857Y-90035715D01*
X109521429Y-89892857D01*
X109521429Y-89750000D01*
X109521429Y-87250000D02*
X110235714Y-87750000D01*
X109521429Y-88107143D02*
X111021429Y-88107143D01*
X111021429Y-87535715D01*
X110950000Y-87392857D01*
X110878571Y-87321429D01*
X110735714Y-87250000D01*
X110521429Y-87250000D01*
X110378571Y-87321429D01*
X110307143Y-87392857D01*
X110235714Y-87535715D01*
X110235714Y-88107143D01*
X109521429Y-85964286D02*
X110307143Y-85964286D01*
X110450000Y-86035715D01*
X110521429Y-86178572D01*
X110521429Y-86464286D01*
X110450000Y-86607143D01*
X109592857Y-85964286D02*
X109521429Y-86107143D01*
X109521429Y-86464286D01*
X109592857Y-86607143D01*
X109735714Y-86678572D01*
X109878571Y-86678572D01*
X110021429Y-86607143D01*
X110092857Y-86464286D01*
X110092857Y-86107143D01*
X110164286Y-85964286D01*
X109521429Y-84607143D02*
X111021429Y-84607143D01*
X109592857Y-84607143D02*
X109521429Y-84750000D01*
X109521429Y-85035714D01*
X109592857Y-85178572D01*
X109664286Y-85250000D01*
X109807143Y-85321429D01*
X110235714Y-85321429D01*
X110378571Y-85250000D01*
X110450000Y-85178572D01*
X110521429Y-85035714D01*
X110521429Y-84750000D01*
X110450000Y-84607143D01*
X109521429Y-83892857D02*
X110521429Y-83892857D01*
X111021429Y-83892857D02*
X110950000Y-83964286D01*
X110878571Y-83892857D01*
X110950000Y-83821429D01*
X111021429Y-83892857D01*
X110878571Y-83892857D01*
X109521429Y-82964285D02*
X109592857Y-83107143D01*
X109664286Y-83178571D01*
X109807143Y-83250000D01*
X110235714Y-83250000D01*
X110378571Y-83178571D01*
X110450000Y-83107143D01*
X110521429Y-82964285D01*
X110521429Y-82750000D01*
X110450000Y-82607143D01*
X110378571Y-82535714D01*
X110235714Y-82464285D01*
X109807143Y-82464285D01*
X109664286Y-82535714D01*
X109592857Y-82607143D01*
X109521429Y-82750000D01*
X109521429Y-82964285D01*
X109521429Y-80678571D02*
X111021429Y-80678571D01*
X111021429Y-80107143D01*
X110950000Y-79964285D01*
X110878571Y-79892857D01*
X110735714Y-79821428D01*
X110521429Y-79821428D01*
X110378571Y-79892857D01*
X110307143Y-79964285D01*
X110235714Y-80107143D01*
X110235714Y-80678571D01*
X109950000Y-79250000D02*
X109950000Y-78535714D01*
X109521429Y-79392857D02*
X111021429Y-78892857D01*
X109521429Y-78392857D01*
X110307143Y-76750000D02*
X110307143Y-76250000D01*
X109521429Y-76035714D02*
X109521429Y-76750000D01*
X111021429Y-76750000D01*
X111021429Y-76035714D01*
X110521429Y-75535714D02*
X109521429Y-75178571D01*
X110521429Y-74821429D01*
X109521429Y-73607143D02*
X110307143Y-73607143D01*
X110450000Y-73678572D01*
X110521429Y-73821429D01*
X110521429Y-74107143D01*
X110450000Y-74250000D01*
X109592857Y-73607143D02*
X109521429Y-73750000D01*
X109521429Y-74107143D01*
X109592857Y-74250000D01*
X109735714Y-74321429D01*
X109878571Y-74321429D01*
X110021429Y-74250000D01*
X110092857Y-74107143D01*
X110092857Y-73750000D01*
X110164286Y-73607143D01*
X109521429Y-72678571D02*
X109592857Y-72821429D01*
X109735714Y-72892857D01*
X111021429Y-72892857D01*
X109521429Y-70107143D02*
X110235714Y-70607143D01*
X109521429Y-70964286D02*
X111021429Y-70964286D01*
X111021429Y-70392858D01*
X110950000Y-70250000D01*
X110878571Y-70178572D01*
X110735714Y-70107143D01*
X110521429Y-70107143D01*
X110378571Y-70178572D01*
X110307143Y-70250000D01*
X110235714Y-70392858D01*
X110235714Y-70964286D01*
X109521429Y-68678572D02*
X109521429Y-69535715D01*
X109521429Y-69107143D02*
X111021429Y-69107143D01*
X110807143Y-69250000D01*
X110664286Y-69392858D01*
X110592857Y-69535715D01*
X107142857Y-98464286D02*
X107071429Y-98250000D01*
X107071429Y-97892857D01*
X107142857Y-97750000D01*
X107214286Y-97678571D01*
X107357143Y-97607143D01*
X107500000Y-97607143D01*
X107642857Y-97678571D01*
X107714286Y-97750000D01*
X107785714Y-97892857D01*
X107857143Y-98178571D01*
X107928571Y-98321429D01*
X108000000Y-98392857D01*
X108142857Y-98464286D01*
X108285714Y-98464286D01*
X108428571Y-98392857D01*
X108500000Y-98321429D01*
X108571429Y-98178571D01*
X108571429Y-97821429D01*
X108500000Y-97607143D01*
X107857143Y-96464286D02*
X107857143Y-96964286D01*
X107071429Y-96964286D02*
X108571429Y-96964286D01*
X108571429Y-96250000D01*
X108571429Y-95678572D02*
X107357143Y-95678572D01*
X107214286Y-95607144D01*
X107142857Y-95535715D01*
X107071429Y-95392858D01*
X107071429Y-95107144D01*
X107142857Y-94964286D01*
X107214286Y-94892858D01*
X107357143Y-94821429D01*
X108571429Y-94821429D01*
X107142857Y-93035715D02*
X107071429Y-92821429D01*
X107071429Y-92464286D01*
X107142857Y-92321429D01*
X107214286Y-92250000D01*
X107357143Y-92178572D01*
X107500000Y-92178572D01*
X107642857Y-92250000D01*
X107714286Y-92321429D01*
X107785714Y-92464286D01*
X107857143Y-92750000D01*
X107928571Y-92892858D01*
X108000000Y-92964286D01*
X108142857Y-93035715D01*
X108285714Y-93035715D01*
X108428571Y-92964286D01*
X108500000Y-92892858D01*
X108571429Y-92750000D01*
X108571429Y-92392858D01*
X108500000Y-92178572D01*
X107071429Y-90892858D02*
X107857143Y-90892858D01*
X108000000Y-90964287D01*
X108071429Y-91107144D01*
X108071429Y-91392858D01*
X108000000Y-91535715D01*
X107142857Y-90892858D02*
X107071429Y-91035715D01*
X107071429Y-91392858D01*
X107142857Y-91535715D01*
X107285714Y-91607144D01*
X107428571Y-91607144D01*
X107571429Y-91535715D01*
X107642857Y-91392858D01*
X107642857Y-91035715D01*
X107714286Y-90892858D01*
X108071429Y-90392858D02*
X108071429Y-89821429D01*
X108571429Y-90178572D02*
X107285714Y-90178572D01*
X107142857Y-90107144D01*
X107071429Y-89964286D01*
X107071429Y-89821429D01*
X107142857Y-88750001D02*
X107071429Y-88892858D01*
X107071429Y-89178572D01*
X107142857Y-89321429D01*
X107285714Y-89392858D01*
X107857143Y-89392858D01*
X108000000Y-89321429D01*
X108071429Y-89178572D01*
X108071429Y-88892858D01*
X108000000Y-88750001D01*
X107857143Y-88678572D01*
X107714286Y-88678572D01*
X107571429Y-89392858D01*
X107071429Y-87821429D02*
X107142857Y-87964287D01*
X107285714Y-88035715D01*
X108571429Y-88035715D01*
X107071429Y-87035715D02*
X107142857Y-87178573D01*
X107285714Y-87250001D01*
X108571429Y-87250001D01*
X107071429Y-86464287D02*
X108071429Y-86464287D01*
X108571429Y-86464287D02*
X108500000Y-86535716D01*
X108428571Y-86464287D01*
X108500000Y-86392859D01*
X108571429Y-86464287D01*
X108428571Y-86464287D01*
X108071429Y-85964287D02*
X108071429Y-85392858D01*
X108571429Y-85750001D02*
X107285714Y-85750001D01*
X107142857Y-85678573D01*
X107071429Y-85535715D01*
X107071429Y-85392858D01*
X107142857Y-84321430D02*
X107071429Y-84464287D01*
X107071429Y-84750001D01*
X107142857Y-84892858D01*
X107285714Y-84964287D01*
X107857143Y-84964287D01*
X108000000Y-84892858D01*
X108071429Y-84750001D01*
X108071429Y-84464287D01*
X108000000Y-84321430D01*
X107857143Y-84250001D01*
X107714286Y-84250001D01*
X107571429Y-84964287D01*
X107071429Y-82464287D02*
X108571429Y-82464287D01*
X108571429Y-82107144D01*
X108500000Y-81892859D01*
X108357143Y-81750001D01*
X108214286Y-81678573D01*
X107928571Y-81607144D01*
X107714286Y-81607144D01*
X107428571Y-81678573D01*
X107285714Y-81750001D01*
X107142857Y-81892859D01*
X107071429Y-82107144D01*
X107071429Y-82464287D01*
X107142857Y-80392859D02*
X107071429Y-80535716D01*
X107071429Y-80821430D01*
X107142857Y-80964287D01*
X107285714Y-81035716D01*
X107857143Y-81035716D01*
X108000000Y-80964287D01*
X108071429Y-80821430D01*
X108071429Y-80535716D01*
X108000000Y-80392859D01*
X107857143Y-80321430D01*
X107714286Y-80321430D01*
X107571429Y-81035716D01*
X107142857Y-79750002D02*
X107071429Y-79607145D01*
X107071429Y-79321430D01*
X107142857Y-79178573D01*
X107285714Y-79107145D01*
X107357143Y-79107145D01*
X107500000Y-79178573D01*
X107571429Y-79321430D01*
X107571429Y-79535716D01*
X107642857Y-79678573D01*
X107785714Y-79750002D01*
X107857143Y-79750002D01*
X108000000Y-79678573D01*
X108071429Y-79535716D01*
X108071429Y-79321430D01*
X108000000Y-79178573D01*
X107071429Y-78464287D02*
X108071429Y-78464287D01*
X108571429Y-78464287D02*
X108500000Y-78535716D01*
X108428571Y-78464287D01*
X108500000Y-78392859D01*
X108571429Y-78464287D01*
X108428571Y-78464287D01*
X108071429Y-77107144D02*
X106857143Y-77107144D01*
X106714286Y-77178573D01*
X106642857Y-77250001D01*
X106571429Y-77392858D01*
X106571429Y-77607144D01*
X106642857Y-77750001D01*
X107142857Y-77107144D02*
X107071429Y-77250001D01*
X107071429Y-77535715D01*
X107142857Y-77678573D01*
X107214286Y-77750001D01*
X107357143Y-77821430D01*
X107785714Y-77821430D01*
X107928571Y-77750001D01*
X108000000Y-77678573D01*
X108071429Y-77535715D01*
X108071429Y-77250001D01*
X108000000Y-77107144D01*
X108071429Y-76392858D02*
X107071429Y-76392858D01*
X107928571Y-76392858D02*
X108000000Y-76321430D01*
X108071429Y-76178572D01*
X108071429Y-75964287D01*
X108000000Y-75821430D01*
X107857143Y-75750001D01*
X107071429Y-75750001D01*
X108571429Y-74107144D02*
X108571429Y-73250001D01*
X107071429Y-73678572D02*
X108571429Y-73678572D01*
X107142857Y-72178573D02*
X107071429Y-72321430D01*
X107071429Y-72607144D01*
X107142857Y-72750001D01*
X107285714Y-72821430D01*
X107857143Y-72821430D01*
X108000000Y-72750001D01*
X108071429Y-72607144D01*
X108071429Y-72321430D01*
X108000000Y-72178573D01*
X107857143Y-72107144D01*
X107714286Y-72107144D01*
X107571429Y-72821430D01*
X107071429Y-70821430D02*
X107857143Y-70821430D01*
X108000000Y-70892859D01*
X108071429Y-71035716D01*
X108071429Y-71321430D01*
X108000000Y-71464287D01*
X107142857Y-70821430D02*
X107071429Y-70964287D01*
X107071429Y-71321430D01*
X107142857Y-71464287D01*
X107285714Y-71535716D01*
X107428571Y-71535716D01*
X107571429Y-71464287D01*
X107642857Y-71321430D01*
X107642857Y-70964287D01*
X107714286Y-70821430D01*
X107071429Y-70107144D02*
X108071429Y-70107144D01*
X107928571Y-70107144D02*
X108000000Y-70035716D01*
X108071429Y-69892858D01*
X108071429Y-69678573D01*
X108000000Y-69535716D01*
X107857143Y-69464287D01*
X107071429Y-69464287D01*
X107857143Y-69464287D02*
X108000000Y-69392858D01*
X108071429Y-69250001D01*
X108071429Y-69035716D01*
X108000000Y-68892858D01*
X107857143Y-68821430D01*
X107071429Y-68821430D01*
X106121429Y-97964286D02*
X105050000Y-97964286D01*
X104835714Y-98035714D01*
X104692857Y-98178571D01*
X104621429Y-98392857D01*
X104621429Y-98535714D01*
X105621429Y-96607143D02*
X104621429Y-96607143D01*
X105621429Y-97250000D02*
X104835714Y-97250000D01*
X104692857Y-97178572D01*
X104621429Y-97035714D01*
X104621429Y-96821429D01*
X104692857Y-96678572D01*
X104764286Y-96607143D01*
X104621429Y-95678571D02*
X104692857Y-95821429D01*
X104835714Y-95892857D01*
X106121429Y-95892857D01*
X105621429Y-95250000D02*
X104621429Y-94892857D01*
X105621429Y-94535715D02*
X104621429Y-94892857D01*
X104264286Y-95035715D01*
X104192857Y-95107143D01*
X104121429Y-95250000D01*
X105978571Y-92892858D02*
X106050000Y-92821429D01*
X106121429Y-92678572D01*
X106121429Y-92321429D01*
X106050000Y-92178572D01*
X105978571Y-92107143D01*
X105835714Y-92035715D01*
X105692857Y-92035715D01*
X105478571Y-92107143D01*
X104621429Y-92964286D01*
X104621429Y-92035715D01*
X106121429Y-91107144D02*
X106121429Y-90964287D01*
X106050000Y-90821430D01*
X105978571Y-90750001D01*
X105835714Y-90678572D01*
X105550000Y-90607144D01*
X105192857Y-90607144D01*
X104907143Y-90678572D01*
X104764286Y-90750001D01*
X104692857Y-90821430D01*
X104621429Y-90964287D01*
X104621429Y-91107144D01*
X104692857Y-91250001D01*
X104764286Y-91321430D01*
X104907143Y-91392858D01*
X105192857Y-91464287D01*
X105550000Y-91464287D01*
X105835714Y-91392858D01*
X105978571Y-91321430D01*
X106050000Y-91250001D01*
X106121429Y-91107144D01*
X104621429Y-89178573D02*
X104621429Y-90035716D01*
X104621429Y-89607144D02*
X106121429Y-89607144D01*
X105907143Y-89750001D01*
X105764286Y-89892859D01*
X105692857Y-90035716D01*
X106121429Y-88678573D02*
X106121429Y-87678573D01*
X104621429Y-88321430D01*
X159664286Y-97535714D02*
X159592857Y-97607143D01*
X159521429Y-97821429D01*
X159521429Y-97964286D01*
X159592857Y-98178571D01*
X159735714Y-98321429D01*
X159878571Y-98392857D01*
X160164286Y-98464286D01*
X160378571Y-98464286D01*
X160664286Y-98392857D01*
X160807143Y-98321429D01*
X160950000Y-98178571D01*
X161021429Y-97964286D01*
X161021429Y-97821429D01*
X160950000Y-97607143D01*
X160878571Y-97535714D01*
X160521429Y-96250000D02*
X159521429Y-96250000D01*
X160521429Y-96892857D02*
X159735714Y-96892857D01*
X159592857Y-96821429D01*
X159521429Y-96678571D01*
X159521429Y-96464286D01*
X159592857Y-96321429D01*
X159664286Y-96250000D01*
X159521429Y-95535714D02*
X161021429Y-95535714D01*
X160450000Y-95535714D02*
X160521429Y-95392857D01*
X160521429Y-95107143D01*
X160450000Y-94964286D01*
X160378571Y-94892857D01*
X160235714Y-94821428D01*
X159807143Y-94821428D01*
X159664286Y-94892857D01*
X159592857Y-94964286D01*
X159521429Y-95107143D01*
X159521429Y-95392857D01*
X159592857Y-95535714D01*
X159592857Y-93607143D02*
X159521429Y-93750000D01*
X159521429Y-94035714D01*
X159592857Y-94178571D01*
X159735714Y-94250000D01*
X160307143Y-94250000D01*
X160450000Y-94178571D01*
X160521429Y-94035714D01*
X160521429Y-93750000D01*
X160450000Y-93607143D01*
X160307143Y-93535714D01*
X160164286Y-93535714D01*
X160021429Y-94250000D01*
X159592857Y-92964286D02*
X159521429Y-92750000D01*
X159521429Y-92392857D01*
X159592857Y-92250000D01*
X159664286Y-92178571D01*
X159807143Y-92107143D01*
X159950000Y-92107143D01*
X160092857Y-92178571D01*
X160164286Y-92250000D01*
X160235714Y-92392857D01*
X160307143Y-92678571D01*
X160378571Y-92821429D01*
X160450000Y-92892857D01*
X160592857Y-92964286D01*
X160735714Y-92964286D01*
X160878571Y-92892857D01*
X160950000Y-92821429D01*
X161021429Y-92678571D01*
X161021429Y-92321429D01*
X160950000Y-92107143D01*
X159521429Y-90821429D02*
X160307143Y-90821429D01*
X160450000Y-90892858D01*
X160521429Y-91035715D01*
X160521429Y-91321429D01*
X160450000Y-91464286D01*
X159592857Y-90821429D02*
X159521429Y-90964286D01*
X159521429Y-91321429D01*
X159592857Y-91464286D01*
X159735714Y-91535715D01*
X159878571Y-91535715D01*
X160021429Y-91464286D01*
X160092857Y-91321429D01*
X160092857Y-90964286D01*
X160164286Y-90821429D01*
X160521429Y-90321429D02*
X160521429Y-89750000D01*
X161021429Y-90107143D02*
X159735714Y-90107143D01*
X159592857Y-90035715D01*
X159521429Y-89892857D01*
X159521429Y-89750000D01*
X159521429Y-87250000D02*
X160235714Y-87750000D01*
X159521429Y-88107143D02*
X161021429Y-88107143D01*
X161021429Y-87535715D01*
X160950000Y-87392857D01*
X160878571Y-87321429D01*
X160735714Y-87250000D01*
X160521429Y-87250000D01*
X160378571Y-87321429D01*
X160307143Y-87392857D01*
X160235714Y-87535715D01*
X160235714Y-88107143D01*
X159521429Y-85964286D02*
X160307143Y-85964286D01*
X160450000Y-86035715D01*
X160521429Y-86178572D01*
X160521429Y-86464286D01*
X160450000Y-86607143D01*
X159592857Y-85964286D02*
X159521429Y-86107143D01*
X159521429Y-86464286D01*
X159592857Y-86607143D01*
X159735714Y-86678572D01*
X159878571Y-86678572D01*
X160021429Y-86607143D01*
X160092857Y-86464286D01*
X160092857Y-86107143D01*
X160164286Y-85964286D01*
X159521429Y-84607143D02*
X161021429Y-84607143D01*
X159592857Y-84607143D02*
X159521429Y-84750000D01*
X159521429Y-85035714D01*
X159592857Y-85178572D01*
X159664286Y-85250000D01*
X159807143Y-85321429D01*
X160235714Y-85321429D01*
X160378571Y-85250000D01*
X160450000Y-85178572D01*
X160521429Y-85035714D01*
X160521429Y-84750000D01*
X160450000Y-84607143D01*
X159521429Y-83892857D02*
X160521429Y-83892857D01*
X161021429Y-83892857D02*
X160950000Y-83964286D01*
X160878571Y-83892857D01*
X160950000Y-83821429D01*
X161021429Y-83892857D01*
X160878571Y-83892857D01*
X159521429Y-82964285D02*
X159592857Y-83107143D01*
X159664286Y-83178571D01*
X159807143Y-83250000D01*
X160235714Y-83250000D01*
X160378571Y-83178571D01*
X160450000Y-83107143D01*
X160521429Y-82964285D01*
X160521429Y-82750000D01*
X160450000Y-82607143D01*
X160378571Y-82535714D01*
X160235714Y-82464285D01*
X159807143Y-82464285D01*
X159664286Y-82535714D01*
X159592857Y-82607143D01*
X159521429Y-82750000D01*
X159521429Y-82964285D01*
X159521429Y-80678571D02*
X161021429Y-80678571D01*
X161021429Y-80107143D01*
X160950000Y-79964285D01*
X160878571Y-79892857D01*
X160735714Y-79821428D01*
X160521429Y-79821428D01*
X160378571Y-79892857D01*
X160307143Y-79964285D01*
X160235714Y-80107143D01*
X160235714Y-80678571D01*
X159950000Y-79250000D02*
X159950000Y-78535714D01*
X159521429Y-79392857D02*
X161021429Y-78892857D01*
X159521429Y-78392857D01*
X160307143Y-76750000D02*
X160307143Y-76250000D01*
X159521429Y-76035714D02*
X159521429Y-76750000D01*
X161021429Y-76750000D01*
X161021429Y-76035714D01*
X160521429Y-75535714D02*
X159521429Y-75178571D01*
X160521429Y-74821429D01*
X159521429Y-73607143D02*
X160307143Y-73607143D01*
X160450000Y-73678572D01*
X160521429Y-73821429D01*
X160521429Y-74107143D01*
X160450000Y-74250000D01*
X159592857Y-73607143D02*
X159521429Y-73750000D01*
X159521429Y-74107143D01*
X159592857Y-74250000D01*
X159735714Y-74321429D01*
X159878571Y-74321429D01*
X160021429Y-74250000D01*
X160092857Y-74107143D01*
X160092857Y-73750000D01*
X160164286Y-73607143D01*
X159521429Y-72678571D02*
X159592857Y-72821429D01*
X159735714Y-72892857D01*
X161021429Y-72892857D01*
X159521429Y-70107143D02*
X160235714Y-70607143D01*
X159521429Y-70964286D02*
X161021429Y-70964286D01*
X161021429Y-70392858D01*
X160950000Y-70250000D01*
X160878571Y-70178572D01*
X160735714Y-70107143D01*
X160521429Y-70107143D01*
X160378571Y-70178572D01*
X160307143Y-70250000D01*
X160235714Y-70392858D01*
X160235714Y-70964286D01*
X159521429Y-68678572D02*
X159521429Y-69535715D01*
X159521429Y-69107143D02*
X161021429Y-69107143D01*
X160807143Y-69250000D01*
X160664286Y-69392858D01*
X160592857Y-69535715D01*
X157142857Y-98464286D02*
X157071429Y-98250000D01*
X157071429Y-97892857D01*
X157142857Y-97750000D01*
X157214286Y-97678571D01*
X157357143Y-97607143D01*
X157500000Y-97607143D01*
X157642857Y-97678571D01*
X157714286Y-97750000D01*
X157785714Y-97892857D01*
X157857143Y-98178571D01*
X157928571Y-98321429D01*
X158000000Y-98392857D01*
X158142857Y-98464286D01*
X158285714Y-98464286D01*
X158428571Y-98392857D01*
X158500000Y-98321429D01*
X158571429Y-98178571D01*
X158571429Y-97821429D01*
X158500000Y-97607143D01*
X157857143Y-96464286D02*
X157857143Y-96964286D01*
X157071429Y-96964286D02*
X158571429Y-96964286D01*
X158571429Y-96250000D01*
X158571429Y-95678572D02*
X157357143Y-95678572D01*
X157214286Y-95607144D01*
X157142857Y-95535715D01*
X157071429Y-95392858D01*
X157071429Y-95107144D01*
X157142857Y-94964286D01*
X157214286Y-94892858D01*
X157357143Y-94821429D01*
X158571429Y-94821429D01*
X157142857Y-93035715D02*
X157071429Y-92821429D01*
X157071429Y-92464286D01*
X157142857Y-92321429D01*
X157214286Y-92250000D01*
X157357143Y-92178572D01*
X157500000Y-92178572D01*
X157642857Y-92250000D01*
X157714286Y-92321429D01*
X157785714Y-92464286D01*
X157857143Y-92750000D01*
X157928571Y-92892858D01*
X158000000Y-92964286D01*
X158142857Y-93035715D01*
X158285714Y-93035715D01*
X158428571Y-92964286D01*
X158500000Y-92892858D01*
X158571429Y-92750000D01*
X158571429Y-92392858D01*
X158500000Y-92178572D01*
X157071429Y-90892858D02*
X157857143Y-90892858D01*
X158000000Y-90964287D01*
X158071429Y-91107144D01*
X158071429Y-91392858D01*
X158000000Y-91535715D01*
X157142857Y-90892858D02*
X157071429Y-91035715D01*
X157071429Y-91392858D01*
X157142857Y-91535715D01*
X157285714Y-91607144D01*
X157428571Y-91607144D01*
X157571429Y-91535715D01*
X157642857Y-91392858D01*
X157642857Y-91035715D01*
X157714286Y-90892858D01*
X158071429Y-90392858D02*
X158071429Y-89821429D01*
X158571429Y-90178572D02*
X157285714Y-90178572D01*
X157142857Y-90107144D01*
X157071429Y-89964286D01*
X157071429Y-89821429D01*
X157142857Y-88750001D02*
X157071429Y-88892858D01*
X157071429Y-89178572D01*
X157142857Y-89321429D01*
X157285714Y-89392858D01*
X157857143Y-89392858D01*
X158000000Y-89321429D01*
X158071429Y-89178572D01*
X158071429Y-88892858D01*
X158000000Y-88750001D01*
X157857143Y-88678572D01*
X157714286Y-88678572D01*
X157571429Y-89392858D01*
X157071429Y-87821429D02*
X157142857Y-87964287D01*
X157285714Y-88035715D01*
X158571429Y-88035715D01*
X157071429Y-87035715D02*
X157142857Y-87178573D01*
X157285714Y-87250001D01*
X158571429Y-87250001D01*
X157071429Y-86464287D02*
X158071429Y-86464287D01*
X158571429Y-86464287D02*
X158500000Y-86535716D01*
X158428571Y-86464287D01*
X158500000Y-86392859D01*
X158571429Y-86464287D01*
X158428571Y-86464287D01*
X158071429Y-85964287D02*
X158071429Y-85392858D01*
X158571429Y-85750001D02*
X157285714Y-85750001D01*
X157142857Y-85678573D01*
X157071429Y-85535715D01*
X157071429Y-85392858D01*
X157142857Y-84321430D02*
X157071429Y-84464287D01*
X157071429Y-84750001D01*
X157142857Y-84892858D01*
X157285714Y-84964287D01*
X157857143Y-84964287D01*
X158000000Y-84892858D01*
X158071429Y-84750001D01*
X158071429Y-84464287D01*
X158000000Y-84321430D01*
X157857143Y-84250001D01*
X157714286Y-84250001D01*
X157571429Y-84964287D01*
X157071429Y-82464287D02*
X158571429Y-82464287D01*
X158571429Y-82107144D01*
X158500000Y-81892859D01*
X158357143Y-81750001D01*
X158214286Y-81678573D01*
X157928571Y-81607144D01*
X157714286Y-81607144D01*
X157428571Y-81678573D01*
X157285714Y-81750001D01*
X157142857Y-81892859D01*
X157071429Y-82107144D01*
X157071429Y-82464287D01*
X157142857Y-80392859D02*
X157071429Y-80535716D01*
X157071429Y-80821430D01*
X157142857Y-80964287D01*
X157285714Y-81035716D01*
X157857143Y-81035716D01*
X158000000Y-80964287D01*
X158071429Y-80821430D01*
X158071429Y-80535716D01*
X158000000Y-80392859D01*
X157857143Y-80321430D01*
X157714286Y-80321430D01*
X157571429Y-81035716D01*
X157142857Y-79750002D02*
X157071429Y-79607145D01*
X157071429Y-79321430D01*
X157142857Y-79178573D01*
X157285714Y-79107145D01*
X157357143Y-79107145D01*
X157500000Y-79178573D01*
X157571429Y-79321430D01*
X157571429Y-79535716D01*
X157642857Y-79678573D01*
X157785714Y-79750002D01*
X157857143Y-79750002D01*
X158000000Y-79678573D01*
X158071429Y-79535716D01*
X158071429Y-79321430D01*
X158000000Y-79178573D01*
X157071429Y-78464287D02*
X158071429Y-78464287D01*
X158571429Y-78464287D02*
X158500000Y-78535716D01*
X158428571Y-78464287D01*
X158500000Y-78392859D01*
X158571429Y-78464287D01*
X158428571Y-78464287D01*
X158071429Y-77107144D02*
X156857143Y-77107144D01*
X156714286Y-77178573D01*
X156642857Y-77250001D01*
X156571429Y-77392858D01*
X156571429Y-77607144D01*
X156642857Y-77750001D01*
X157142857Y-77107144D02*
X157071429Y-77250001D01*
X157071429Y-77535715D01*
X157142857Y-77678573D01*
X157214286Y-77750001D01*
X157357143Y-77821430D01*
X157785714Y-77821430D01*
X157928571Y-77750001D01*
X158000000Y-77678573D01*
X158071429Y-77535715D01*
X158071429Y-77250001D01*
X158000000Y-77107144D01*
X158071429Y-76392858D02*
X157071429Y-76392858D01*
X157928571Y-76392858D02*
X158000000Y-76321430D01*
X158071429Y-76178572D01*
X158071429Y-75964287D01*
X158000000Y-75821430D01*
X157857143Y-75750001D01*
X157071429Y-75750001D01*
X158571429Y-74107144D02*
X158571429Y-73250001D01*
X157071429Y-73678572D02*
X158571429Y-73678572D01*
X157142857Y-72178573D02*
X157071429Y-72321430D01*
X157071429Y-72607144D01*
X157142857Y-72750001D01*
X157285714Y-72821430D01*
X157857143Y-72821430D01*
X158000000Y-72750001D01*
X158071429Y-72607144D01*
X158071429Y-72321430D01*
X158000000Y-72178573D01*
X157857143Y-72107144D01*
X157714286Y-72107144D01*
X157571429Y-72821430D01*
X157071429Y-70821430D02*
X157857143Y-70821430D01*
X158000000Y-70892859D01*
X158071429Y-71035716D01*
X158071429Y-71321430D01*
X158000000Y-71464287D01*
X157142857Y-70821430D02*
X157071429Y-70964287D01*
X157071429Y-71321430D01*
X157142857Y-71464287D01*
X157285714Y-71535716D01*
X157428571Y-71535716D01*
X157571429Y-71464287D01*
X157642857Y-71321430D01*
X157642857Y-70964287D01*
X157714286Y-70821430D01*
X157071429Y-70107144D02*
X158071429Y-70107144D01*
X157928571Y-70107144D02*
X158000000Y-70035716D01*
X158071429Y-69892858D01*
X158071429Y-69678573D01*
X158000000Y-69535716D01*
X157857143Y-69464287D01*
X157071429Y-69464287D01*
X157857143Y-69464287D02*
X158000000Y-69392858D01*
X158071429Y-69250001D01*
X158071429Y-69035716D01*
X158000000Y-68892858D01*
X157857143Y-68821430D01*
X157071429Y-68821430D01*
X156121429Y-97964286D02*
X155050000Y-97964286D01*
X154835714Y-98035714D01*
X154692857Y-98178571D01*
X154621429Y-98392857D01*
X154621429Y-98535714D01*
X155621429Y-96607143D02*
X154621429Y-96607143D01*
X155621429Y-97250000D02*
X154835714Y-97250000D01*
X154692857Y-97178572D01*
X154621429Y-97035714D01*
X154621429Y-96821429D01*
X154692857Y-96678572D01*
X154764286Y-96607143D01*
X154621429Y-95678571D02*
X154692857Y-95821429D01*
X154835714Y-95892857D01*
X156121429Y-95892857D01*
X155621429Y-95250000D02*
X154621429Y-94892857D01*
X155621429Y-94535715D02*
X154621429Y-94892857D01*
X154264286Y-95035715D01*
X154192857Y-95107143D01*
X154121429Y-95250000D01*
X155978571Y-92892858D02*
X156050000Y-92821429D01*
X156121429Y-92678572D01*
X156121429Y-92321429D01*
X156050000Y-92178572D01*
X155978571Y-92107143D01*
X155835714Y-92035715D01*
X155692857Y-92035715D01*
X155478571Y-92107143D01*
X154621429Y-92964286D01*
X154621429Y-92035715D01*
X156121429Y-91107144D02*
X156121429Y-90964287D01*
X156050000Y-90821430D01*
X155978571Y-90750001D01*
X155835714Y-90678572D01*
X155550000Y-90607144D01*
X155192857Y-90607144D01*
X154907143Y-90678572D01*
X154764286Y-90750001D01*
X154692857Y-90821430D01*
X154621429Y-90964287D01*
X154621429Y-91107144D01*
X154692857Y-91250001D01*
X154764286Y-91321430D01*
X154907143Y-91392858D01*
X155192857Y-91464287D01*
X155550000Y-91464287D01*
X155835714Y-91392858D01*
X155978571Y-91321430D01*
X156050000Y-91250001D01*
X156121429Y-91107144D01*
X154621429Y-89178573D02*
X154621429Y-90035716D01*
X154621429Y-89607144D02*
X156121429Y-89607144D01*
X155907143Y-89750001D01*
X155764286Y-89892859D01*
X155692857Y-90035716D01*
X156121429Y-88678573D02*
X156121429Y-87678573D01*
X154621429Y-88321430D01*
D12*
G36*
X111490311Y-105606464D02*
X111304930Y-105488590D01*
X111039383Y-105338642D01*
X110946167Y-105289005D01*
X110653477Y-105132608D01*
X110419527Y-105002622D01*
X110284515Y-104921536D01*
X110269873Y-104910620D01*
X110267388Y-104808887D01*
X110335771Y-104620576D01*
X110375707Y-104540613D01*
X110480713Y-104328783D01*
X110539480Y-104179352D01*
X110544000Y-104154285D01*
X110469219Y-104125941D01*
X110277182Y-104132452D01*
X110120667Y-104153978D01*
X109760884Y-104215205D01*
X109380745Y-104279921D01*
X109280308Y-104297025D01*
X109027670Y-104331926D01*
X108894392Y-104319912D01*
X108835085Y-104253212D01*
X108824292Y-104218952D01*
X108858940Y-104053909D01*
X109013748Y-103851283D01*
X109029651Y-103835754D01*
X109181174Y-103708183D01*
X109268441Y-103668697D01*
X109276575Y-103680993D01*
X109312108Y-103684416D01*
X109371091Y-103602084D01*
X109401209Y-103438568D01*
X109280956Y-103332667D01*
X109038251Y-103295963D01*
X108927550Y-103283763D01*
X108878065Y-103221182D01*
X108877003Y-103066322D01*
X108902118Y-102850166D01*
X108949538Y-102553123D01*
X109005814Y-102296832D01*
X109033527Y-102205729D01*
X109070085Y-102072142D01*
X109015051Y-102029043D01*
X108831091Y-102047218D01*
X108830993Y-102047232D01*
X108584162Y-102095307D01*
X108270111Y-102170548D01*
X108113557Y-102212635D01*
X107672780Y-102336596D01*
X107556317Y-102044602D01*
X107439855Y-101752608D01*
X107026111Y-102248471D01*
X106824754Y-102490489D01*
X106669082Y-102678904D01*
X106587957Y-102778751D01*
X106583477Y-102784651D01*
X106518796Y-102739009D01*
X106354577Y-102588455D01*
X106108544Y-102350235D01*
X105798421Y-102041596D01*
X105441933Y-101679787D01*
X105330543Y-101565457D01*
X104962853Y-101191305D01*
X104635021Y-100865684D01*
X104365025Y-100605799D01*
X104170847Y-100428856D01*
X104070465Y-100352060D01*
X104061434Y-100351011D01*
X104069303Y-100446191D01*
X104144987Y-100626414D01*
X104174014Y-100681204D01*
X104280038Y-100895812D01*
X104419753Y-101209087D01*
X104566778Y-101561373D01*
X104599655Y-101643666D01*
X105017395Y-102925810D01*
X105272800Y-104239689D01*
X105366350Y-105570514D01*
X105298526Y-106903495D01*
X105069809Y-108223843D01*
X104680679Y-109516768D01*
X104315221Y-110393047D01*
X104180472Y-110688542D01*
X104079863Y-110923155D01*
X104030467Y-111056606D01*
X104028139Y-111070380D01*
X104081052Y-111043512D01*
X104215498Y-110917875D01*
X104379490Y-110745333D01*
X104546209Y-110540597D01*
X104546209Y-110355963D01*
X104531344Y-110313227D01*
X104574778Y-110149750D01*
X104667150Y-109900019D01*
X104675584Y-109879277D01*
X104823827Y-109489258D01*
X104972543Y-109054781D01*
X105051840Y-108798000D01*
X105271201Y-107839774D01*
X105410966Y-106790108D01*
X105467819Y-105708500D01*
X105438447Y-104654445D01*
X105332446Y-103760333D01*
X105246622Y-103358515D01*
X105114255Y-102853323D01*
X104951659Y-102298619D01*
X104775152Y-101748264D01*
X104601049Y-101256117D01*
X104487119Y-100969866D01*
X104519647Y-100974348D01*
X104652437Y-101085807D01*
X104868894Y-101288668D01*
X105152425Y-101567356D01*
X105486437Y-101906296D01*
X105503329Y-101923684D01*
X106590308Y-103043302D01*
X106737817Y-102809151D01*
X106889177Y-102593413D01*
X107084391Y-102344616D01*
X107139897Y-102278666D01*
X107394469Y-101982333D01*
X107501158Y-102215166D01*
X107566751Y-102348583D01*
X107637657Y-102418929D01*
X107754052Y-102431076D01*
X107956114Y-102389891D01*
X108259458Y-102307069D01*
X108532951Y-102241630D01*
X108738018Y-102212208D01*
X108822103Y-102221881D01*
X108835534Y-102328612D01*
X108811759Y-102545572D01*
X108773804Y-102742535D01*
X108715596Y-103069724D01*
X108725364Y-103266424D01*
X108810076Y-103360103D01*
X108935334Y-103379333D01*
X109101303Y-103414220D01*
X109119431Y-103521374D01*
X108989400Y-103704534D01*
X108899680Y-103796192D01*
X108728702Y-103977868D01*
X108665705Y-104111548D01*
X108687730Y-104256605D01*
X108704032Y-104302141D01*
X108791449Y-104533734D01*
X109392558Y-104423030D01*
X109721202Y-104361151D01*
X110006456Y-104305066D01*
X110186899Y-104266853D01*
X110187624Y-104266682D01*
X110314017Y-104245234D01*
X110335966Y-104292274D01*
X110265215Y-104446017D01*
X110251124Y-104473315D01*
X110154663Y-104694469D01*
X110145487Y-104861325D01*
X110241762Y-105006629D01*
X110461655Y-105163129D01*
X110711896Y-105303921D01*
X110988812Y-105459964D01*
X111196673Y-105589647D01*
X111299483Y-105670124D01*
X111304563Y-105680104D01*
X111235255Y-105742877D01*
X111050895Y-105856120D01*
X110789087Y-105997025D01*
X110746189Y-106018771D01*
X110467333Y-106170661D01*
X110252885Y-106309197D01*
X110145055Y-106406800D01*
X110141511Y-106413862D01*
X110146089Y-106559769D01*
X110215005Y-106773451D01*
X110234286Y-106816029D01*
X110317676Y-107003983D01*
X110321072Y-107085261D01*
X110240729Y-107104380D01*
X110210011Y-107104666D01*
X110037646Y-107059556D01*
X109862427Y-106908369D01*
X109658583Y-106627320D01*
X109611302Y-106552125D01*
X109488219Y-106375431D01*
X109400425Y-106289841D01*
X109383181Y-106289930D01*
X109404564Y-106375638D01*
X109502431Y-106554272D01*
X109610416Y-106720395D01*
X109915774Y-107224466D01*
X110157060Y-107742640D01*
X110310202Y-108220030D01*
X110341361Y-108387087D01*
X110359868Y-108651516D01*
X110310794Y-108835691D01*
X110188553Y-109004927D01*
X110005874Y-109166917D01*
X109772401Y-109253390D01*
X109555186Y-109284255D01*
X109265463Y-109292578D01*
X109094375Y-109255072D01*
X109068937Y-109232018D01*
X109070767Y-109172357D01*
X109132719Y-109185235D01*
X109285021Y-109184742D01*
X109305079Y-109179323D01*
X109305079Y-108999159D01*
X109090292Y-108993856D01*
X108985954Y-108930193D01*
X108933815Y-108764458D01*
X108924180Y-108713333D01*
X108880423Y-108382659D01*
X108902719Y-108180834D01*
X108999302Y-108077547D01*
X109104667Y-108049054D01*
X109309227Y-107994329D01*
X109412193Y-107939380D01*
X109412193Y-107756696D01*
X109333253Y-107725436D01*
X109162155Y-107603633D01*
X108931557Y-107415178D01*
X108858029Y-107351304D01*
X108624171Y-107140406D01*
X108452981Y-106976302D01*
X108373076Y-106886767D01*
X108371107Y-106878671D01*
X108459242Y-106883595D01*
X108647398Y-106925474D01*
X108696717Y-106938696D01*
X108982579Y-107085478D01*
X109227465Y-107367504D01*
X109351360Y-107575067D01*
X109413260Y-107720479D01*
X109412193Y-107756696D01*
X109412193Y-107939380D01*
X109418107Y-107936223D01*
X109507164Y-107927379D01*
X109603430Y-108061353D01*
X109650940Y-108166342D01*
X109765210Y-108528585D01*
X109754572Y-108781683D01*
X109615187Y-108934880D01*
X109343217Y-108997419D01*
X109305079Y-108999159D01*
X109305079Y-109179323D01*
X109507949Y-109124505D01*
X109560450Y-109103919D01*
X109758352Y-109004196D01*
X109845537Y-108883215D01*
X109866487Y-108672214D01*
X109866667Y-108630572D01*
X109813910Y-108314697D01*
X109667514Y-107913011D01*
X109445290Y-107467186D01*
X109198809Y-107067990D01*
X109049693Y-106900427D01*
X108855673Y-106816487D01*
X108644067Y-106787290D01*
X108397561Y-106783270D01*
X108281222Y-106831059D01*
X108296917Y-106942237D01*
X108446512Y-107128385D01*
X108731872Y-107401085D01*
X108744834Y-107412783D01*
X108989367Y-107636098D01*
X109112790Y-107775222D01*
X109117949Y-107861326D01*
X109007690Y-107925580D01*
X108798011Y-107994970D01*
X108708257Y-108066331D01*
X108703618Y-108226368D01*
X108719897Y-108312470D01*
X108775285Y-108597271D01*
X108824799Y-108894625D01*
X108870493Y-109202916D01*
X108250079Y-109032794D01*
X107927093Y-108955402D01*
X107701136Y-108924098D01*
X107603083Y-108943050D01*
X107602113Y-108945329D01*
X107532842Y-109076984D01*
X107466235Y-109176130D01*
X107411416Y-109226096D01*
X107340617Y-109218575D01*
X107234141Y-109136503D01*
X107072289Y-108962818D01*
X106835363Y-108680458D01*
X106693965Y-108507193D01*
X106438054Y-108202472D01*
X106218665Y-107960372D01*
X106057661Y-107803666D01*
X105976903Y-107755124D01*
X105973974Y-107757223D01*
X105918726Y-107863943D01*
X105823356Y-108085511D01*
X105706599Y-108378000D01*
X105682894Y-108439665D01*
X105550826Y-108742056D01*
X105370914Y-109096496D01*
X105164929Y-109466282D01*
X104954641Y-109814711D01*
X104761820Y-110105083D01*
X104608237Y-110300694D01*
X104546209Y-110355963D01*
X104546209Y-110540597D01*
X104778284Y-110255600D01*
X105170084Y-109681027D01*
X105513899Y-109086669D01*
X105765640Y-108545499D01*
X105883216Y-108261909D01*
X105981883Y-108052985D01*
X106043182Y-107957217D01*
X106048876Y-107954969D01*
X106117494Y-108019173D01*
X106267443Y-108191366D01*
X106476697Y-108445404D01*
X106723232Y-108755143D01*
X106726492Y-108759303D01*
X107027406Y-109135927D01*
X107242645Y-109385453D01*
X107384477Y-109518919D01*
X107465169Y-109547364D01*
X107496987Y-109481825D01*
X107498693Y-109454166D01*
X107548694Y-109305214D01*
X107615798Y-109197517D01*
X107719523Y-109104157D01*
X107866554Y-109089824D01*
X108057605Y-109128409D01*
X108318547Y-109193649D01*
X108659940Y-109279151D01*
X108935333Y-109348208D01*
X109465432Y-109427034D01*
X109889095Y-109377536D01*
X110199698Y-109208179D01*
X110390614Y-108927431D01*
X110455217Y-108543757D01*
X110386882Y-108065625D01*
X110251263Y-107666704D01*
X110047212Y-107170409D01*
X110295606Y-107220088D01*
X110458293Y-107246861D01*
X110525264Y-107221547D01*
X110502280Y-107113177D01*
X110395101Y-106890780D01*
X110367087Y-106835808D01*
X110283722Y-106673284D01*
X110245680Y-106558149D01*
X110272902Y-106464669D01*
X110385333Y-106367109D01*
X110602914Y-106239736D01*
X110945590Y-106056814D01*
X110988500Y-106033946D01*
X111260428Y-105881728D01*
X111462174Y-105755208D01*
X111557070Y-105677724D01*
X111560000Y-105670203D01*
X111490311Y-105606464D01*
X111490311Y-105606464D01*
G37*
X111490311Y-105606464D02*
X111304930Y-105488590D01*
X111039383Y-105338642D01*
X110946167Y-105289005D01*
X110653477Y-105132608D01*
X110419527Y-105002622D01*
X110284515Y-104921536D01*
X110269873Y-104910620D01*
X110267388Y-104808887D01*
X110335771Y-104620576D01*
X110375707Y-104540613D01*
X110480713Y-104328783D01*
X110539480Y-104179352D01*
X110544000Y-104154285D01*
X110469219Y-104125941D01*
X110277182Y-104132452D01*
X110120667Y-104153978D01*
X109760884Y-104215205D01*
X109380745Y-104279921D01*
X109280308Y-104297025D01*
X109027670Y-104331926D01*
X108894392Y-104319912D01*
X108835085Y-104253212D01*
X108824292Y-104218952D01*
X108858940Y-104053909D01*
X109013748Y-103851283D01*
X109029651Y-103835754D01*
X109181174Y-103708183D01*
X109268441Y-103668697D01*
X109276575Y-103680993D01*
X109312108Y-103684416D01*
X109371091Y-103602084D01*
X109401209Y-103438568D01*
X109280956Y-103332667D01*
X109038251Y-103295963D01*
X108927550Y-103283763D01*
X108878065Y-103221182D01*
X108877003Y-103066322D01*
X108902118Y-102850166D01*
X108949538Y-102553123D01*
X109005814Y-102296832D01*
X109033527Y-102205729D01*
X109070085Y-102072142D01*
X109015051Y-102029043D01*
X108831091Y-102047218D01*
X108830993Y-102047232D01*
X108584162Y-102095307D01*
X108270111Y-102170548D01*
X108113557Y-102212635D01*
X107672780Y-102336596D01*
X107556317Y-102044602D01*
X107439855Y-101752608D01*
X107026111Y-102248471D01*
X106824754Y-102490489D01*
X106669082Y-102678904D01*
X106587957Y-102778751D01*
X106583477Y-102784651D01*
X106518796Y-102739009D01*
X106354577Y-102588455D01*
X106108544Y-102350235D01*
X105798421Y-102041596D01*
X105441933Y-101679787D01*
X105330543Y-101565457D01*
X104962853Y-101191305D01*
X104635021Y-100865684D01*
X104365025Y-100605799D01*
X104170847Y-100428856D01*
X104070465Y-100352060D01*
X104061434Y-100351011D01*
X104069303Y-100446191D01*
X104144987Y-100626414D01*
X104174014Y-100681204D01*
X104280038Y-100895812D01*
X104419753Y-101209087D01*
X104566778Y-101561373D01*
X104599655Y-101643666D01*
X105017395Y-102925810D01*
X105272800Y-104239689D01*
X105366350Y-105570514D01*
X105298526Y-106903495D01*
X105069809Y-108223843D01*
X104680679Y-109516768D01*
X104315221Y-110393047D01*
X104180472Y-110688542D01*
X104079863Y-110923155D01*
X104030467Y-111056606D01*
X104028139Y-111070380D01*
X104081052Y-111043512D01*
X104215498Y-110917875D01*
X104379490Y-110745333D01*
X104546209Y-110540597D01*
X104546209Y-110355963D01*
X104531344Y-110313227D01*
X104574778Y-110149750D01*
X104667150Y-109900019D01*
X104675584Y-109879277D01*
X104823827Y-109489258D01*
X104972543Y-109054781D01*
X105051840Y-108798000D01*
X105271201Y-107839774D01*
X105410966Y-106790108D01*
X105467819Y-105708500D01*
X105438447Y-104654445D01*
X105332446Y-103760333D01*
X105246622Y-103358515D01*
X105114255Y-102853323D01*
X104951659Y-102298619D01*
X104775152Y-101748264D01*
X104601049Y-101256117D01*
X104487119Y-100969866D01*
X104519647Y-100974348D01*
X104652437Y-101085807D01*
X104868894Y-101288668D01*
X105152425Y-101567356D01*
X105486437Y-101906296D01*
X105503329Y-101923684D01*
X106590308Y-103043302D01*
X106737817Y-102809151D01*
X106889177Y-102593413D01*
X107084391Y-102344616D01*
X107139897Y-102278666D01*
X107394469Y-101982333D01*
X107501158Y-102215166D01*
X107566751Y-102348583D01*
X107637657Y-102418929D01*
X107754052Y-102431076D01*
X107956114Y-102389891D01*
X108259458Y-102307069D01*
X108532951Y-102241630D01*
X108738018Y-102212208D01*
X108822103Y-102221881D01*
X108835534Y-102328612D01*
X108811759Y-102545572D01*
X108773804Y-102742535D01*
X108715596Y-103069724D01*
X108725364Y-103266424D01*
X108810076Y-103360103D01*
X108935334Y-103379333D01*
X109101303Y-103414220D01*
X109119431Y-103521374D01*
X108989400Y-103704534D01*
X108899680Y-103796192D01*
X108728702Y-103977868D01*
X108665705Y-104111548D01*
X108687730Y-104256605D01*
X108704032Y-104302141D01*
X108791449Y-104533734D01*
X109392558Y-104423030D01*
X109721202Y-104361151D01*
X110006456Y-104305066D01*
X110186899Y-104266853D01*
X110187624Y-104266682D01*
X110314017Y-104245234D01*
X110335966Y-104292274D01*
X110265215Y-104446017D01*
X110251124Y-104473315D01*
X110154663Y-104694469D01*
X110145487Y-104861325D01*
X110241762Y-105006629D01*
X110461655Y-105163129D01*
X110711896Y-105303921D01*
X110988812Y-105459964D01*
X111196673Y-105589647D01*
X111299483Y-105670124D01*
X111304563Y-105680104D01*
X111235255Y-105742877D01*
X111050895Y-105856120D01*
X110789087Y-105997025D01*
X110746189Y-106018771D01*
X110467333Y-106170661D01*
X110252885Y-106309197D01*
X110145055Y-106406800D01*
X110141511Y-106413862D01*
X110146089Y-106559769D01*
X110215005Y-106773451D01*
X110234286Y-106816029D01*
X110317676Y-107003983D01*
X110321072Y-107085261D01*
X110240729Y-107104380D01*
X110210011Y-107104666D01*
X110037646Y-107059556D01*
X109862427Y-106908369D01*
X109658583Y-106627320D01*
X109611302Y-106552125D01*
X109488219Y-106375431D01*
X109400425Y-106289841D01*
X109383181Y-106289930D01*
X109404564Y-106375638D01*
X109502431Y-106554272D01*
X109610416Y-106720395D01*
X109915774Y-107224466D01*
X110157060Y-107742640D01*
X110310202Y-108220030D01*
X110341361Y-108387087D01*
X110359868Y-108651516D01*
X110310794Y-108835691D01*
X110188553Y-109004927D01*
X110005874Y-109166917D01*
X109772401Y-109253390D01*
X109555186Y-109284255D01*
X109265463Y-109292578D01*
X109094375Y-109255072D01*
X109068937Y-109232018D01*
X109070767Y-109172357D01*
X109132719Y-109185235D01*
X109285021Y-109184742D01*
X109305079Y-109179323D01*
X109305079Y-108999159D01*
X109090292Y-108993856D01*
X108985954Y-108930193D01*
X108933815Y-108764458D01*
X108924180Y-108713333D01*
X108880423Y-108382659D01*
X108902719Y-108180834D01*
X108999302Y-108077547D01*
X109104667Y-108049054D01*
X109309227Y-107994329D01*
X109412193Y-107939380D01*
X109412193Y-107756696D01*
X109333253Y-107725436D01*
X109162155Y-107603633D01*
X108931557Y-107415178D01*
X108858029Y-107351304D01*
X108624171Y-107140406D01*
X108452981Y-106976302D01*
X108373076Y-106886767D01*
X108371107Y-106878671D01*
X108459242Y-106883595D01*
X108647398Y-106925474D01*
X108696717Y-106938696D01*
X108982579Y-107085478D01*
X109227465Y-107367504D01*
X109351360Y-107575067D01*
X109413260Y-107720479D01*
X109412193Y-107756696D01*
X109412193Y-107939380D01*
X109418107Y-107936223D01*
X109507164Y-107927379D01*
X109603430Y-108061353D01*
X109650940Y-108166342D01*
X109765210Y-108528585D01*
X109754572Y-108781683D01*
X109615187Y-108934880D01*
X109343217Y-108997419D01*
X109305079Y-108999159D01*
X109305079Y-109179323D01*
X109507949Y-109124505D01*
X109560450Y-109103919D01*
X109758352Y-109004196D01*
X109845537Y-108883215D01*
X109866487Y-108672214D01*
X109866667Y-108630572D01*
X109813910Y-108314697D01*
X109667514Y-107913011D01*
X109445290Y-107467186D01*
X109198809Y-107067990D01*
X109049693Y-106900427D01*
X108855673Y-106816487D01*
X108644067Y-106787290D01*
X108397561Y-106783270D01*
X108281222Y-106831059D01*
X108296917Y-106942237D01*
X108446512Y-107128385D01*
X108731872Y-107401085D01*
X108744834Y-107412783D01*
X108989367Y-107636098D01*
X109112790Y-107775222D01*
X109117949Y-107861326D01*
X109007690Y-107925580D01*
X108798011Y-107994970D01*
X108708257Y-108066331D01*
X108703618Y-108226368D01*
X108719897Y-108312470D01*
X108775285Y-108597271D01*
X108824799Y-108894625D01*
X108870493Y-109202916D01*
X108250079Y-109032794D01*
X107927093Y-108955402D01*
X107701136Y-108924098D01*
X107603083Y-108943050D01*
X107602113Y-108945329D01*
X107532842Y-109076984D01*
X107466235Y-109176130D01*
X107411416Y-109226096D01*
X107340617Y-109218575D01*
X107234141Y-109136503D01*
X107072289Y-108962818D01*
X106835363Y-108680458D01*
X106693965Y-108507193D01*
X106438054Y-108202472D01*
X106218665Y-107960372D01*
X106057661Y-107803666D01*
X105976903Y-107755124D01*
X105973974Y-107757223D01*
X105918726Y-107863943D01*
X105823356Y-108085511D01*
X105706599Y-108378000D01*
X105682894Y-108439665D01*
X105550826Y-108742056D01*
X105370914Y-109096496D01*
X105164929Y-109466282D01*
X104954641Y-109814711D01*
X104761820Y-110105083D01*
X104608237Y-110300694D01*
X104546209Y-110355963D01*
X104546209Y-110540597D01*
X104778284Y-110255600D01*
X105170084Y-109681027D01*
X105513899Y-109086669D01*
X105765640Y-108545499D01*
X105883216Y-108261909D01*
X105981883Y-108052985D01*
X106043182Y-107957217D01*
X106048876Y-107954969D01*
X106117494Y-108019173D01*
X106267443Y-108191366D01*
X106476697Y-108445404D01*
X106723232Y-108755143D01*
X106726492Y-108759303D01*
X107027406Y-109135927D01*
X107242645Y-109385453D01*
X107384477Y-109518919D01*
X107465169Y-109547364D01*
X107496987Y-109481825D01*
X107498693Y-109454166D01*
X107548694Y-109305214D01*
X107615798Y-109197517D01*
X107719523Y-109104157D01*
X107866554Y-109089824D01*
X108057605Y-109128409D01*
X108318547Y-109193649D01*
X108659940Y-109279151D01*
X108935333Y-109348208D01*
X109465432Y-109427034D01*
X109889095Y-109377536D01*
X110199698Y-109208179D01*
X110390614Y-108927431D01*
X110455217Y-108543757D01*
X110386882Y-108065625D01*
X110251263Y-107666704D01*
X110047212Y-107170409D01*
X110295606Y-107220088D01*
X110458293Y-107246861D01*
X110525264Y-107221547D01*
X110502280Y-107113177D01*
X110395101Y-106890780D01*
X110367087Y-106835808D01*
X110283722Y-106673284D01*
X110245680Y-106558149D01*
X110272902Y-106464669D01*
X110385333Y-106367109D01*
X110602914Y-106239736D01*
X110945590Y-106056814D01*
X110988500Y-106033946D01*
X111260428Y-105881728D01*
X111462174Y-105755208D01*
X111557070Y-105677724D01*
X111560000Y-105670203D01*
X111490311Y-105606464D01*
G36*
X106440297Y-105597410D02*
X106347660Y-105498578D01*
X106222140Y-105391060D01*
X106139284Y-105410384D01*
X106051537Y-105522732D01*
X105966654Y-105670343D01*
X105996456Y-105775543D01*
X106065816Y-105848945D01*
X106184107Y-105940592D01*
X106279003Y-105909720D01*
X106361938Y-105824790D01*
X106460973Y-105694864D01*
X106440297Y-105597410D01*
X106440297Y-105597410D01*
G37*
X106440297Y-105597410D02*
X106347660Y-105498578D01*
X106222140Y-105391060D01*
X106139284Y-105410384D01*
X106051537Y-105522732D01*
X105966654Y-105670343D01*
X105996456Y-105775543D01*
X106065816Y-105848945D01*
X106184107Y-105940592D01*
X106279003Y-105909720D01*
X106361938Y-105824790D01*
X106460973Y-105694864D01*
X106440297Y-105597410D01*
G36*
X106076904Y-103381793D02*
X106056667Y-103379333D01*
X105974460Y-103443762D01*
X105972000Y-103464000D01*
X106036429Y-103546206D01*
X106056667Y-103548666D01*
X106138873Y-103484237D01*
X106141333Y-103464000D01*
X106076904Y-103381793D01*
X106076904Y-103381793D01*
G37*
X106076904Y-103381793D02*
X106056667Y-103379333D01*
X105974460Y-103443762D01*
X105972000Y-103464000D01*
X106036429Y-103546206D01*
X106056667Y-103548666D01*
X106138873Y-103484237D01*
X106141333Y-103464000D01*
X106076904Y-103381793D01*
G36*
X109224988Y-106051584D02*
X109095697Y-105859614D01*
X108912751Y-105614713D01*
X108887805Y-105582801D01*
X108660635Y-105312869D01*
X108495878Y-105168293D01*
X108369036Y-105129099D01*
X108337472Y-105134160D01*
X108200635Y-105142352D01*
X108198661Y-105058257D01*
X108332383Y-104878898D01*
X108441889Y-104761316D01*
X108604305Y-104577502D01*
X108659954Y-104446116D01*
X108629453Y-104308025D01*
X108613037Y-104270452D01*
X108461407Y-104097009D01*
X108251767Y-104066259D01*
X108017442Y-104178301D01*
X107919333Y-104268333D01*
X107732707Y-104435531D01*
X107621294Y-104466195D01*
X107594791Y-104359667D01*
X107607453Y-104289500D01*
X107601311Y-104152986D01*
X107511026Y-103977308D01*
X107319004Y-103732665D01*
X107197511Y-103595232D01*
X106742426Y-103091463D01*
X106561037Y-103255618D01*
X106385557Y-103432143D01*
X106312600Y-103580005D01*
X106348045Y-103736909D01*
X106497770Y-103940558D01*
X106702176Y-104160799D01*
X106946583Y-104395234D01*
X107146246Y-104549073D01*
X107270734Y-104599293D01*
X107279131Y-104597280D01*
X107409412Y-104592668D01*
X107440171Y-104683804D01*
X107363393Y-104823960D01*
X107324670Y-104862807D01*
X107188273Y-105067996D01*
X107169427Y-105288954D01*
X107255735Y-105474875D01*
X107434803Y-105574949D01*
X107499811Y-105580666D01*
X107658955Y-105521782D01*
X107790527Y-105413330D01*
X107938080Y-105305237D01*
X108044171Y-105313466D01*
X108064577Y-105427787D01*
X108050460Y-105473444D01*
X108076870Y-105591176D01*
X108182581Y-105794283D01*
X108337885Y-106038558D01*
X108513074Y-106279796D01*
X108678441Y-106473792D01*
X108784579Y-106565816D01*
X108888773Y-106545342D01*
X109042373Y-106441207D01*
X109188499Y-106301572D01*
X109270271Y-106174597D01*
X109274000Y-106151424D01*
X109224988Y-106051584D01*
X109224988Y-106051584D01*
G37*
X109224988Y-106051584D02*
X109095697Y-105859614D01*
X108912751Y-105614713D01*
X108887805Y-105582801D01*
X108660635Y-105312869D01*
X108495878Y-105168293D01*
X108369036Y-105129099D01*
X108337472Y-105134160D01*
X108200635Y-105142352D01*
X108198661Y-105058257D01*
X108332383Y-104878898D01*
X108441889Y-104761316D01*
X108604305Y-104577502D01*
X108659954Y-104446116D01*
X108629453Y-104308025D01*
X108613037Y-104270452D01*
X108461407Y-104097009D01*
X108251767Y-104066259D01*
X108017442Y-104178301D01*
X107919333Y-104268333D01*
X107732707Y-104435531D01*
X107621294Y-104466195D01*
X107594791Y-104359667D01*
X107607453Y-104289500D01*
X107601311Y-104152986D01*
X107511026Y-103977308D01*
X107319004Y-103732665D01*
X107197511Y-103595232D01*
X106742426Y-103091463D01*
X106561037Y-103255618D01*
X106385557Y-103432143D01*
X106312600Y-103580005D01*
X106348045Y-103736909D01*
X106497770Y-103940558D01*
X106702176Y-104160799D01*
X106946583Y-104395234D01*
X107146246Y-104549073D01*
X107270734Y-104599293D01*
X107279131Y-104597280D01*
X107409412Y-104592668D01*
X107440171Y-104683804D01*
X107363393Y-104823960D01*
X107324670Y-104862807D01*
X107188273Y-105067996D01*
X107169427Y-105288954D01*
X107255735Y-105474875D01*
X107434803Y-105574949D01*
X107499811Y-105580666D01*
X107658955Y-105521782D01*
X107790527Y-105413330D01*
X107938080Y-105305237D01*
X108044171Y-105313466D01*
X108064577Y-105427787D01*
X108050460Y-105473444D01*
X108076870Y-105591176D01*
X108182581Y-105794283D01*
X108337885Y-106038558D01*
X108513074Y-106279796D01*
X108678441Y-106473792D01*
X108784579Y-106565816D01*
X108888773Y-106545342D01*
X109042373Y-106441207D01*
X109188499Y-106301572D01*
X109270271Y-106174597D01*
X109274000Y-106151424D01*
X109224988Y-106051584D01*
G36*
X106779994Y-105207743D02*
X106665785Y-105231832D01*
X106603359Y-105308248D01*
X106680122Y-105401751D01*
X106801640Y-105459188D01*
X106863019Y-105408067D01*
X106874986Y-105278935D01*
X106779994Y-105207743D01*
X106779994Y-105207743D01*
G37*
X106779994Y-105207743D02*
X106665785Y-105231832D01*
X106603359Y-105308248D01*
X106680122Y-105401751D01*
X106801640Y-105459188D01*
X106863019Y-105408067D01*
X106874986Y-105278935D01*
X106779994Y-105207743D01*
G36*
X107140906Y-105801140D02*
X107099432Y-105760678D01*
X106978732Y-105686786D01*
X106868753Y-105750404D01*
X106858520Y-105760678D01*
X106787393Y-105881013D01*
X106849313Y-106018339D01*
X106853766Y-106024378D01*
X106946740Y-106124880D01*
X107029525Y-106093593D01*
X107094678Y-106024378D01*
X107180922Y-105898284D01*
X107140906Y-105801140D01*
X107140906Y-105801140D01*
G37*
X107140906Y-105801140D02*
X107099432Y-105760678D01*
X106978732Y-105686786D01*
X106868753Y-105750404D01*
X106858520Y-105760678D01*
X106787393Y-105881013D01*
X106849313Y-106018339D01*
X106853766Y-106024378D01*
X106946740Y-106124880D01*
X107029525Y-106093593D01*
X107094678Y-106024378D01*
X107180922Y-105898284D01*
X107140906Y-105801140D01*
G36*
X161490311Y-105606464D02*
X161304930Y-105488590D01*
X161039383Y-105338642D01*
X160946167Y-105289005D01*
X160653477Y-105132608D01*
X160419527Y-105002622D01*
X160284515Y-104921536D01*
X160269873Y-104910620D01*
X160267388Y-104808887D01*
X160335771Y-104620576D01*
X160375707Y-104540613D01*
X160480713Y-104328783D01*
X160539480Y-104179352D01*
X160544000Y-104154285D01*
X160469219Y-104125941D01*
X160277182Y-104132452D01*
X160120667Y-104153978D01*
X159760884Y-104215205D01*
X159380745Y-104279921D01*
X159280308Y-104297025D01*
X159027670Y-104331926D01*
X158894392Y-104319912D01*
X158835085Y-104253212D01*
X158824292Y-104218952D01*
X158858940Y-104053909D01*
X159013748Y-103851283D01*
X159029651Y-103835754D01*
X159181174Y-103708183D01*
X159268441Y-103668697D01*
X159276575Y-103680993D01*
X159312108Y-103684416D01*
X159371091Y-103602084D01*
X159401209Y-103438568D01*
X159280956Y-103332667D01*
X159038251Y-103295963D01*
X158927550Y-103283763D01*
X158878065Y-103221182D01*
X158877003Y-103066322D01*
X158902118Y-102850166D01*
X158949538Y-102553123D01*
X159005814Y-102296832D01*
X159033527Y-102205729D01*
X159070085Y-102072142D01*
X159015051Y-102029043D01*
X158831091Y-102047218D01*
X158830993Y-102047232D01*
X158584162Y-102095307D01*
X158270111Y-102170548D01*
X158113557Y-102212635D01*
X157672780Y-102336596D01*
X157556317Y-102044602D01*
X157439855Y-101752608D01*
X157026111Y-102248471D01*
X156824754Y-102490489D01*
X156669082Y-102678904D01*
X156587957Y-102778751D01*
X156583477Y-102784651D01*
X156518796Y-102739009D01*
X156354577Y-102588455D01*
X156108544Y-102350235D01*
X155798421Y-102041596D01*
X155441933Y-101679787D01*
X155330543Y-101565457D01*
X154962853Y-101191305D01*
X154635021Y-100865684D01*
X154365025Y-100605799D01*
X154170847Y-100428856D01*
X154070465Y-100352060D01*
X154061434Y-100351011D01*
X154069303Y-100446191D01*
X154144987Y-100626414D01*
X154174014Y-100681204D01*
X154280038Y-100895812D01*
X154419753Y-101209087D01*
X154566778Y-101561373D01*
X154599655Y-101643666D01*
X155017395Y-102925810D01*
X155272800Y-104239689D01*
X155366350Y-105570514D01*
X155298526Y-106903495D01*
X155069809Y-108223843D01*
X154680679Y-109516768D01*
X154315221Y-110393047D01*
X154180472Y-110688542D01*
X154079863Y-110923155D01*
X154030467Y-111056606D01*
X154028139Y-111070380D01*
X154081052Y-111043512D01*
X154215498Y-110917875D01*
X154379490Y-110745333D01*
X154546209Y-110540597D01*
X154546209Y-110355963D01*
X154531344Y-110313227D01*
X154574778Y-110149750D01*
X154667150Y-109900019D01*
X154675584Y-109879277D01*
X154823827Y-109489258D01*
X154972543Y-109054781D01*
X155051840Y-108798000D01*
X155271201Y-107839774D01*
X155410966Y-106790108D01*
X155467819Y-105708500D01*
X155438447Y-104654445D01*
X155332446Y-103760333D01*
X155246622Y-103358515D01*
X155114255Y-102853323D01*
X154951659Y-102298619D01*
X154775152Y-101748264D01*
X154601049Y-101256117D01*
X154487119Y-100969866D01*
X154519647Y-100974348D01*
X154652437Y-101085807D01*
X154868894Y-101288668D01*
X155152425Y-101567356D01*
X155486437Y-101906296D01*
X155503329Y-101923684D01*
X156590308Y-103043302D01*
X156737817Y-102809151D01*
X156889177Y-102593413D01*
X157084391Y-102344616D01*
X157139897Y-102278666D01*
X157394469Y-101982333D01*
X157501158Y-102215166D01*
X157566751Y-102348583D01*
X157637657Y-102418929D01*
X157754052Y-102431076D01*
X157956114Y-102389891D01*
X158259458Y-102307069D01*
X158532951Y-102241630D01*
X158738018Y-102212208D01*
X158822103Y-102221881D01*
X158835534Y-102328612D01*
X158811759Y-102545572D01*
X158773804Y-102742535D01*
X158715596Y-103069724D01*
X158725364Y-103266424D01*
X158810076Y-103360103D01*
X158935334Y-103379333D01*
X159101303Y-103414220D01*
X159119431Y-103521374D01*
X158989400Y-103704534D01*
X158899680Y-103796192D01*
X158728702Y-103977868D01*
X158665705Y-104111548D01*
X158687730Y-104256605D01*
X158704032Y-104302141D01*
X158791449Y-104533734D01*
X159392558Y-104423030D01*
X159721202Y-104361151D01*
X160006456Y-104305066D01*
X160186899Y-104266853D01*
X160187624Y-104266682D01*
X160314017Y-104245234D01*
X160335966Y-104292274D01*
X160265215Y-104446017D01*
X160251124Y-104473315D01*
X160154663Y-104694469D01*
X160145487Y-104861325D01*
X160241762Y-105006629D01*
X160461655Y-105163129D01*
X160711896Y-105303921D01*
X160988812Y-105459964D01*
X161196673Y-105589647D01*
X161299483Y-105670124D01*
X161304563Y-105680104D01*
X161235255Y-105742877D01*
X161050895Y-105856120D01*
X160789087Y-105997025D01*
X160746189Y-106018771D01*
X160467333Y-106170661D01*
X160252885Y-106309197D01*
X160145055Y-106406800D01*
X160141511Y-106413862D01*
X160146089Y-106559769D01*
X160215005Y-106773451D01*
X160234286Y-106816029D01*
X160317676Y-107003983D01*
X160321072Y-107085261D01*
X160240729Y-107104380D01*
X160210011Y-107104666D01*
X160037646Y-107059556D01*
X159862427Y-106908369D01*
X159658583Y-106627320D01*
X159611302Y-106552125D01*
X159488219Y-106375431D01*
X159400425Y-106289841D01*
X159383181Y-106289930D01*
X159404564Y-106375638D01*
X159502431Y-106554272D01*
X159610416Y-106720395D01*
X159915774Y-107224466D01*
X160157060Y-107742640D01*
X160310202Y-108220030D01*
X160341361Y-108387087D01*
X160359868Y-108651516D01*
X160310794Y-108835691D01*
X160188553Y-109004927D01*
X160005874Y-109166917D01*
X159772401Y-109253390D01*
X159555186Y-109284255D01*
X159265463Y-109292578D01*
X159094375Y-109255072D01*
X159068937Y-109232018D01*
X159070767Y-109172357D01*
X159132719Y-109185235D01*
X159285021Y-109184742D01*
X159305079Y-109179323D01*
X159305079Y-108999159D01*
X159090292Y-108993856D01*
X158985954Y-108930193D01*
X158933815Y-108764458D01*
X158924180Y-108713333D01*
X158880423Y-108382659D01*
X158902719Y-108180834D01*
X158999302Y-108077547D01*
X159104667Y-108049054D01*
X159309227Y-107994329D01*
X159412193Y-107939380D01*
X159412193Y-107756696D01*
X159333253Y-107725436D01*
X159162155Y-107603633D01*
X158931557Y-107415178D01*
X158858029Y-107351304D01*
X158624171Y-107140406D01*
X158452981Y-106976302D01*
X158373076Y-106886767D01*
X158371107Y-106878671D01*
X158459242Y-106883595D01*
X158647398Y-106925474D01*
X158696717Y-106938696D01*
X158982579Y-107085478D01*
X159227465Y-107367504D01*
X159351360Y-107575067D01*
X159413260Y-107720479D01*
X159412193Y-107756696D01*
X159412193Y-107939380D01*
X159418107Y-107936223D01*
X159507164Y-107927379D01*
X159603430Y-108061353D01*
X159650940Y-108166342D01*
X159765210Y-108528585D01*
X159754572Y-108781683D01*
X159615187Y-108934880D01*
X159343217Y-108997419D01*
X159305079Y-108999159D01*
X159305079Y-109179323D01*
X159507949Y-109124505D01*
X159560450Y-109103919D01*
X159758352Y-109004196D01*
X159845537Y-108883215D01*
X159866487Y-108672214D01*
X159866667Y-108630572D01*
X159813910Y-108314697D01*
X159667514Y-107913011D01*
X159445290Y-107467186D01*
X159198809Y-107067990D01*
X159049693Y-106900427D01*
X158855673Y-106816487D01*
X158644067Y-106787290D01*
X158397561Y-106783270D01*
X158281222Y-106831059D01*
X158296917Y-106942237D01*
X158446512Y-107128385D01*
X158731872Y-107401085D01*
X158744834Y-107412783D01*
X158989367Y-107636098D01*
X159112790Y-107775222D01*
X159117949Y-107861326D01*
X159007690Y-107925580D01*
X158798011Y-107994970D01*
X158708257Y-108066331D01*
X158703618Y-108226368D01*
X158719897Y-108312470D01*
X158775285Y-108597271D01*
X158824799Y-108894625D01*
X158870493Y-109202916D01*
X158250079Y-109032794D01*
X157927093Y-108955402D01*
X157701136Y-108924098D01*
X157603083Y-108943050D01*
X157602113Y-108945329D01*
X157532842Y-109076984D01*
X157466235Y-109176130D01*
X157411416Y-109226096D01*
X157340617Y-109218575D01*
X157234141Y-109136503D01*
X157072289Y-108962818D01*
X156835363Y-108680458D01*
X156693965Y-108507193D01*
X156438054Y-108202472D01*
X156218665Y-107960372D01*
X156057661Y-107803666D01*
X155976903Y-107755124D01*
X155973974Y-107757223D01*
X155918726Y-107863943D01*
X155823356Y-108085511D01*
X155706599Y-108378000D01*
X155682894Y-108439665D01*
X155550826Y-108742056D01*
X155370914Y-109096496D01*
X155164929Y-109466282D01*
X154954641Y-109814711D01*
X154761820Y-110105083D01*
X154608237Y-110300694D01*
X154546209Y-110355963D01*
X154546209Y-110540597D01*
X154778284Y-110255600D01*
X155170084Y-109681027D01*
X155513899Y-109086669D01*
X155765640Y-108545499D01*
X155883216Y-108261909D01*
X155981883Y-108052985D01*
X156043182Y-107957217D01*
X156048876Y-107954969D01*
X156117494Y-108019173D01*
X156267443Y-108191366D01*
X156476697Y-108445404D01*
X156723232Y-108755143D01*
X156726492Y-108759303D01*
X157027406Y-109135927D01*
X157242645Y-109385453D01*
X157384477Y-109518919D01*
X157465169Y-109547364D01*
X157496987Y-109481825D01*
X157498693Y-109454166D01*
X157548694Y-109305214D01*
X157615798Y-109197517D01*
X157719523Y-109104157D01*
X157866554Y-109089824D01*
X158057605Y-109128409D01*
X158318547Y-109193649D01*
X158659940Y-109279151D01*
X158935333Y-109348208D01*
X159465432Y-109427034D01*
X159889095Y-109377536D01*
X160199698Y-109208179D01*
X160390614Y-108927431D01*
X160455217Y-108543757D01*
X160386882Y-108065625D01*
X160251263Y-107666704D01*
X160047212Y-107170409D01*
X160295606Y-107220088D01*
X160458293Y-107246861D01*
X160525264Y-107221547D01*
X160502280Y-107113177D01*
X160395101Y-106890780D01*
X160367087Y-106835808D01*
X160283722Y-106673284D01*
X160245680Y-106558149D01*
X160272902Y-106464669D01*
X160385333Y-106367109D01*
X160602914Y-106239736D01*
X160945590Y-106056814D01*
X160988500Y-106033946D01*
X161260428Y-105881728D01*
X161462174Y-105755208D01*
X161557070Y-105677724D01*
X161560000Y-105670203D01*
X161490311Y-105606464D01*
X161490311Y-105606464D01*
G37*
X161490311Y-105606464D02*
X161304930Y-105488590D01*
X161039383Y-105338642D01*
X160946167Y-105289005D01*
X160653477Y-105132608D01*
X160419527Y-105002622D01*
X160284515Y-104921536D01*
X160269873Y-104910620D01*
X160267388Y-104808887D01*
X160335771Y-104620576D01*
X160375707Y-104540613D01*
X160480713Y-104328783D01*
X160539480Y-104179352D01*
X160544000Y-104154285D01*
X160469219Y-104125941D01*
X160277182Y-104132452D01*
X160120667Y-104153978D01*
X159760884Y-104215205D01*
X159380745Y-104279921D01*
X159280308Y-104297025D01*
X159027670Y-104331926D01*
X158894392Y-104319912D01*
X158835085Y-104253212D01*
X158824292Y-104218952D01*
X158858940Y-104053909D01*
X159013748Y-103851283D01*
X159029651Y-103835754D01*
X159181174Y-103708183D01*
X159268441Y-103668697D01*
X159276575Y-103680993D01*
X159312108Y-103684416D01*
X159371091Y-103602084D01*
X159401209Y-103438568D01*
X159280956Y-103332667D01*
X159038251Y-103295963D01*
X158927550Y-103283763D01*
X158878065Y-103221182D01*
X158877003Y-103066322D01*
X158902118Y-102850166D01*
X158949538Y-102553123D01*
X159005814Y-102296832D01*
X159033527Y-102205729D01*
X159070085Y-102072142D01*
X159015051Y-102029043D01*
X158831091Y-102047218D01*
X158830993Y-102047232D01*
X158584162Y-102095307D01*
X158270111Y-102170548D01*
X158113557Y-102212635D01*
X157672780Y-102336596D01*
X157556317Y-102044602D01*
X157439855Y-101752608D01*
X157026111Y-102248471D01*
X156824754Y-102490489D01*
X156669082Y-102678904D01*
X156587957Y-102778751D01*
X156583477Y-102784651D01*
X156518796Y-102739009D01*
X156354577Y-102588455D01*
X156108544Y-102350235D01*
X155798421Y-102041596D01*
X155441933Y-101679787D01*
X155330543Y-101565457D01*
X154962853Y-101191305D01*
X154635021Y-100865684D01*
X154365025Y-100605799D01*
X154170847Y-100428856D01*
X154070465Y-100352060D01*
X154061434Y-100351011D01*
X154069303Y-100446191D01*
X154144987Y-100626414D01*
X154174014Y-100681204D01*
X154280038Y-100895812D01*
X154419753Y-101209087D01*
X154566778Y-101561373D01*
X154599655Y-101643666D01*
X155017395Y-102925810D01*
X155272800Y-104239689D01*
X155366350Y-105570514D01*
X155298526Y-106903495D01*
X155069809Y-108223843D01*
X154680679Y-109516768D01*
X154315221Y-110393047D01*
X154180472Y-110688542D01*
X154079863Y-110923155D01*
X154030467Y-111056606D01*
X154028139Y-111070380D01*
X154081052Y-111043512D01*
X154215498Y-110917875D01*
X154379490Y-110745333D01*
X154546209Y-110540597D01*
X154546209Y-110355963D01*
X154531344Y-110313227D01*
X154574778Y-110149750D01*
X154667150Y-109900019D01*
X154675584Y-109879277D01*
X154823827Y-109489258D01*
X154972543Y-109054781D01*
X155051840Y-108798000D01*
X155271201Y-107839774D01*
X155410966Y-106790108D01*
X155467819Y-105708500D01*
X155438447Y-104654445D01*
X155332446Y-103760333D01*
X155246622Y-103358515D01*
X155114255Y-102853323D01*
X154951659Y-102298619D01*
X154775152Y-101748264D01*
X154601049Y-101256117D01*
X154487119Y-100969866D01*
X154519647Y-100974348D01*
X154652437Y-101085807D01*
X154868894Y-101288668D01*
X155152425Y-101567356D01*
X155486437Y-101906296D01*
X155503329Y-101923684D01*
X156590308Y-103043302D01*
X156737817Y-102809151D01*
X156889177Y-102593413D01*
X157084391Y-102344616D01*
X157139897Y-102278666D01*
X157394469Y-101982333D01*
X157501158Y-102215166D01*
X157566751Y-102348583D01*
X157637657Y-102418929D01*
X157754052Y-102431076D01*
X157956114Y-102389891D01*
X158259458Y-102307069D01*
X158532951Y-102241630D01*
X158738018Y-102212208D01*
X158822103Y-102221881D01*
X158835534Y-102328612D01*
X158811759Y-102545572D01*
X158773804Y-102742535D01*
X158715596Y-103069724D01*
X158725364Y-103266424D01*
X158810076Y-103360103D01*
X158935334Y-103379333D01*
X159101303Y-103414220D01*
X159119431Y-103521374D01*
X158989400Y-103704534D01*
X158899680Y-103796192D01*
X158728702Y-103977868D01*
X158665705Y-104111548D01*
X158687730Y-104256605D01*
X158704032Y-104302141D01*
X158791449Y-104533734D01*
X159392558Y-104423030D01*
X159721202Y-104361151D01*
X160006456Y-104305066D01*
X160186899Y-104266853D01*
X160187624Y-104266682D01*
X160314017Y-104245234D01*
X160335966Y-104292274D01*
X160265215Y-104446017D01*
X160251124Y-104473315D01*
X160154663Y-104694469D01*
X160145487Y-104861325D01*
X160241762Y-105006629D01*
X160461655Y-105163129D01*
X160711896Y-105303921D01*
X160988812Y-105459964D01*
X161196673Y-105589647D01*
X161299483Y-105670124D01*
X161304563Y-105680104D01*
X161235255Y-105742877D01*
X161050895Y-105856120D01*
X160789087Y-105997025D01*
X160746189Y-106018771D01*
X160467333Y-106170661D01*
X160252885Y-106309197D01*
X160145055Y-106406800D01*
X160141511Y-106413862D01*
X160146089Y-106559769D01*
X160215005Y-106773451D01*
X160234286Y-106816029D01*
X160317676Y-107003983D01*
X160321072Y-107085261D01*
X160240729Y-107104380D01*
X160210011Y-107104666D01*
X160037646Y-107059556D01*
X159862427Y-106908369D01*
X159658583Y-106627320D01*
X159611302Y-106552125D01*
X159488219Y-106375431D01*
X159400425Y-106289841D01*
X159383181Y-106289930D01*
X159404564Y-106375638D01*
X159502431Y-106554272D01*
X159610416Y-106720395D01*
X159915774Y-107224466D01*
X160157060Y-107742640D01*
X160310202Y-108220030D01*
X160341361Y-108387087D01*
X160359868Y-108651516D01*
X160310794Y-108835691D01*
X160188553Y-109004927D01*
X160005874Y-109166917D01*
X159772401Y-109253390D01*
X159555186Y-109284255D01*
X159265463Y-109292578D01*
X159094375Y-109255072D01*
X159068937Y-109232018D01*
X159070767Y-109172357D01*
X159132719Y-109185235D01*
X159285021Y-109184742D01*
X159305079Y-109179323D01*
X159305079Y-108999159D01*
X159090292Y-108993856D01*
X158985954Y-108930193D01*
X158933815Y-108764458D01*
X158924180Y-108713333D01*
X158880423Y-108382659D01*
X158902719Y-108180834D01*
X158999302Y-108077547D01*
X159104667Y-108049054D01*
X159309227Y-107994329D01*
X159412193Y-107939380D01*
X159412193Y-107756696D01*
X159333253Y-107725436D01*
X159162155Y-107603633D01*
X158931557Y-107415178D01*
X158858029Y-107351304D01*
X158624171Y-107140406D01*
X158452981Y-106976302D01*
X158373076Y-106886767D01*
X158371107Y-106878671D01*
X158459242Y-106883595D01*
X158647398Y-106925474D01*
X158696717Y-106938696D01*
X158982579Y-107085478D01*
X159227465Y-107367504D01*
X159351360Y-107575067D01*
X159413260Y-107720479D01*
X159412193Y-107756696D01*
X159412193Y-107939380D01*
X159418107Y-107936223D01*
X159507164Y-107927379D01*
X159603430Y-108061353D01*
X159650940Y-108166342D01*
X159765210Y-108528585D01*
X159754572Y-108781683D01*
X159615187Y-108934880D01*
X159343217Y-108997419D01*
X159305079Y-108999159D01*
X159305079Y-109179323D01*
X159507949Y-109124505D01*
X159560450Y-109103919D01*
X159758352Y-109004196D01*
X159845537Y-108883215D01*
X159866487Y-108672214D01*
X159866667Y-108630572D01*
X159813910Y-108314697D01*
X159667514Y-107913011D01*
X159445290Y-107467186D01*
X159198809Y-107067990D01*
X159049693Y-106900427D01*
X158855673Y-106816487D01*
X158644067Y-106787290D01*
X158397561Y-106783270D01*
X158281222Y-106831059D01*
X158296917Y-106942237D01*
X158446512Y-107128385D01*
X158731872Y-107401085D01*
X158744834Y-107412783D01*
X158989367Y-107636098D01*
X159112790Y-107775222D01*
X159117949Y-107861326D01*
X159007690Y-107925580D01*
X158798011Y-107994970D01*
X158708257Y-108066331D01*
X158703618Y-108226368D01*
X158719897Y-108312470D01*
X158775285Y-108597271D01*
X158824799Y-108894625D01*
X158870493Y-109202916D01*
X158250079Y-109032794D01*
X157927093Y-108955402D01*
X157701136Y-108924098D01*
X157603083Y-108943050D01*
X157602113Y-108945329D01*
X157532842Y-109076984D01*
X157466235Y-109176130D01*
X157411416Y-109226096D01*
X157340617Y-109218575D01*
X157234141Y-109136503D01*
X157072289Y-108962818D01*
X156835363Y-108680458D01*
X156693965Y-108507193D01*
X156438054Y-108202472D01*
X156218665Y-107960372D01*
X156057661Y-107803666D01*
X155976903Y-107755124D01*
X155973974Y-107757223D01*
X155918726Y-107863943D01*
X155823356Y-108085511D01*
X155706599Y-108378000D01*
X155682894Y-108439665D01*
X155550826Y-108742056D01*
X155370914Y-109096496D01*
X155164929Y-109466282D01*
X154954641Y-109814711D01*
X154761820Y-110105083D01*
X154608237Y-110300694D01*
X154546209Y-110355963D01*
X154546209Y-110540597D01*
X154778284Y-110255600D01*
X155170084Y-109681027D01*
X155513899Y-109086669D01*
X155765640Y-108545499D01*
X155883216Y-108261909D01*
X155981883Y-108052985D01*
X156043182Y-107957217D01*
X156048876Y-107954969D01*
X156117494Y-108019173D01*
X156267443Y-108191366D01*
X156476697Y-108445404D01*
X156723232Y-108755143D01*
X156726492Y-108759303D01*
X157027406Y-109135927D01*
X157242645Y-109385453D01*
X157384477Y-109518919D01*
X157465169Y-109547364D01*
X157496987Y-109481825D01*
X157498693Y-109454166D01*
X157548694Y-109305214D01*
X157615798Y-109197517D01*
X157719523Y-109104157D01*
X157866554Y-109089824D01*
X158057605Y-109128409D01*
X158318547Y-109193649D01*
X158659940Y-109279151D01*
X158935333Y-109348208D01*
X159465432Y-109427034D01*
X159889095Y-109377536D01*
X160199698Y-109208179D01*
X160390614Y-108927431D01*
X160455217Y-108543757D01*
X160386882Y-108065625D01*
X160251263Y-107666704D01*
X160047212Y-107170409D01*
X160295606Y-107220088D01*
X160458293Y-107246861D01*
X160525264Y-107221547D01*
X160502280Y-107113177D01*
X160395101Y-106890780D01*
X160367087Y-106835808D01*
X160283722Y-106673284D01*
X160245680Y-106558149D01*
X160272902Y-106464669D01*
X160385333Y-106367109D01*
X160602914Y-106239736D01*
X160945590Y-106056814D01*
X160988500Y-106033946D01*
X161260428Y-105881728D01*
X161462174Y-105755208D01*
X161557070Y-105677724D01*
X161560000Y-105670203D01*
X161490311Y-105606464D01*
G36*
X156440297Y-105597410D02*
X156347660Y-105498578D01*
X156222140Y-105391060D01*
X156139284Y-105410384D01*
X156051537Y-105522732D01*
X155966654Y-105670343D01*
X155996456Y-105775543D01*
X156065816Y-105848945D01*
X156184107Y-105940592D01*
X156279003Y-105909720D01*
X156361938Y-105824790D01*
X156460973Y-105694864D01*
X156440297Y-105597410D01*
X156440297Y-105597410D01*
G37*
X156440297Y-105597410D02*
X156347660Y-105498578D01*
X156222140Y-105391060D01*
X156139284Y-105410384D01*
X156051537Y-105522732D01*
X155966654Y-105670343D01*
X155996456Y-105775543D01*
X156065816Y-105848945D01*
X156184107Y-105940592D01*
X156279003Y-105909720D01*
X156361938Y-105824790D01*
X156460973Y-105694864D01*
X156440297Y-105597410D01*
G36*
X156076904Y-103381793D02*
X156056667Y-103379333D01*
X155974460Y-103443762D01*
X155972000Y-103464000D01*
X156036429Y-103546206D01*
X156056667Y-103548666D01*
X156138873Y-103484237D01*
X156141333Y-103464000D01*
X156076904Y-103381793D01*
X156076904Y-103381793D01*
G37*
X156076904Y-103381793D02*
X156056667Y-103379333D01*
X155974460Y-103443762D01*
X155972000Y-103464000D01*
X156036429Y-103546206D01*
X156056667Y-103548666D01*
X156138873Y-103484237D01*
X156141333Y-103464000D01*
X156076904Y-103381793D01*
G36*
X159224988Y-106051584D02*
X159095697Y-105859614D01*
X158912751Y-105614713D01*
X158887805Y-105582801D01*
X158660635Y-105312869D01*
X158495878Y-105168293D01*
X158369036Y-105129099D01*
X158337472Y-105134160D01*
X158200635Y-105142352D01*
X158198661Y-105058257D01*
X158332383Y-104878898D01*
X158441889Y-104761316D01*
X158604305Y-104577502D01*
X158659954Y-104446116D01*
X158629453Y-104308025D01*
X158613037Y-104270452D01*
X158461407Y-104097009D01*
X158251767Y-104066259D01*
X158017442Y-104178301D01*
X157919333Y-104268333D01*
X157732707Y-104435531D01*
X157621294Y-104466195D01*
X157594791Y-104359667D01*
X157607453Y-104289500D01*
X157601311Y-104152986D01*
X157511026Y-103977308D01*
X157319004Y-103732665D01*
X157197511Y-103595232D01*
X156742426Y-103091463D01*
X156561037Y-103255618D01*
X156385557Y-103432143D01*
X156312600Y-103580005D01*
X156348045Y-103736909D01*
X156497770Y-103940558D01*
X156702176Y-104160799D01*
X156946583Y-104395234D01*
X157146246Y-104549073D01*
X157270734Y-104599293D01*
X157279131Y-104597280D01*
X157409412Y-104592668D01*
X157440171Y-104683804D01*
X157363393Y-104823960D01*
X157324670Y-104862807D01*
X157188273Y-105067996D01*
X157169427Y-105288954D01*
X157255735Y-105474875D01*
X157434803Y-105574949D01*
X157499811Y-105580666D01*
X157658955Y-105521782D01*
X157790527Y-105413330D01*
X157938080Y-105305237D01*
X158044171Y-105313466D01*
X158064577Y-105427787D01*
X158050460Y-105473444D01*
X158076870Y-105591176D01*
X158182581Y-105794283D01*
X158337885Y-106038558D01*
X158513074Y-106279796D01*
X158678441Y-106473792D01*
X158784579Y-106565816D01*
X158888773Y-106545342D01*
X159042373Y-106441207D01*
X159188499Y-106301572D01*
X159270271Y-106174597D01*
X159274000Y-106151424D01*
X159224988Y-106051584D01*
X159224988Y-106051584D01*
G37*
X159224988Y-106051584D02*
X159095697Y-105859614D01*
X158912751Y-105614713D01*
X158887805Y-105582801D01*
X158660635Y-105312869D01*
X158495878Y-105168293D01*
X158369036Y-105129099D01*
X158337472Y-105134160D01*
X158200635Y-105142352D01*
X158198661Y-105058257D01*
X158332383Y-104878898D01*
X158441889Y-104761316D01*
X158604305Y-104577502D01*
X158659954Y-104446116D01*
X158629453Y-104308025D01*
X158613037Y-104270452D01*
X158461407Y-104097009D01*
X158251767Y-104066259D01*
X158017442Y-104178301D01*
X157919333Y-104268333D01*
X157732707Y-104435531D01*
X157621294Y-104466195D01*
X157594791Y-104359667D01*
X157607453Y-104289500D01*
X157601311Y-104152986D01*
X157511026Y-103977308D01*
X157319004Y-103732665D01*
X157197511Y-103595232D01*
X156742426Y-103091463D01*
X156561037Y-103255618D01*
X156385557Y-103432143D01*
X156312600Y-103580005D01*
X156348045Y-103736909D01*
X156497770Y-103940558D01*
X156702176Y-104160799D01*
X156946583Y-104395234D01*
X157146246Y-104549073D01*
X157270734Y-104599293D01*
X157279131Y-104597280D01*
X157409412Y-104592668D01*
X157440171Y-104683804D01*
X157363393Y-104823960D01*
X157324670Y-104862807D01*
X157188273Y-105067996D01*
X157169427Y-105288954D01*
X157255735Y-105474875D01*
X157434803Y-105574949D01*
X157499811Y-105580666D01*
X157658955Y-105521782D01*
X157790527Y-105413330D01*
X157938080Y-105305237D01*
X158044171Y-105313466D01*
X158064577Y-105427787D01*
X158050460Y-105473444D01*
X158076870Y-105591176D01*
X158182581Y-105794283D01*
X158337885Y-106038558D01*
X158513074Y-106279796D01*
X158678441Y-106473792D01*
X158784579Y-106565816D01*
X158888773Y-106545342D01*
X159042373Y-106441207D01*
X159188499Y-106301572D01*
X159270271Y-106174597D01*
X159274000Y-106151424D01*
X159224988Y-106051584D01*
G36*
X156779994Y-105207743D02*
X156665785Y-105231832D01*
X156603359Y-105308248D01*
X156680122Y-105401751D01*
X156801640Y-105459188D01*
X156863019Y-105408067D01*
X156874986Y-105278935D01*
X156779994Y-105207743D01*
X156779994Y-105207743D01*
G37*
X156779994Y-105207743D02*
X156665785Y-105231832D01*
X156603359Y-105308248D01*
X156680122Y-105401751D01*
X156801640Y-105459188D01*
X156863019Y-105408067D01*
X156874986Y-105278935D01*
X156779994Y-105207743D01*
G36*
X157140906Y-105801140D02*
X157099432Y-105760678D01*
X156978732Y-105686786D01*
X156868753Y-105750404D01*
X156858520Y-105760678D01*
X156787393Y-105881013D01*
X156849313Y-106018339D01*
X156853766Y-106024378D01*
X156946740Y-106124880D01*
X157029525Y-106093593D01*
X157094678Y-106024378D01*
X157180922Y-105898284D01*
X157140906Y-105801140D01*
X157140906Y-105801140D01*
G37*
X157140906Y-105801140D02*
X157099432Y-105760678D01*
X156978732Y-105686786D01*
X156868753Y-105750404D01*
X156858520Y-105760678D01*
X156787393Y-105881013D01*
X156849313Y-106018339D01*
X156853766Y-106024378D01*
X156946740Y-106124880D01*
X157029525Y-106093593D01*
X157094678Y-106024378D01*
X157180922Y-105898284D01*
X157140906Y-105801140D01*
M02*
