G04 #@! TF.FileFunction,Soldermask,Bot*
%FSLAX46Y46*%
G04 Gerber Fmt 4.6, Leading zero omitted, Abs format (unit mm)*
G04 Created by KiCad (PCBNEW 4.0.6-e0-6349~53~ubuntu16.04.1) date Thu Jul 27 22:11:15 2017*
%MOMM*%
%LPD*%
G01*
G04 APERTURE LIST*
%ADD10C,0.100000*%
%ADD11C,1.900000*%
%ADD12R,2.032000X1.727200*%
%ADD13O,2.032000X1.727200*%
%ADD14R,1.727200X2.032000*%
%ADD15O,1.727200X2.032000*%
%ADD16C,2.400000*%
%ADD17C,2.300000*%
%ADD18C,0.500000*%
%ADD19C,0.590000*%
G04 APERTURE END LIST*
D10*
D11*
X135730000Y-110500000D03*
X138270000Y-110500000D03*
D12*
X105000000Y-70750000D03*
D13*
X105000000Y-68210000D03*
X105000000Y-65670000D03*
D14*
X130500000Y-55250000D03*
D15*
X127960000Y-55250000D03*
X125420000Y-55250000D03*
D16*
X143740000Y-63490000D03*
X143740000Y-58410000D03*
X138660000Y-58410000D03*
D17*
X141200000Y-60950000D03*
D16*
X138660000Y-63490000D03*
X143490000Y-104540000D03*
X143490000Y-99460000D03*
X138410000Y-99460000D03*
D17*
X140950000Y-102000000D03*
D16*
X138410000Y-104540000D03*
D12*
X105000000Y-60250000D03*
D13*
X105000000Y-57710000D03*
X105000000Y-55170000D03*
D12*
X155000000Y-60250000D03*
D13*
X155000000Y-57710000D03*
X155000000Y-55170000D03*
D18*
X149250000Y-66250000D03*
X150750000Y-66250000D03*
X149250000Y-65500000D03*
X149250000Y-67000000D03*
X150750000Y-67000000D03*
X150750000Y-65500000D03*
X149250000Y-98750000D03*
X150750000Y-98750000D03*
X149250000Y-98000000D03*
X149250000Y-99500000D03*
X150750000Y-99500000D03*
X150750000Y-98000000D03*
D16*
X104210000Y-126540000D03*
X109290000Y-126540000D03*
X109290000Y-121460000D03*
D17*
X106750000Y-124000000D03*
D16*
X104210000Y-121460000D03*
X132460000Y-128040000D03*
X137540000Y-128040000D03*
X137540000Y-122960000D03*
D17*
X135000000Y-125500000D03*
D16*
X132460000Y-122960000D03*
D11*
X104250000Y-131230000D03*
X104250000Y-133770000D03*
D16*
X193490000Y-104540000D03*
X193490000Y-99460000D03*
X188410000Y-99460000D03*
D17*
X190950000Y-102000000D03*
D16*
X188410000Y-104540000D03*
X193740000Y-63490000D03*
X193740000Y-58410000D03*
X188660000Y-58410000D03*
D17*
X191200000Y-60950000D03*
D16*
X188660000Y-63490000D03*
X154960000Y-124790000D03*
X160040000Y-124790000D03*
X160040000Y-119710000D03*
D17*
X157500000Y-122250000D03*
D16*
X154960000Y-119710000D03*
X154960000Y-134790000D03*
X160040000Y-134790000D03*
X160040000Y-129710000D03*
D17*
X157500000Y-132250000D03*
D16*
X154960000Y-129710000D03*
X189210000Y-129790000D03*
X194290000Y-129790000D03*
X194290000Y-124710000D03*
D17*
X191750000Y-127250000D03*
D16*
X189210000Y-124710000D03*
D18*
X135625000Y-114250000D03*
X135625000Y-115750000D03*
X136375000Y-114250000D03*
X134875000Y-114250000D03*
X134875000Y-115750000D03*
X136375000Y-115750000D03*
X146750000Y-132500000D03*
X148250000Y-132500000D03*
X146750000Y-131750000D03*
X146750000Y-133250000D03*
X148250000Y-133250000D03*
X148250000Y-131750000D03*
X111875000Y-114250000D03*
X111875000Y-115750000D03*
X112625000Y-114250000D03*
X111125000Y-114250000D03*
X111125000Y-115750000D03*
X112625000Y-115750000D03*
X186875000Y-114250000D03*
X186875000Y-115750000D03*
X187625000Y-114250000D03*
X186125000Y-114250000D03*
X186125000Y-115750000D03*
X187625000Y-115750000D03*
X160625000Y-114250000D03*
X160625000Y-115750000D03*
X161375000Y-114250000D03*
X159875000Y-114250000D03*
X159875000Y-115750000D03*
X161375000Y-115750000D03*
D14*
X180500000Y-55250000D03*
D15*
X177960000Y-55250000D03*
X175420000Y-55250000D03*
D12*
X155000000Y-70750000D03*
D13*
X155000000Y-68210000D03*
X155000000Y-65670000D03*
D11*
X185730000Y-110500000D03*
X188270000Y-110500000D03*
D19*
X189700000Y-85500000D03*
X188950000Y-86250000D03*
X188950000Y-84750000D03*
X190450000Y-86250000D03*
X190450000Y-84750000D03*
X139700000Y-85500000D03*
X138950000Y-86250000D03*
X138950000Y-84750000D03*
X140450000Y-86250000D03*
X140450000Y-84750000D03*
M02*
