G04 #@! TF.FileFunction,Copper,L2,Bot,Signal*
%FSLAX46Y46*%
G04 Gerber Fmt 4.6, Leading zero omitted, Abs format (unit mm)*
G04 Created by KiCad (PCBNEW 4.0.6-e0-6349~53~ubuntu16.04.1) date Thu Jul 27 22:11:15 2017*
%MOMM*%
%LPD*%
G01*
G04 APERTURE LIST*
%ADD10C,0.100000*%
%ADD11C,0.600000*%
%ADD12C,1.900000*%
%ADD13R,2.032000X1.727200*%
%ADD14O,2.032000X1.727200*%
%ADD15R,1.727200X2.032000*%
%ADD16O,1.727200X2.032000*%
%ADD17C,2.400000*%
%ADD18C,2.300000*%
%ADD19C,0.300000*%
%ADD20C,0.450000*%
%ADD21C,0.250000*%
%ADD22C,0.500000*%
%ADD23C,0.254000*%
G04 APERTURE END LIST*
D10*
D11*
X152250000Y-66250000D03*
X152250000Y-64750000D03*
X152250000Y-63250000D03*
X152250000Y-61750000D03*
X102250000Y-66250000D03*
X102250000Y-64750000D03*
X102250000Y-63250000D03*
X102250000Y-61750000D03*
D12*
X135730000Y-110500000D03*
X138270000Y-110500000D03*
D13*
X105000000Y-70750000D03*
D14*
X105000000Y-68210000D03*
X105000000Y-65670000D03*
D15*
X130500000Y-55250000D03*
D16*
X127960000Y-55250000D03*
X125420000Y-55250000D03*
D17*
X143740000Y-63490000D03*
X143740000Y-58410000D03*
X138660000Y-58410000D03*
D18*
X141200000Y-60950000D03*
D17*
X138660000Y-63490000D03*
X143490000Y-104540000D03*
X143490000Y-99460000D03*
X138410000Y-99460000D03*
D18*
X140950000Y-102000000D03*
D17*
X138410000Y-104540000D03*
D11*
X135250000Y-88500000D03*
X115000000Y-79500000D03*
X102250000Y-112750000D03*
X102250000Y-111250000D03*
X102250000Y-109750000D03*
X102250000Y-108250000D03*
X102250000Y-106750000D03*
X102250000Y-105250000D03*
X102250000Y-103750000D03*
X102250000Y-102250000D03*
X102250000Y-100750000D03*
X102250000Y-99250000D03*
X102250000Y-97750000D03*
X102250000Y-96250000D03*
X102250000Y-94750000D03*
X102250000Y-93250000D03*
X102250000Y-91750000D03*
X102250000Y-90250000D03*
X102250000Y-88750000D03*
X102250000Y-87250000D03*
X102250000Y-85750000D03*
X102250000Y-84250000D03*
X102250000Y-82750000D03*
X102250000Y-81250000D03*
X102250000Y-79750000D03*
X102250000Y-78250000D03*
X102250000Y-76750000D03*
X102250000Y-75250000D03*
X102250000Y-73750000D03*
X102250000Y-72250000D03*
X102250000Y-70750000D03*
X102250000Y-69250000D03*
X102250000Y-67750000D03*
X102250000Y-60250000D03*
X102250000Y-58750000D03*
X102250000Y-57250000D03*
X102250000Y-55750000D03*
X102250000Y-54250000D03*
X102250000Y-52750000D03*
X103750000Y-112750000D03*
X105250000Y-112750000D03*
X106750000Y-112750000D03*
X108250000Y-112750000D03*
X109750000Y-112750000D03*
X111250000Y-112750000D03*
X112750000Y-112750000D03*
X114250000Y-112750000D03*
X115750000Y-112750000D03*
X117250000Y-112750000D03*
X118750000Y-112750000D03*
X120250000Y-112750000D03*
X121750000Y-112750000D03*
X123250000Y-112750000D03*
X124750000Y-112750000D03*
X126250000Y-112750000D03*
X127750000Y-112750000D03*
X129250000Y-112750000D03*
X130750000Y-112750000D03*
X132250000Y-112750000D03*
X133750000Y-112750000D03*
X135250000Y-112750000D03*
X136750000Y-112750000D03*
X138250000Y-112750000D03*
X139750000Y-112750000D03*
X141250000Y-112750000D03*
X142750000Y-112750000D03*
X144250000Y-112750000D03*
X145750000Y-112750000D03*
X147250000Y-112750000D03*
X147750000Y-111250000D03*
X147750000Y-109750000D03*
X147750000Y-108250000D03*
X147750000Y-106750000D03*
X147750000Y-105250000D03*
X147750000Y-103750000D03*
X147750000Y-102250000D03*
X147750000Y-100750000D03*
X147750000Y-99250000D03*
X147750000Y-97750000D03*
X147750000Y-96250000D03*
X147750000Y-94750000D03*
X147750000Y-93250000D03*
X147750000Y-91750000D03*
X147750000Y-90250000D03*
X147750000Y-88750000D03*
X147750000Y-87250000D03*
X147750000Y-85750000D03*
X147750000Y-84250000D03*
X147750000Y-82750000D03*
X147750000Y-81250000D03*
X147750000Y-79750000D03*
X147750000Y-78250000D03*
X147750000Y-76750000D03*
X147750000Y-75250000D03*
X147750000Y-73750000D03*
X147750000Y-72250000D03*
X147750000Y-70750000D03*
X147750000Y-69250000D03*
X147750000Y-67750000D03*
X147750000Y-66250000D03*
X147750000Y-64750000D03*
X147750000Y-63250000D03*
X147750000Y-61750000D03*
X147750000Y-60250000D03*
X147750000Y-58750000D03*
X147750000Y-57250000D03*
X147750000Y-55750000D03*
X147750000Y-54250000D03*
X103750000Y-52250000D03*
X105250000Y-52250000D03*
X106750000Y-52250000D03*
X108250000Y-52250000D03*
X109750000Y-52250000D03*
X114250000Y-52250000D03*
X115750000Y-52250000D03*
X117250000Y-52250000D03*
X118750000Y-52250000D03*
X120250000Y-52250000D03*
X121750000Y-52250000D03*
X123250000Y-52250000D03*
X124750000Y-52250000D03*
X126250000Y-52250000D03*
X127750000Y-52250000D03*
X129250000Y-52250000D03*
X130750000Y-52250000D03*
X132250000Y-52250000D03*
X133750000Y-52250000D03*
X135250000Y-52250000D03*
X136750000Y-52250000D03*
X138250000Y-52250000D03*
X139750000Y-52250000D03*
X141250000Y-52250000D03*
X142750000Y-52250000D03*
X144250000Y-52250000D03*
X145750000Y-52250000D03*
X147250000Y-52250000D03*
X128500000Y-90000000D03*
X128500000Y-88250000D03*
X128500000Y-86500000D03*
X134250000Y-89500000D03*
X128500000Y-83500000D03*
X131750000Y-83500000D03*
X108000000Y-99500000D03*
X111000000Y-99500000D03*
X114000000Y-99500000D03*
X108000000Y-102500000D03*
X111000000Y-102500000D03*
X114000000Y-102500000D03*
X108000000Y-105500000D03*
X111000000Y-105500000D03*
X114000000Y-105500000D03*
X108000000Y-108500000D03*
X111000000Y-108500000D03*
X114000000Y-108500000D03*
X109500000Y-80750000D03*
X118750000Y-79500000D03*
X121750000Y-79500000D03*
X124750000Y-79500000D03*
X118750000Y-85000000D03*
X124750000Y-85000000D03*
X121750000Y-85000000D03*
X118750000Y-88000000D03*
X121750000Y-88000000D03*
X118750000Y-94500000D03*
X121750000Y-91000000D03*
X111000000Y-82250000D03*
X114500000Y-85000000D03*
X114500000Y-88000000D03*
X114500000Y-91000000D03*
X114500000Y-94000000D03*
D13*
X105000000Y-60250000D03*
D14*
X105000000Y-57710000D03*
X105000000Y-55170000D03*
D13*
X155000000Y-60250000D03*
D14*
X155000000Y-57710000D03*
X155000000Y-55170000D03*
D11*
X164500000Y-94000000D03*
X164500000Y-91000000D03*
X164500000Y-88000000D03*
X164500000Y-85000000D03*
X161000000Y-82250000D03*
X171750000Y-91000000D03*
X168750000Y-94500000D03*
X171750000Y-88000000D03*
X168750000Y-88000000D03*
X171750000Y-85000000D03*
X174750000Y-85000000D03*
X168750000Y-85000000D03*
X174750000Y-79500000D03*
X171750000Y-79500000D03*
X168750000Y-79500000D03*
X159500000Y-80750000D03*
X164000000Y-108500000D03*
X161000000Y-108500000D03*
X158000000Y-108500000D03*
X164000000Y-105500000D03*
X161000000Y-105500000D03*
X158000000Y-105500000D03*
X164000000Y-102500000D03*
X161000000Y-102500000D03*
X158000000Y-102500000D03*
X164000000Y-99500000D03*
X161000000Y-99500000D03*
X158000000Y-99500000D03*
X181750000Y-83500000D03*
X178500000Y-83500000D03*
X184250000Y-89500000D03*
X178500000Y-86500000D03*
X178500000Y-88250000D03*
X178500000Y-90000000D03*
X196250000Y-117250000D03*
X194750000Y-117250000D03*
X193250000Y-117250000D03*
X191750000Y-117250000D03*
X190250000Y-117250000D03*
X188750000Y-117250000D03*
X187250000Y-117250000D03*
X185750000Y-117250000D03*
X184250000Y-117250000D03*
X182750000Y-117250000D03*
X181250000Y-117250000D03*
X179750000Y-117250000D03*
X178250000Y-117250000D03*
X176750000Y-117250000D03*
X175250000Y-117250000D03*
X173750000Y-117250000D03*
X172250000Y-117250000D03*
X170750000Y-117250000D03*
X169250000Y-117250000D03*
X167750000Y-117250000D03*
X166250000Y-117250000D03*
X164750000Y-117250000D03*
X163250000Y-117250000D03*
X161750000Y-117250000D03*
X160250000Y-117250000D03*
X158750000Y-117250000D03*
X157250000Y-117250000D03*
X155750000Y-117250000D03*
X154250000Y-117250000D03*
X152750000Y-117250000D03*
X151250000Y-117250000D03*
X197750000Y-117750000D03*
X197750000Y-119250000D03*
X197750000Y-120750000D03*
X197750000Y-122250000D03*
X197750000Y-123750000D03*
X197750000Y-125250000D03*
X197750000Y-126750000D03*
X197750000Y-128250000D03*
X197750000Y-129750000D03*
X197750000Y-131250000D03*
X197750000Y-132750000D03*
X197750000Y-134250000D03*
X197750000Y-135750000D03*
X197750000Y-137250000D03*
X197750000Y-138750000D03*
X197750000Y-140250000D03*
X197750000Y-141750000D03*
X197750000Y-143250000D03*
X197750000Y-144750000D03*
X197750000Y-146250000D03*
X197750000Y-147750000D03*
X196250000Y-147750000D03*
X194750000Y-147750000D03*
X193250000Y-147750000D03*
X191750000Y-147750000D03*
X190250000Y-147750000D03*
X188750000Y-147750000D03*
X187250000Y-147750000D03*
X185750000Y-147750000D03*
X184250000Y-147750000D03*
X182750000Y-147750000D03*
X181250000Y-147750000D03*
X179750000Y-147750000D03*
X178250000Y-147750000D03*
X176750000Y-147750000D03*
X175250000Y-147750000D03*
X173750000Y-147750000D03*
X172250000Y-147750000D03*
X170750000Y-147750000D03*
X169250000Y-147750000D03*
X167750000Y-147750000D03*
X166250000Y-147750000D03*
X164750000Y-147750000D03*
X163250000Y-147750000D03*
X161750000Y-147750000D03*
X160250000Y-147750000D03*
X158750000Y-147750000D03*
X157250000Y-147750000D03*
X155750000Y-147750000D03*
X154250000Y-147750000D03*
X152750000Y-147750000D03*
X151250000Y-147750000D03*
X149750000Y-117750000D03*
X149750000Y-119250000D03*
X149750000Y-120750000D03*
X149750000Y-122250000D03*
X149750000Y-123750000D03*
X149750000Y-125250000D03*
X149750000Y-126750000D03*
X149750000Y-128250000D03*
X149750000Y-129750000D03*
X149750000Y-131250000D03*
X149750000Y-132750000D03*
X149750000Y-134250000D03*
X149750000Y-135750000D03*
X149750000Y-137250000D03*
X149750000Y-138750000D03*
X149750000Y-140250000D03*
X149750000Y-141750000D03*
X149750000Y-143250000D03*
X149750000Y-144750000D03*
X149750000Y-146250000D03*
X149750000Y-147750000D03*
X145250000Y-117750000D03*
X145250000Y-119250000D03*
X145250000Y-120750000D03*
X145250000Y-122250000D03*
X145250000Y-123750000D03*
X145250000Y-125250000D03*
X145250000Y-126750000D03*
X145250000Y-128250000D03*
X145250000Y-129750000D03*
X145250000Y-131250000D03*
X145250000Y-132750000D03*
X145250000Y-134250000D03*
X145250000Y-135750000D03*
X145250000Y-137250000D03*
X145250000Y-138750000D03*
X145250000Y-140250000D03*
X145250000Y-141750000D03*
X145250000Y-143250000D03*
X145250000Y-144750000D03*
X145250000Y-146250000D03*
X144250000Y-117250000D03*
X142750000Y-117250000D03*
X141250000Y-117250000D03*
X139750000Y-117250000D03*
X138250000Y-117250000D03*
X136750000Y-117250000D03*
X135250000Y-117250000D03*
X133750000Y-117250000D03*
X132250000Y-117250000D03*
X130750000Y-117250000D03*
X129250000Y-117250000D03*
X127750000Y-117250000D03*
X126250000Y-117250000D03*
X124750000Y-117250000D03*
X123250000Y-117250000D03*
X121750000Y-117250000D03*
X120250000Y-117250000D03*
X118750000Y-117250000D03*
X117250000Y-117250000D03*
X115750000Y-117250000D03*
X114250000Y-117250000D03*
X112750000Y-117250000D03*
X111250000Y-117250000D03*
X109750000Y-117250000D03*
X108250000Y-117250000D03*
X106750000Y-117250000D03*
X105250000Y-117250000D03*
X103750000Y-117250000D03*
X102250000Y-117750000D03*
X102250000Y-119250000D03*
X102250000Y-120750000D03*
X102250000Y-122250000D03*
X102250000Y-123750000D03*
X102250000Y-125250000D03*
X102250000Y-126750000D03*
X102250000Y-128250000D03*
X102250000Y-129750000D03*
X102250000Y-131250000D03*
X102250000Y-132750000D03*
X102250000Y-134250000D03*
X102250000Y-135750000D03*
X102250000Y-137250000D03*
X102250000Y-138750000D03*
X102250000Y-140250000D03*
X102250000Y-141750000D03*
X102250000Y-143250000D03*
X102250000Y-144750000D03*
X102250000Y-146250000D03*
X144250000Y-147750000D03*
X142750000Y-147750000D03*
X141250000Y-147750000D03*
X139750000Y-147750000D03*
X138250000Y-147750000D03*
X136750000Y-147750000D03*
X135250000Y-147750000D03*
X133750000Y-147750000D03*
X132250000Y-147750000D03*
X130750000Y-147750000D03*
X129250000Y-147750000D03*
X127750000Y-147750000D03*
X126250000Y-147750000D03*
X124750000Y-147750000D03*
X123250000Y-147750000D03*
X121750000Y-147750000D03*
X120250000Y-147750000D03*
X118750000Y-147750000D03*
X117250000Y-147750000D03*
X115750000Y-147750000D03*
X114250000Y-147750000D03*
X112750000Y-147750000D03*
X111250000Y-147750000D03*
X109750000Y-147750000D03*
X108250000Y-147750000D03*
X106750000Y-147750000D03*
X105250000Y-147750000D03*
X103750000Y-147750000D03*
X102250000Y-147750000D03*
X197250000Y-52250000D03*
X195750000Y-52250000D03*
X194250000Y-52250000D03*
X192750000Y-52250000D03*
X191250000Y-52250000D03*
X189750000Y-52250000D03*
X188250000Y-52250000D03*
X186750000Y-52250000D03*
X185250000Y-52250000D03*
X183750000Y-52250000D03*
X182250000Y-52250000D03*
X180750000Y-52250000D03*
X179250000Y-52250000D03*
X177750000Y-52250000D03*
X176250000Y-52250000D03*
X174750000Y-52250000D03*
X173250000Y-52250000D03*
X171750000Y-52250000D03*
X170250000Y-52250000D03*
X168750000Y-52250000D03*
X167250000Y-52250000D03*
X165750000Y-52250000D03*
X164250000Y-52250000D03*
X159750000Y-52250000D03*
X158250000Y-52250000D03*
X156750000Y-52250000D03*
X155250000Y-52250000D03*
X153750000Y-52250000D03*
X197750000Y-54250000D03*
X197750000Y-55750000D03*
X197750000Y-57250000D03*
X197750000Y-58750000D03*
X197750000Y-60250000D03*
X197750000Y-61750000D03*
X197750000Y-63250000D03*
X197750000Y-64750000D03*
X197750000Y-66250000D03*
X197750000Y-67750000D03*
X197750000Y-69250000D03*
X197750000Y-70750000D03*
X197750000Y-72250000D03*
X197750000Y-73750000D03*
X197750000Y-75250000D03*
X197750000Y-76750000D03*
X197750000Y-78250000D03*
X197750000Y-79750000D03*
X197750000Y-81250000D03*
X197750000Y-82750000D03*
X197750000Y-84250000D03*
X197750000Y-85750000D03*
X197750000Y-87250000D03*
X197750000Y-88750000D03*
X197750000Y-90250000D03*
X197750000Y-91750000D03*
X197750000Y-93250000D03*
X197750000Y-94750000D03*
X197750000Y-96250000D03*
X197750000Y-97750000D03*
X197750000Y-99250000D03*
X197750000Y-100750000D03*
X197750000Y-102250000D03*
X197750000Y-103750000D03*
X197750000Y-105250000D03*
X197750000Y-106750000D03*
X197750000Y-108250000D03*
X197750000Y-109750000D03*
X197750000Y-111250000D03*
X197250000Y-112750000D03*
X195750000Y-112750000D03*
X194250000Y-112750000D03*
X192750000Y-112750000D03*
X191250000Y-112750000D03*
X189750000Y-112750000D03*
X188250000Y-112750000D03*
X186750000Y-112750000D03*
X185250000Y-112750000D03*
X183750000Y-112750000D03*
X182250000Y-112750000D03*
X180750000Y-112750000D03*
X179250000Y-112750000D03*
X177750000Y-112750000D03*
X176250000Y-112750000D03*
X174750000Y-112750000D03*
X173250000Y-112750000D03*
X171750000Y-112750000D03*
X170250000Y-112750000D03*
X168750000Y-112750000D03*
X167250000Y-112750000D03*
X165750000Y-112750000D03*
X164250000Y-112750000D03*
X162750000Y-112750000D03*
X161250000Y-112750000D03*
X159750000Y-112750000D03*
X158250000Y-112750000D03*
X156750000Y-112750000D03*
X155250000Y-112750000D03*
X153750000Y-112750000D03*
X152250000Y-52750000D03*
X152250000Y-54250000D03*
X152250000Y-55750000D03*
X152250000Y-57250000D03*
X152250000Y-58750000D03*
X152250000Y-60250000D03*
X152250000Y-67750000D03*
X152250000Y-69250000D03*
X152250000Y-70750000D03*
X152250000Y-72250000D03*
X152250000Y-73750000D03*
X152250000Y-75250000D03*
X152250000Y-76750000D03*
X152250000Y-78250000D03*
X152250000Y-79750000D03*
X152250000Y-81250000D03*
X152250000Y-82750000D03*
X152250000Y-84250000D03*
X152250000Y-85750000D03*
X152250000Y-87250000D03*
X152250000Y-88750000D03*
X152250000Y-90250000D03*
X152250000Y-91750000D03*
X152250000Y-93250000D03*
X152250000Y-94750000D03*
X152250000Y-96250000D03*
X152250000Y-97750000D03*
X152250000Y-99250000D03*
X152250000Y-100750000D03*
X152250000Y-102250000D03*
X152250000Y-103750000D03*
X152250000Y-105250000D03*
X152250000Y-106750000D03*
X152250000Y-108250000D03*
X152250000Y-109750000D03*
X152250000Y-111250000D03*
X152250000Y-112750000D03*
X165000000Y-79500000D03*
X185250000Y-88500000D03*
X122000000Y-132000000D03*
D17*
X104210000Y-126540000D03*
X109290000Y-126540000D03*
X109290000Y-121460000D03*
D18*
X106750000Y-124000000D03*
D17*
X104210000Y-121460000D03*
X132460000Y-128040000D03*
X137540000Y-128040000D03*
X137540000Y-122960000D03*
D18*
X135000000Y-125500000D03*
D17*
X132460000Y-122960000D03*
D12*
X104250000Y-131230000D03*
X104250000Y-133770000D03*
D11*
X124000000Y-132000000D03*
X126000000Y-132000000D03*
X128000000Y-132000000D03*
X115250000Y-127000000D03*
X115250000Y-125250000D03*
X117000000Y-125250000D03*
X106500000Y-132500000D03*
X122000000Y-130000000D03*
X124000000Y-130000000D03*
X126000000Y-130000000D03*
X122000000Y-132000000D03*
X124000000Y-132000000D03*
X126000000Y-132000000D03*
D19*
X121200000Y-124400000D03*
X120800000Y-124700000D03*
X120800000Y-125300000D03*
X121200000Y-125600000D03*
X121200000Y-125000000D03*
D17*
X193490000Y-104540000D03*
X193490000Y-99460000D03*
X188410000Y-99460000D03*
D18*
X190950000Y-102000000D03*
D17*
X188410000Y-104540000D03*
X193740000Y-63490000D03*
X193740000Y-58410000D03*
X188660000Y-58410000D03*
D18*
X191200000Y-60950000D03*
D17*
X188660000Y-63490000D03*
X154960000Y-124790000D03*
X160040000Y-124790000D03*
X160040000Y-119710000D03*
D18*
X157500000Y-122250000D03*
D17*
X154960000Y-119710000D03*
X154960000Y-134790000D03*
X160040000Y-134790000D03*
X160040000Y-129710000D03*
D18*
X157500000Y-132250000D03*
D17*
X154960000Y-129710000D03*
X189210000Y-129790000D03*
X194290000Y-129790000D03*
X194290000Y-124710000D03*
D18*
X191750000Y-127250000D03*
D17*
X189210000Y-124710000D03*
D15*
X180500000Y-55250000D03*
D16*
X177960000Y-55250000D03*
X175420000Y-55250000D03*
D13*
X155000000Y-70750000D03*
D14*
X155000000Y-68210000D03*
X155000000Y-65670000D03*
D12*
X185730000Y-110500000D03*
X188270000Y-110500000D03*
D20*
X189700000Y-85500000D03*
X188950000Y-86250000D03*
X188950000Y-84750000D03*
X190450000Y-86250000D03*
X190450000Y-84750000D03*
X139700000Y-85500000D03*
X138950000Y-86250000D03*
X138950000Y-84750000D03*
X140450000Y-86250000D03*
X140450000Y-84750000D03*
D11*
X113750000Y-71000000D03*
X116000000Y-76000000D03*
X166000000Y-76000000D03*
X163750000Y-71000000D03*
X130250000Y-80500000D03*
X130250000Y-84750000D03*
X180250000Y-84750000D03*
X180250000Y-80500000D03*
X111500000Y-77250000D03*
X161500000Y-77250000D03*
X126250000Y-84750000D03*
X130750000Y-94500000D03*
X180750000Y-94500000D03*
X176250000Y-84750000D03*
X120250000Y-70500000D03*
X111500000Y-66750000D03*
X161500000Y-66750000D03*
X170250000Y-70500000D03*
X123000000Y-65750000D03*
X173000000Y-65750000D03*
X131500000Y-60250000D03*
X132500000Y-86250000D03*
X121750000Y-61500000D03*
X171750000Y-61500000D03*
X182500000Y-86250000D03*
X181500000Y-60250000D03*
X134500000Y-65750000D03*
X136750000Y-87225000D03*
X127250000Y-61500000D03*
X177250000Y-61500000D03*
X186750000Y-87225000D03*
X184500000Y-65750000D03*
X128000000Y-71000000D03*
X178000000Y-71000000D03*
D21*
X113750000Y-71000000D02*
X116000000Y-73250000D01*
X116000000Y-73250000D02*
X116000000Y-76000000D01*
X166000000Y-73250000D02*
X166000000Y-76000000D01*
X163750000Y-71000000D02*
X166000000Y-73250000D01*
D22*
X130250000Y-80500000D02*
X130250000Y-84750000D01*
X180250000Y-80500000D02*
X180250000Y-84750000D01*
D21*
X111500000Y-77250000D02*
X127750000Y-77250000D01*
X127750000Y-77250000D02*
X130500000Y-74500000D01*
X130500000Y-74500000D02*
X130500000Y-55250000D01*
X180500000Y-74500000D02*
X180500000Y-55250000D01*
X177750000Y-77250000D02*
X180500000Y-74500000D01*
X161500000Y-77250000D02*
X177750000Y-77250000D01*
X126250000Y-90000000D02*
X126250000Y-84750000D01*
X130750000Y-94500000D02*
X126250000Y-90000000D01*
X180750000Y-94500000D02*
X176250000Y-90000000D01*
X176250000Y-90000000D02*
X176250000Y-84750000D01*
X115750000Y-70500000D02*
X113500000Y-68250000D01*
X116250000Y-70500000D02*
X115750000Y-70500000D01*
X120250000Y-70500000D02*
X116250000Y-70500000D01*
X113500000Y-68250000D02*
X113460000Y-68210000D01*
X111799999Y-68160001D02*
X111750000Y-68210000D01*
X111500000Y-66750000D02*
X111799999Y-67049999D01*
X111750000Y-68210000D02*
X105000000Y-68210000D01*
X111799999Y-67049999D02*
X111799999Y-68160001D01*
X113460000Y-68210000D02*
X111750000Y-68210000D01*
X163460000Y-68210000D02*
X161750000Y-68210000D01*
X161799999Y-67049999D02*
X161799999Y-68160001D01*
X161750000Y-68210000D02*
X155000000Y-68210000D01*
X161500000Y-66750000D02*
X161799999Y-67049999D01*
X161799999Y-68160001D02*
X161750000Y-68210000D01*
X163500000Y-68250000D02*
X163460000Y-68210000D01*
X170250000Y-70500000D02*
X166250000Y-70500000D01*
X166250000Y-70500000D02*
X165750000Y-70500000D01*
X165750000Y-70500000D02*
X163500000Y-68250000D01*
X105080000Y-65750000D02*
X105000000Y-65670000D01*
X123000000Y-65750000D02*
X105080000Y-65750000D01*
X173000000Y-65750000D02*
X155080000Y-65750000D01*
X155080000Y-65750000D02*
X155000000Y-65670000D01*
X132500000Y-61250000D02*
X132500000Y-86250000D01*
X132500000Y-61250000D02*
X131500000Y-60250000D01*
X121750000Y-61500000D02*
X117960000Y-57710000D01*
X117960000Y-57710000D02*
X105000000Y-57710000D01*
X167960000Y-57710000D02*
X155000000Y-57710000D01*
X171750000Y-61500000D02*
X167960000Y-57710000D01*
X182500000Y-61250000D02*
X181500000Y-60250000D01*
X182500000Y-61250000D02*
X182500000Y-86250000D01*
X136750000Y-87250000D02*
X136750000Y-87225000D01*
X136750000Y-87250000D02*
X134500000Y-85000000D01*
X134500000Y-85000000D02*
X134500000Y-65750000D01*
X106750000Y-58500000D02*
X105000000Y-60250000D01*
X121250000Y-62250000D02*
X117500000Y-58500000D01*
X126500000Y-62250000D02*
X121250000Y-62250000D01*
X127250000Y-61500000D02*
X126500000Y-62250000D01*
X117500000Y-58500000D02*
X106750000Y-58500000D01*
X167500000Y-58500000D02*
X156750000Y-58500000D01*
X177250000Y-61500000D02*
X176500000Y-62250000D01*
X176500000Y-62250000D02*
X171250000Y-62250000D01*
X171250000Y-62250000D02*
X167500000Y-58500000D01*
X156750000Y-58500000D02*
X155000000Y-60250000D01*
X184500000Y-85000000D02*
X184500000Y-65750000D01*
X186750000Y-87250000D02*
X184500000Y-85000000D01*
X186750000Y-87250000D02*
X186750000Y-87225000D01*
X128000000Y-71000000D02*
X127960000Y-70960000D01*
X127960000Y-70960000D02*
X127960000Y-55250000D01*
X177960000Y-70960000D02*
X177960000Y-55250000D01*
X178000000Y-71000000D02*
X177960000Y-70960000D01*
D23*
G36*
X137074313Y-116510543D02*
X137700000Y-116635000D01*
X145865000Y-116635000D01*
X145865000Y-130500000D01*
X145989457Y-131125687D01*
X146042783Y-131205495D01*
X146000171Y-131248033D01*
X145865154Y-131573190D01*
X145864847Y-131925265D01*
X145947413Y-132125089D01*
X145865154Y-132323190D01*
X145864847Y-132675265D01*
X145947413Y-132875089D01*
X145865154Y-133073190D01*
X145864847Y-133425265D01*
X145999296Y-133750657D01*
X146042897Y-133794334D01*
X145989457Y-133874313D01*
X145865000Y-134500000D01*
X145865000Y-148365000D01*
X101635000Y-148365000D01*
X101635000Y-131543893D01*
X102664725Y-131543893D01*
X102905519Y-132126657D01*
X103278471Y-132500261D01*
X102907086Y-132870997D01*
X102665276Y-133453341D01*
X102664725Y-134083893D01*
X102905519Y-134666657D01*
X103350997Y-135112914D01*
X103933341Y-135354724D01*
X104563893Y-135355275D01*
X105146657Y-135114481D01*
X105592914Y-134669003D01*
X105834724Y-134086659D01*
X105835275Y-133456107D01*
X105594481Y-132873343D01*
X105221529Y-132499739D01*
X105592914Y-132129003D01*
X105834724Y-131546659D01*
X105835275Y-130916107D01*
X105594481Y-130333343D01*
X105149003Y-129887086D01*
X104566659Y-129645276D01*
X103936107Y-129644725D01*
X103353343Y-129885519D01*
X102907086Y-130330997D01*
X102665276Y-130913341D01*
X102664725Y-131543893D01*
X101635000Y-131543893D01*
X101635000Y-129337175D01*
X131342430Y-129337175D01*
X131465565Y-129624788D01*
X132147734Y-129884707D01*
X132877443Y-129863786D01*
X133454435Y-129624788D01*
X133577570Y-129337175D01*
X136422430Y-129337175D01*
X136545565Y-129624788D01*
X137227734Y-129884707D01*
X137957443Y-129863786D01*
X138534435Y-129624788D01*
X138657570Y-129337175D01*
X137540000Y-128219605D01*
X136422430Y-129337175D01*
X133577570Y-129337175D01*
X132460000Y-128219605D01*
X131342430Y-129337175D01*
X101635000Y-129337175D01*
X101635000Y-127837175D01*
X103092430Y-127837175D01*
X103215565Y-128124788D01*
X103897734Y-128384707D01*
X104627443Y-128363786D01*
X105204435Y-128124788D01*
X105327570Y-127837175D01*
X108172430Y-127837175D01*
X108295565Y-128124788D01*
X108977734Y-128384707D01*
X109707443Y-128363786D01*
X110284435Y-128124788D01*
X110407570Y-127837175D01*
X110298129Y-127727734D01*
X130615293Y-127727734D01*
X130636214Y-128457443D01*
X130875212Y-129034435D01*
X131162825Y-129157570D01*
X132280395Y-128040000D01*
X131162825Y-126922430D01*
X130875212Y-127045565D01*
X130615293Y-127727734D01*
X110298129Y-127727734D01*
X109290000Y-126719605D01*
X108172430Y-127837175D01*
X105327570Y-127837175D01*
X104210000Y-126719605D01*
X103092430Y-127837175D01*
X101635000Y-127837175D01*
X101635000Y-126227734D01*
X102365293Y-126227734D01*
X102386214Y-126957443D01*
X102625212Y-127534435D01*
X102912825Y-127657570D01*
X104030395Y-126540000D01*
X102912825Y-125422430D01*
X102625212Y-125545565D01*
X102365293Y-126227734D01*
X101635000Y-126227734D01*
X101635000Y-122757175D01*
X103092430Y-122757175D01*
X103215565Y-123044788D01*
X103897734Y-123304707D01*
X104627443Y-123283786D01*
X105204435Y-123044788D01*
X105327569Y-122757177D01*
X105397932Y-122827540D01*
X105237633Y-122987559D01*
X104965311Y-123643384D01*
X104964691Y-124353501D01*
X105235868Y-125009800D01*
X105398088Y-125172304D01*
X105327569Y-125242823D01*
X105204435Y-124955212D01*
X104522266Y-124695293D01*
X103792557Y-124716214D01*
X103215565Y-124955212D01*
X103092430Y-125242825D01*
X104210000Y-126360395D01*
X104224143Y-126346253D01*
X104403748Y-126525858D01*
X104389605Y-126540000D01*
X105507175Y-127657570D01*
X105794788Y-127534435D01*
X106054707Y-126852266D01*
X106033786Y-126122557D01*
X105794788Y-125545565D01*
X105507177Y-125422431D01*
X105577540Y-125352068D01*
X105737559Y-125512367D01*
X106393384Y-125784689D01*
X107103501Y-125785309D01*
X107759800Y-125514132D01*
X107922304Y-125351912D01*
X107992823Y-125422431D01*
X107705212Y-125545565D01*
X107445293Y-126227734D01*
X107466214Y-126957443D01*
X107705212Y-127534435D01*
X107992825Y-127657570D01*
X109110395Y-126540000D01*
X109469605Y-126540000D01*
X110587175Y-127657570D01*
X110874788Y-127534435D01*
X111134707Y-126852266D01*
X111113786Y-126122557D01*
X110874788Y-125545565D01*
X110587175Y-125422430D01*
X109469605Y-126540000D01*
X109110395Y-126540000D01*
X109096253Y-126525858D01*
X109275858Y-126346253D01*
X109290000Y-126360395D01*
X110407570Y-125242825D01*
X110284435Y-124955212D01*
X109602266Y-124695293D01*
X108872557Y-124716214D01*
X108295565Y-124955212D01*
X108172431Y-125242823D01*
X108102068Y-125172460D01*
X108262367Y-125012441D01*
X108534689Y-124356616D01*
X108534775Y-124257175D01*
X131342430Y-124257175D01*
X131465565Y-124544788D01*
X132147734Y-124804707D01*
X132877443Y-124783786D01*
X133454435Y-124544788D01*
X133577569Y-124257177D01*
X133647932Y-124327540D01*
X133487633Y-124487559D01*
X133215311Y-125143384D01*
X133214691Y-125853501D01*
X133485868Y-126509800D01*
X133648088Y-126672304D01*
X133577569Y-126742823D01*
X133454435Y-126455212D01*
X132772266Y-126195293D01*
X132042557Y-126216214D01*
X131465565Y-126455212D01*
X131342430Y-126742825D01*
X132460000Y-127860395D01*
X132474143Y-127846253D01*
X132653748Y-128025858D01*
X132639605Y-128040000D01*
X133757175Y-129157570D01*
X134044788Y-129034435D01*
X134304707Y-128352266D01*
X134283786Y-127622557D01*
X134044788Y-127045565D01*
X133757177Y-126922431D01*
X133827540Y-126852068D01*
X133987559Y-127012367D01*
X134643384Y-127284689D01*
X135353501Y-127285309D01*
X136009800Y-127014132D01*
X136172304Y-126851912D01*
X136242823Y-126922431D01*
X135955212Y-127045565D01*
X135695293Y-127727734D01*
X135716214Y-128457443D01*
X135955212Y-129034435D01*
X136242825Y-129157570D01*
X137360395Y-128040000D01*
X137719605Y-128040000D01*
X138837175Y-129157570D01*
X139124788Y-129034435D01*
X139384707Y-128352266D01*
X139363786Y-127622557D01*
X139124788Y-127045565D01*
X138837175Y-126922430D01*
X137719605Y-128040000D01*
X137360395Y-128040000D01*
X137346253Y-128025858D01*
X137525858Y-127846253D01*
X137540000Y-127860395D01*
X138657570Y-126742825D01*
X138534435Y-126455212D01*
X137852266Y-126195293D01*
X137122557Y-126216214D01*
X136545565Y-126455212D01*
X136422431Y-126742823D01*
X136352068Y-126672460D01*
X136512367Y-126512441D01*
X136784689Y-125856616D01*
X136785309Y-125146499D01*
X136514132Y-124490200D01*
X136351912Y-124327696D01*
X136422431Y-124257177D01*
X136545565Y-124544788D01*
X137227734Y-124804707D01*
X137957443Y-124783786D01*
X138534435Y-124544788D01*
X138657570Y-124257175D01*
X137540000Y-123139605D01*
X137525858Y-123153748D01*
X137346253Y-122974143D01*
X137360395Y-122960000D01*
X137719605Y-122960000D01*
X138837175Y-124077570D01*
X139124788Y-123954435D01*
X139384707Y-123272266D01*
X139363786Y-122542557D01*
X139124788Y-121965565D01*
X138837175Y-121842430D01*
X137719605Y-122960000D01*
X137360395Y-122960000D01*
X136242825Y-121842430D01*
X135955212Y-121965565D01*
X135695293Y-122647734D01*
X135716214Y-123377443D01*
X135955212Y-123954435D01*
X136242823Y-124077569D01*
X136172460Y-124147932D01*
X136012441Y-123987633D01*
X135356616Y-123715311D01*
X134646499Y-123714691D01*
X133990200Y-123985868D01*
X133827696Y-124148088D01*
X133757177Y-124077569D01*
X134044788Y-123954435D01*
X134304707Y-123272266D01*
X134283786Y-122542557D01*
X134044788Y-121965565D01*
X133757175Y-121842430D01*
X132639605Y-122960000D01*
X132653748Y-122974143D01*
X132474143Y-123153748D01*
X132460000Y-123139605D01*
X131342430Y-124257175D01*
X108534775Y-124257175D01*
X108535309Y-123646499D01*
X108264132Y-122990200D01*
X108101912Y-122827696D01*
X108172431Y-122757177D01*
X108295565Y-123044788D01*
X108977734Y-123304707D01*
X109707443Y-123283786D01*
X110284435Y-123044788D01*
X110407570Y-122757175D01*
X110298129Y-122647734D01*
X130615293Y-122647734D01*
X130636214Y-123377443D01*
X130875212Y-123954435D01*
X131162825Y-124077570D01*
X132280395Y-122960000D01*
X131162825Y-121842430D01*
X130875212Y-121965565D01*
X130615293Y-122647734D01*
X110298129Y-122647734D01*
X109290000Y-121639605D01*
X109275858Y-121653748D01*
X109096253Y-121474143D01*
X109110395Y-121460000D01*
X109469605Y-121460000D01*
X110587175Y-122577570D01*
X110874788Y-122454435D01*
X111134707Y-121772266D01*
X111131570Y-121662825D01*
X131342430Y-121662825D01*
X132460000Y-122780395D01*
X133577570Y-121662825D01*
X136422430Y-121662825D01*
X137540000Y-122780395D01*
X138657570Y-121662825D01*
X138534435Y-121375212D01*
X137852266Y-121115293D01*
X137122557Y-121136214D01*
X136545565Y-121375212D01*
X136422430Y-121662825D01*
X133577570Y-121662825D01*
X133454435Y-121375212D01*
X132772266Y-121115293D01*
X132042557Y-121136214D01*
X131465565Y-121375212D01*
X131342430Y-121662825D01*
X111131570Y-121662825D01*
X111113786Y-121042557D01*
X110874788Y-120465565D01*
X110587175Y-120342430D01*
X109469605Y-121460000D01*
X109110395Y-121460000D01*
X107992825Y-120342430D01*
X107705212Y-120465565D01*
X107445293Y-121147734D01*
X107466214Y-121877443D01*
X107705212Y-122454435D01*
X107992823Y-122577569D01*
X107922460Y-122647932D01*
X107762441Y-122487633D01*
X107106616Y-122215311D01*
X106396499Y-122214691D01*
X105740200Y-122485868D01*
X105577696Y-122648088D01*
X105507177Y-122577569D01*
X105794788Y-122454435D01*
X106054707Y-121772266D01*
X106033786Y-121042557D01*
X105794788Y-120465565D01*
X105507175Y-120342430D01*
X104389605Y-121460000D01*
X104403748Y-121474143D01*
X104224143Y-121653748D01*
X104210000Y-121639605D01*
X103092430Y-122757175D01*
X101635000Y-122757175D01*
X101635000Y-121147734D01*
X102365293Y-121147734D01*
X102386214Y-121877443D01*
X102625212Y-122454435D01*
X102912825Y-122577570D01*
X104030395Y-121460000D01*
X102912825Y-120342430D01*
X102625212Y-120465565D01*
X102365293Y-121147734D01*
X101635000Y-121147734D01*
X101635000Y-120162825D01*
X103092430Y-120162825D01*
X104210000Y-121280395D01*
X105327570Y-120162825D01*
X108172430Y-120162825D01*
X109290000Y-121280395D01*
X110407570Y-120162825D01*
X110284435Y-119875212D01*
X109602266Y-119615293D01*
X108872557Y-119636214D01*
X108295565Y-119875212D01*
X108172430Y-120162825D01*
X105327570Y-120162825D01*
X105204435Y-119875212D01*
X104522266Y-119615293D01*
X103792557Y-119636214D01*
X103215565Y-119875212D01*
X103092430Y-120162825D01*
X101635000Y-120162825D01*
X101635000Y-116635000D01*
X109900000Y-116635000D01*
X110525687Y-116510543D01*
X110590498Y-116467238D01*
X110623033Y-116499829D01*
X110948190Y-116634846D01*
X111300265Y-116635153D01*
X111500089Y-116552587D01*
X111698190Y-116634846D01*
X112050265Y-116635153D01*
X112250089Y-116552587D01*
X112448190Y-116634846D01*
X112800265Y-116635153D01*
X113125657Y-116500704D01*
X113179358Y-116447096D01*
X113274313Y-116510543D01*
X113900000Y-116635000D01*
X133600000Y-116635000D01*
X134225687Y-116510543D01*
X134320492Y-116447196D01*
X134373033Y-116499829D01*
X134698190Y-116634846D01*
X135050265Y-116635153D01*
X135250089Y-116552587D01*
X135448190Y-116634846D01*
X135800265Y-116635153D01*
X136000089Y-116552587D01*
X136198190Y-116634846D01*
X136550265Y-116635153D01*
X136875657Y-116500704D01*
X136949406Y-116427083D01*
X137074313Y-116510543D01*
X137074313Y-116510543D01*
G37*
X137074313Y-116510543D02*
X137700000Y-116635000D01*
X145865000Y-116635000D01*
X145865000Y-130500000D01*
X145989457Y-131125687D01*
X146042783Y-131205495D01*
X146000171Y-131248033D01*
X145865154Y-131573190D01*
X145864847Y-131925265D01*
X145947413Y-132125089D01*
X145865154Y-132323190D01*
X145864847Y-132675265D01*
X145947413Y-132875089D01*
X145865154Y-133073190D01*
X145864847Y-133425265D01*
X145999296Y-133750657D01*
X146042897Y-133794334D01*
X145989457Y-133874313D01*
X145865000Y-134500000D01*
X145865000Y-148365000D01*
X101635000Y-148365000D01*
X101635000Y-131543893D01*
X102664725Y-131543893D01*
X102905519Y-132126657D01*
X103278471Y-132500261D01*
X102907086Y-132870997D01*
X102665276Y-133453341D01*
X102664725Y-134083893D01*
X102905519Y-134666657D01*
X103350997Y-135112914D01*
X103933341Y-135354724D01*
X104563893Y-135355275D01*
X105146657Y-135114481D01*
X105592914Y-134669003D01*
X105834724Y-134086659D01*
X105835275Y-133456107D01*
X105594481Y-132873343D01*
X105221529Y-132499739D01*
X105592914Y-132129003D01*
X105834724Y-131546659D01*
X105835275Y-130916107D01*
X105594481Y-130333343D01*
X105149003Y-129887086D01*
X104566659Y-129645276D01*
X103936107Y-129644725D01*
X103353343Y-129885519D01*
X102907086Y-130330997D01*
X102665276Y-130913341D01*
X102664725Y-131543893D01*
X101635000Y-131543893D01*
X101635000Y-129337175D01*
X131342430Y-129337175D01*
X131465565Y-129624788D01*
X132147734Y-129884707D01*
X132877443Y-129863786D01*
X133454435Y-129624788D01*
X133577570Y-129337175D01*
X136422430Y-129337175D01*
X136545565Y-129624788D01*
X137227734Y-129884707D01*
X137957443Y-129863786D01*
X138534435Y-129624788D01*
X138657570Y-129337175D01*
X137540000Y-128219605D01*
X136422430Y-129337175D01*
X133577570Y-129337175D01*
X132460000Y-128219605D01*
X131342430Y-129337175D01*
X101635000Y-129337175D01*
X101635000Y-127837175D01*
X103092430Y-127837175D01*
X103215565Y-128124788D01*
X103897734Y-128384707D01*
X104627443Y-128363786D01*
X105204435Y-128124788D01*
X105327570Y-127837175D01*
X108172430Y-127837175D01*
X108295565Y-128124788D01*
X108977734Y-128384707D01*
X109707443Y-128363786D01*
X110284435Y-128124788D01*
X110407570Y-127837175D01*
X110298129Y-127727734D01*
X130615293Y-127727734D01*
X130636214Y-128457443D01*
X130875212Y-129034435D01*
X131162825Y-129157570D01*
X132280395Y-128040000D01*
X131162825Y-126922430D01*
X130875212Y-127045565D01*
X130615293Y-127727734D01*
X110298129Y-127727734D01*
X109290000Y-126719605D01*
X108172430Y-127837175D01*
X105327570Y-127837175D01*
X104210000Y-126719605D01*
X103092430Y-127837175D01*
X101635000Y-127837175D01*
X101635000Y-126227734D01*
X102365293Y-126227734D01*
X102386214Y-126957443D01*
X102625212Y-127534435D01*
X102912825Y-127657570D01*
X104030395Y-126540000D01*
X102912825Y-125422430D01*
X102625212Y-125545565D01*
X102365293Y-126227734D01*
X101635000Y-126227734D01*
X101635000Y-122757175D01*
X103092430Y-122757175D01*
X103215565Y-123044788D01*
X103897734Y-123304707D01*
X104627443Y-123283786D01*
X105204435Y-123044788D01*
X105327569Y-122757177D01*
X105397932Y-122827540D01*
X105237633Y-122987559D01*
X104965311Y-123643384D01*
X104964691Y-124353501D01*
X105235868Y-125009800D01*
X105398088Y-125172304D01*
X105327569Y-125242823D01*
X105204435Y-124955212D01*
X104522266Y-124695293D01*
X103792557Y-124716214D01*
X103215565Y-124955212D01*
X103092430Y-125242825D01*
X104210000Y-126360395D01*
X104224143Y-126346253D01*
X104403748Y-126525858D01*
X104389605Y-126540000D01*
X105507175Y-127657570D01*
X105794788Y-127534435D01*
X106054707Y-126852266D01*
X106033786Y-126122557D01*
X105794788Y-125545565D01*
X105507177Y-125422431D01*
X105577540Y-125352068D01*
X105737559Y-125512367D01*
X106393384Y-125784689D01*
X107103501Y-125785309D01*
X107759800Y-125514132D01*
X107922304Y-125351912D01*
X107992823Y-125422431D01*
X107705212Y-125545565D01*
X107445293Y-126227734D01*
X107466214Y-126957443D01*
X107705212Y-127534435D01*
X107992825Y-127657570D01*
X109110395Y-126540000D01*
X109469605Y-126540000D01*
X110587175Y-127657570D01*
X110874788Y-127534435D01*
X111134707Y-126852266D01*
X111113786Y-126122557D01*
X110874788Y-125545565D01*
X110587175Y-125422430D01*
X109469605Y-126540000D01*
X109110395Y-126540000D01*
X109096253Y-126525858D01*
X109275858Y-126346253D01*
X109290000Y-126360395D01*
X110407570Y-125242825D01*
X110284435Y-124955212D01*
X109602266Y-124695293D01*
X108872557Y-124716214D01*
X108295565Y-124955212D01*
X108172431Y-125242823D01*
X108102068Y-125172460D01*
X108262367Y-125012441D01*
X108534689Y-124356616D01*
X108534775Y-124257175D01*
X131342430Y-124257175D01*
X131465565Y-124544788D01*
X132147734Y-124804707D01*
X132877443Y-124783786D01*
X133454435Y-124544788D01*
X133577569Y-124257177D01*
X133647932Y-124327540D01*
X133487633Y-124487559D01*
X133215311Y-125143384D01*
X133214691Y-125853501D01*
X133485868Y-126509800D01*
X133648088Y-126672304D01*
X133577569Y-126742823D01*
X133454435Y-126455212D01*
X132772266Y-126195293D01*
X132042557Y-126216214D01*
X131465565Y-126455212D01*
X131342430Y-126742825D01*
X132460000Y-127860395D01*
X132474143Y-127846253D01*
X132653748Y-128025858D01*
X132639605Y-128040000D01*
X133757175Y-129157570D01*
X134044788Y-129034435D01*
X134304707Y-128352266D01*
X134283786Y-127622557D01*
X134044788Y-127045565D01*
X133757177Y-126922431D01*
X133827540Y-126852068D01*
X133987559Y-127012367D01*
X134643384Y-127284689D01*
X135353501Y-127285309D01*
X136009800Y-127014132D01*
X136172304Y-126851912D01*
X136242823Y-126922431D01*
X135955212Y-127045565D01*
X135695293Y-127727734D01*
X135716214Y-128457443D01*
X135955212Y-129034435D01*
X136242825Y-129157570D01*
X137360395Y-128040000D01*
X137719605Y-128040000D01*
X138837175Y-129157570D01*
X139124788Y-129034435D01*
X139384707Y-128352266D01*
X139363786Y-127622557D01*
X139124788Y-127045565D01*
X138837175Y-126922430D01*
X137719605Y-128040000D01*
X137360395Y-128040000D01*
X137346253Y-128025858D01*
X137525858Y-127846253D01*
X137540000Y-127860395D01*
X138657570Y-126742825D01*
X138534435Y-126455212D01*
X137852266Y-126195293D01*
X137122557Y-126216214D01*
X136545565Y-126455212D01*
X136422431Y-126742823D01*
X136352068Y-126672460D01*
X136512367Y-126512441D01*
X136784689Y-125856616D01*
X136785309Y-125146499D01*
X136514132Y-124490200D01*
X136351912Y-124327696D01*
X136422431Y-124257177D01*
X136545565Y-124544788D01*
X137227734Y-124804707D01*
X137957443Y-124783786D01*
X138534435Y-124544788D01*
X138657570Y-124257175D01*
X137540000Y-123139605D01*
X137525858Y-123153748D01*
X137346253Y-122974143D01*
X137360395Y-122960000D01*
X137719605Y-122960000D01*
X138837175Y-124077570D01*
X139124788Y-123954435D01*
X139384707Y-123272266D01*
X139363786Y-122542557D01*
X139124788Y-121965565D01*
X138837175Y-121842430D01*
X137719605Y-122960000D01*
X137360395Y-122960000D01*
X136242825Y-121842430D01*
X135955212Y-121965565D01*
X135695293Y-122647734D01*
X135716214Y-123377443D01*
X135955212Y-123954435D01*
X136242823Y-124077569D01*
X136172460Y-124147932D01*
X136012441Y-123987633D01*
X135356616Y-123715311D01*
X134646499Y-123714691D01*
X133990200Y-123985868D01*
X133827696Y-124148088D01*
X133757177Y-124077569D01*
X134044788Y-123954435D01*
X134304707Y-123272266D01*
X134283786Y-122542557D01*
X134044788Y-121965565D01*
X133757175Y-121842430D01*
X132639605Y-122960000D01*
X132653748Y-122974143D01*
X132474143Y-123153748D01*
X132460000Y-123139605D01*
X131342430Y-124257175D01*
X108534775Y-124257175D01*
X108535309Y-123646499D01*
X108264132Y-122990200D01*
X108101912Y-122827696D01*
X108172431Y-122757177D01*
X108295565Y-123044788D01*
X108977734Y-123304707D01*
X109707443Y-123283786D01*
X110284435Y-123044788D01*
X110407570Y-122757175D01*
X110298129Y-122647734D01*
X130615293Y-122647734D01*
X130636214Y-123377443D01*
X130875212Y-123954435D01*
X131162825Y-124077570D01*
X132280395Y-122960000D01*
X131162825Y-121842430D01*
X130875212Y-121965565D01*
X130615293Y-122647734D01*
X110298129Y-122647734D01*
X109290000Y-121639605D01*
X109275858Y-121653748D01*
X109096253Y-121474143D01*
X109110395Y-121460000D01*
X109469605Y-121460000D01*
X110587175Y-122577570D01*
X110874788Y-122454435D01*
X111134707Y-121772266D01*
X111131570Y-121662825D01*
X131342430Y-121662825D01*
X132460000Y-122780395D01*
X133577570Y-121662825D01*
X136422430Y-121662825D01*
X137540000Y-122780395D01*
X138657570Y-121662825D01*
X138534435Y-121375212D01*
X137852266Y-121115293D01*
X137122557Y-121136214D01*
X136545565Y-121375212D01*
X136422430Y-121662825D01*
X133577570Y-121662825D01*
X133454435Y-121375212D01*
X132772266Y-121115293D01*
X132042557Y-121136214D01*
X131465565Y-121375212D01*
X131342430Y-121662825D01*
X111131570Y-121662825D01*
X111113786Y-121042557D01*
X110874788Y-120465565D01*
X110587175Y-120342430D01*
X109469605Y-121460000D01*
X109110395Y-121460000D01*
X107992825Y-120342430D01*
X107705212Y-120465565D01*
X107445293Y-121147734D01*
X107466214Y-121877443D01*
X107705212Y-122454435D01*
X107992823Y-122577569D01*
X107922460Y-122647932D01*
X107762441Y-122487633D01*
X107106616Y-122215311D01*
X106396499Y-122214691D01*
X105740200Y-122485868D01*
X105577696Y-122648088D01*
X105507177Y-122577569D01*
X105794788Y-122454435D01*
X106054707Y-121772266D01*
X106033786Y-121042557D01*
X105794788Y-120465565D01*
X105507175Y-120342430D01*
X104389605Y-121460000D01*
X104403748Y-121474143D01*
X104224143Y-121653748D01*
X104210000Y-121639605D01*
X103092430Y-122757175D01*
X101635000Y-122757175D01*
X101635000Y-121147734D01*
X102365293Y-121147734D01*
X102386214Y-121877443D01*
X102625212Y-122454435D01*
X102912825Y-122577570D01*
X104030395Y-121460000D01*
X102912825Y-120342430D01*
X102625212Y-120465565D01*
X102365293Y-121147734D01*
X101635000Y-121147734D01*
X101635000Y-120162825D01*
X103092430Y-120162825D01*
X104210000Y-121280395D01*
X105327570Y-120162825D01*
X108172430Y-120162825D01*
X109290000Y-121280395D01*
X110407570Y-120162825D01*
X110284435Y-119875212D01*
X109602266Y-119615293D01*
X108872557Y-119636214D01*
X108295565Y-119875212D01*
X108172430Y-120162825D01*
X105327570Y-120162825D01*
X105204435Y-119875212D01*
X104522266Y-119615293D01*
X103792557Y-119636214D01*
X103215565Y-119875212D01*
X103092430Y-120162825D01*
X101635000Y-120162825D01*
X101635000Y-116635000D01*
X109900000Y-116635000D01*
X110525687Y-116510543D01*
X110590498Y-116467238D01*
X110623033Y-116499829D01*
X110948190Y-116634846D01*
X111300265Y-116635153D01*
X111500089Y-116552587D01*
X111698190Y-116634846D01*
X112050265Y-116635153D01*
X112250089Y-116552587D01*
X112448190Y-116634846D01*
X112800265Y-116635153D01*
X113125657Y-116500704D01*
X113179358Y-116447096D01*
X113274313Y-116510543D01*
X113900000Y-116635000D01*
X133600000Y-116635000D01*
X134225687Y-116510543D01*
X134320492Y-116447196D01*
X134373033Y-116499829D01*
X134698190Y-116634846D01*
X135050265Y-116635153D01*
X135250089Y-116552587D01*
X135448190Y-116634846D01*
X135800265Y-116635153D01*
X136000089Y-116552587D01*
X136198190Y-116634846D01*
X136550265Y-116635153D01*
X136875657Y-116500704D01*
X136949406Y-116427083D01*
X137074313Y-116510543D01*
G36*
X162124313Y-116510543D02*
X162750000Y-116635000D01*
X184750000Y-116635000D01*
X185375687Y-116510543D01*
X185530480Y-116407114D01*
X185623033Y-116499829D01*
X185948190Y-116634846D01*
X186300265Y-116635153D01*
X186500089Y-116552587D01*
X186698190Y-116634846D01*
X187050265Y-116635153D01*
X187250089Y-116552587D01*
X187448190Y-116634846D01*
X187800265Y-116635153D01*
X188115728Y-116504807D01*
X188124313Y-116510543D01*
X188750000Y-116635000D01*
X198365000Y-116635000D01*
X198365000Y-148365000D01*
X149135000Y-148365000D01*
X149135000Y-136087175D01*
X153842430Y-136087175D01*
X153965565Y-136374788D01*
X154647734Y-136634707D01*
X155377443Y-136613786D01*
X155954435Y-136374788D01*
X156077570Y-136087175D01*
X158922430Y-136087175D01*
X159045565Y-136374788D01*
X159727734Y-136634707D01*
X160457443Y-136613786D01*
X161034435Y-136374788D01*
X161157570Y-136087175D01*
X160040000Y-134969605D01*
X158922430Y-136087175D01*
X156077570Y-136087175D01*
X154960000Y-134969605D01*
X153842430Y-136087175D01*
X149135000Y-136087175D01*
X149135000Y-134500000D01*
X149130572Y-134477734D01*
X153115293Y-134477734D01*
X153136214Y-135207443D01*
X153375212Y-135784435D01*
X153662825Y-135907570D01*
X154780395Y-134790000D01*
X153662825Y-133672430D01*
X153375212Y-133795565D01*
X153115293Y-134477734D01*
X149130572Y-134477734D01*
X149010543Y-133874313D01*
X148957217Y-133794505D01*
X148999829Y-133751967D01*
X149134846Y-133426810D01*
X149135153Y-133074735D01*
X149052587Y-132874911D01*
X149134846Y-132676810D01*
X149135153Y-132324735D01*
X149052587Y-132124911D01*
X149134846Y-131926810D01*
X149135153Y-131574735D01*
X149000704Y-131249343D01*
X148957103Y-131205666D01*
X149010543Y-131125687D01*
X149034116Y-131007175D01*
X153842430Y-131007175D01*
X153965565Y-131294788D01*
X154647734Y-131554707D01*
X155377443Y-131533786D01*
X155954435Y-131294788D01*
X156077569Y-131007177D01*
X156147932Y-131077540D01*
X155987633Y-131237559D01*
X155715311Y-131893384D01*
X155714691Y-132603501D01*
X155985868Y-133259800D01*
X156148088Y-133422304D01*
X156077569Y-133492823D01*
X155954435Y-133205212D01*
X155272266Y-132945293D01*
X154542557Y-132966214D01*
X153965565Y-133205212D01*
X153842430Y-133492825D01*
X154960000Y-134610395D01*
X154974143Y-134596253D01*
X155153748Y-134775858D01*
X155139605Y-134790000D01*
X156257175Y-135907570D01*
X156544788Y-135784435D01*
X156804707Y-135102266D01*
X156783786Y-134372557D01*
X156544788Y-133795565D01*
X156257177Y-133672431D01*
X156327540Y-133602068D01*
X156487559Y-133762367D01*
X157143384Y-134034689D01*
X157853501Y-134035309D01*
X158509800Y-133764132D01*
X158672304Y-133601912D01*
X158742823Y-133672431D01*
X158455212Y-133795565D01*
X158195293Y-134477734D01*
X158216214Y-135207443D01*
X158455212Y-135784435D01*
X158742825Y-135907570D01*
X159860395Y-134790000D01*
X160219605Y-134790000D01*
X161337175Y-135907570D01*
X161624788Y-135784435D01*
X161884707Y-135102266D01*
X161863786Y-134372557D01*
X161624788Y-133795565D01*
X161337175Y-133672430D01*
X160219605Y-134790000D01*
X159860395Y-134790000D01*
X159846253Y-134775858D01*
X160025858Y-134596253D01*
X160040000Y-134610395D01*
X161157570Y-133492825D01*
X161034435Y-133205212D01*
X160352266Y-132945293D01*
X159622557Y-132966214D01*
X159045565Y-133205212D01*
X158922431Y-133492823D01*
X158852068Y-133422460D01*
X159012367Y-133262441D01*
X159284689Y-132606616D01*
X159285309Y-131896499D01*
X159014132Y-131240200D01*
X158851912Y-131077696D01*
X158922431Y-131007177D01*
X159045565Y-131294788D01*
X159727734Y-131554707D01*
X160457443Y-131533786D01*
X161034435Y-131294788D01*
X161123319Y-131087175D01*
X188092430Y-131087175D01*
X188215565Y-131374788D01*
X188897734Y-131634707D01*
X189627443Y-131613786D01*
X190204435Y-131374788D01*
X190327570Y-131087175D01*
X193172430Y-131087175D01*
X193295565Y-131374788D01*
X193977734Y-131634707D01*
X194707443Y-131613786D01*
X195284435Y-131374788D01*
X195407570Y-131087175D01*
X194290000Y-129969605D01*
X193172430Y-131087175D01*
X190327570Y-131087175D01*
X189210000Y-129969605D01*
X188092430Y-131087175D01*
X161123319Y-131087175D01*
X161157570Y-131007175D01*
X160040000Y-129889605D01*
X160025858Y-129903748D01*
X159846253Y-129724143D01*
X159860395Y-129710000D01*
X160219605Y-129710000D01*
X161337175Y-130827570D01*
X161624788Y-130704435D01*
X161884707Y-130022266D01*
X161869096Y-129477734D01*
X187365293Y-129477734D01*
X187386214Y-130207443D01*
X187625212Y-130784435D01*
X187912825Y-130907570D01*
X189030395Y-129790000D01*
X187912825Y-128672430D01*
X187625212Y-128795565D01*
X187365293Y-129477734D01*
X161869096Y-129477734D01*
X161863786Y-129292557D01*
X161624788Y-128715565D01*
X161337175Y-128592430D01*
X160219605Y-129710000D01*
X159860395Y-129710000D01*
X158742825Y-128592430D01*
X158455212Y-128715565D01*
X158195293Y-129397734D01*
X158216214Y-130127443D01*
X158455212Y-130704435D01*
X158742823Y-130827569D01*
X158672460Y-130897932D01*
X158512441Y-130737633D01*
X157856616Y-130465311D01*
X157146499Y-130464691D01*
X156490200Y-130735868D01*
X156327696Y-130898088D01*
X156257177Y-130827569D01*
X156544788Y-130704435D01*
X156804707Y-130022266D01*
X156783786Y-129292557D01*
X156544788Y-128715565D01*
X156257175Y-128592430D01*
X155139605Y-129710000D01*
X155153748Y-129724143D01*
X154974143Y-129903748D01*
X154960000Y-129889605D01*
X153842430Y-131007175D01*
X149034116Y-131007175D01*
X149135000Y-130500000D01*
X149135000Y-129397734D01*
X153115293Y-129397734D01*
X153136214Y-130127443D01*
X153375212Y-130704435D01*
X153662825Y-130827570D01*
X154780395Y-129710000D01*
X153662825Y-128592430D01*
X153375212Y-128715565D01*
X153115293Y-129397734D01*
X149135000Y-129397734D01*
X149135000Y-128412825D01*
X153842430Y-128412825D01*
X154960000Y-129530395D01*
X156077570Y-128412825D01*
X158922430Y-128412825D01*
X160040000Y-129530395D01*
X161157570Y-128412825D01*
X161034435Y-128125212D01*
X160352266Y-127865293D01*
X159622557Y-127886214D01*
X159045565Y-128125212D01*
X158922430Y-128412825D01*
X156077570Y-128412825D01*
X155954435Y-128125212D01*
X155272266Y-127865293D01*
X154542557Y-127886214D01*
X153965565Y-128125212D01*
X153842430Y-128412825D01*
X149135000Y-128412825D01*
X149135000Y-126087175D01*
X153842430Y-126087175D01*
X153965565Y-126374788D01*
X154647734Y-126634707D01*
X155377443Y-126613786D01*
X155954435Y-126374788D01*
X156077570Y-126087175D01*
X158922430Y-126087175D01*
X159045565Y-126374788D01*
X159727734Y-126634707D01*
X160457443Y-126613786D01*
X161034435Y-126374788D01*
X161157570Y-126087175D01*
X161077570Y-126007175D01*
X188092430Y-126007175D01*
X188215565Y-126294788D01*
X188897734Y-126554707D01*
X189627443Y-126533786D01*
X190204435Y-126294788D01*
X190327569Y-126007177D01*
X190397932Y-126077540D01*
X190237633Y-126237559D01*
X189965311Y-126893384D01*
X189964691Y-127603501D01*
X190235868Y-128259800D01*
X190398088Y-128422304D01*
X190327569Y-128492823D01*
X190204435Y-128205212D01*
X189522266Y-127945293D01*
X188792557Y-127966214D01*
X188215565Y-128205212D01*
X188092430Y-128492825D01*
X189210000Y-129610395D01*
X189224143Y-129596253D01*
X189403748Y-129775858D01*
X189389605Y-129790000D01*
X190507175Y-130907570D01*
X190794788Y-130784435D01*
X191054707Y-130102266D01*
X191033786Y-129372557D01*
X190794788Y-128795565D01*
X190507177Y-128672431D01*
X190577540Y-128602068D01*
X190737559Y-128762367D01*
X191393384Y-129034689D01*
X192103501Y-129035309D01*
X192759800Y-128764132D01*
X192922304Y-128601912D01*
X192992823Y-128672431D01*
X192705212Y-128795565D01*
X192445293Y-129477734D01*
X192466214Y-130207443D01*
X192705212Y-130784435D01*
X192992825Y-130907570D01*
X194110395Y-129790000D01*
X194469605Y-129790000D01*
X195587175Y-130907570D01*
X195874788Y-130784435D01*
X196134707Y-130102266D01*
X196113786Y-129372557D01*
X195874788Y-128795565D01*
X195587175Y-128672430D01*
X194469605Y-129790000D01*
X194110395Y-129790000D01*
X194096253Y-129775858D01*
X194275858Y-129596253D01*
X194290000Y-129610395D01*
X195407570Y-128492825D01*
X195284435Y-128205212D01*
X194602266Y-127945293D01*
X193872557Y-127966214D01*
X193295565Y-128205212D01*
X193172431Y-128492823D01*
X193102068Y-128422460D01*
X193262367Y-128262441D01*
X193534689Y-127606616D01*
X193535309Y-126896499D01*
X193264132Y-126240200D01*
X193101912Y-126077696D01*
X193172431Y-126007177D01*
X193295565Y-126294788D01*
X193977734Y-126554707D01*
X194707443Y-126533786D01*
X195284435Y-126294788D01*
X195407570Y-126007175D01*
X194290000Y-124889605D01*
X194275858Y-124903748D01*
X194096253Y-124724143D01*
X194110395Y-124710000D01*
X194469605Y-124710000D01*
X195587175Y-125827570D01*
X195874788Y-125704435D01*
X196134707Y-125022266D01*
X196113786Y-124292557D01*
X195874788Y-123715565D01*
X195587175Y-123592430D01*
X194469605Y-124710000D01*
X194110395Y-124710000D01*
X192992825Y-123592430D01*
X192705212Y-123715565D01*
X192445293Y-124397734D01*
X192466214Y-125127443D01*
X192705212Y-125704435D01*
X192992823Y-125827569D01*
X192922460Y-125897932D01*
X192762441Y-125737633D01*
X192106616Y-125465311D01*
X191396499Y-125464691D01*
X190740200Y-125735868D01*
X190577696Y-125898088D01*
X190507177Y-125827569D01*
X190794788Y-125704435D01*
X191054707Y-125022266D01*
X191033786Y-124292557D01*
X190794788Y-123715565D01*
X190507175Y-123592430D01*
X189389605Y-124710000D01*
X189403748Y-124724143D01*
X189224143Y-124903748D01*
X189210000Y-124889605D01*
X188092430Y-126007175D01*
X161077570Y-126007175D01*
X160040000Y-124969605D01*
X158922430Y-126087175D01*
X156077570Y-126087175D01*
X154960000Y-124969605D01*
X153842430Y-126087175D01*
X149135000Y-126087175D01*
X149135000Y-124477734D01*
X153115293Y-124477734D01*
X153136214Y-125207443D01*
X153375212Y-125784435D01*
X153662825Y-125907570D01*
X154780395Y-124790000D01*
X153662825Y-123672430D01*
X153375212Y-123795565D01*
X153115293Y-124477734D01*
X149135000Y-124477734D01*
X149135000Y-121007175D01*
X153842430Y-121007175D01*
X153965565Y-121294788D01*
X154647734Y-121554707D01*
X155377443Y-121533786D01*
X155954435Y-121294788D01*
X156077569Y-121007177D01*
X156147932Y-121077540D01*
X155987633Y-121237559D01*
X155715311Y-121893384D01*
X155714691Y-122603501D01*
X155985868Y-123259800D01*
X156148088Y-123422304D01*
X156077569Y-123492823D01*
X155954435Y-123205212D01*
X155272266Y-122945293D01*
X154542557Y-122966214D01*
X153965565Y-123205212D01*
X153842430Y-123492825D01*
X154960000Y-124610395D01*
X154974143Y-124596253D01*
X155153748Y-124775858D01*
X155139605Y-124790000D01*
X156257175Y-125907570D01*
X156544788Y-125784435D01*
X156804707Y-125102266D01*
X156783786Y-124372557D01*
X156544788Y-123795565D01*
X156257177Y-123672431D01*
X156327540Y-123602068D01*
X156487559Y-123762367D01*
X157143384Y-124034689D01*
X157853501Y-124035309D01*
X158509800Y-123764132D01*
X158672304Y-123601912D01*
X158742823Y-123672431D01*
X158455212Y-123795565D01*
X158195293Y-124477734D01*
X158216214Y-125207443D01*
X158455212Y-125784435D01*
X158742825Y-125907570D01*
X159860395Y-124790000D01*
X160219605Y-124790000D01*
X161337175Y-125907570D01*
X161624788Y-125784435D01*
X161884707Y-125102266D01*
X161864508Y-124397734D01*
X187365293Y-124397734D01*
X187386214Y-125127443D01*
X187625212Y-125704435D01*
X187912825Y-125827570D01*
X189030395Y-124710000D01*
X187912825Y-123592430D01*
X187625212Y-123715565D01*
X187365293Y-124397734D01*
X161864508Y-124397734D01*
X161863786Y-124372557D01*
X161624788Y-123795565D01*
X161337175Y-123672430D01*
X160219605Y-124790000D01*
X159860395Y-124790000D01*
X159846253Y-124775858D01*
X160025858Y-124596253D01*
X160040000Y-124610395D01*
X161157570Y-123492825D01*
X161123320Y-123412825D01*
X188092430Y-123412825D01*
X189210000Y-124530395D01*
X190327570Y-123412825D01*
X193172430Y-123412825D01*
X194290000Y-124530395D01*
X195407570Y-123412825D01*
X195284435Y-123125212D01*
X194602266Y-122865293D01*
X193872557Y-122886214D01*
X193295565Y-123125212D01*
X193172430Y-123412825D01*
X190327570Y-123412825D01*
X190204435Y-123125212D01*
X189522266Y-122865293D01*
X188792557Y-122886214D01*
X188215565Y-123125212D01*
X188092430Y-123412825D01*
X161123320Y-123412825D01*
X161034435Y-123205212D01*
X160352266Y-122945293D01*
X159622557Y-122966214D01*
X159045565Y-123205212D01*
X158922431Y-123492823D01*
X158852068Y-123422460D01*
X159012367Y-123262441D01*
X159284689Y-122606616D01*
X159285309Y-121896499D01*
X159014132Y-121240200D01*
X158851912Y-121077696D01*
X158922431Y-121007177D01*
X159045565Y-121294788D01*
X159727734Y-121554707D01*
X160457443Y-121533786D01*
X161034435Y-121294788D01*
X161157570Y-121007175D01*
X160040000Y-119889605D01*
X160025858Y-119903748D01*
X159846253Y-119724143D01*
X159860395Y-119710000D01*
X160219605Y-119710000D01*
X161337175Y-120827570D01*
X161624788Y-120704435D01*
X161884707Y-120022266D01*
X161863786Y-119292557D01*
X161624788Y-118715565D01*
X161337175Y-118592430D01*
X160219605Y-119710000D01*
X159860395Y-119710000D01*
X158742825Y-118592430D01*
X158455212Y-118715565D01*
X158195293Y-119397734D01*
X158216214Y-120127443D01*
X158455212Y-120704435D01*
X158742823Y-120827569D01*
X158672460Y-120897932D01*
X158512441Y-120737633D01*
X157856616Y-120465311D01*
X157146499Y-120464691D01*
X156490200Y-120735868D01*
X156327696Y-120898088D01*
X156257177Y-120827569D01*
X156544788Y-120704435D01*
X156804707Y-120022266D01*
X156783786Y-119292557D01*
X156544788Y-118715565D01*
X156257175Y-118592430D01*
X155139605Y-119710000D01*
X155153748Y-119724143D01*
X154974143Y-119903748D01*
X154960000Y-119889605D01*
X153842430Y-121007175D01*
X149135000Y-121007175D01*
X149135000Y-119397734D01*
X153115293Y-119397734D01*
X153136214Y-120127443D01*
X153375212Y-120704435D01*
X153662825Y-120827570D01*
X154780395Y-119710000D01*
X153662825Y-118592430D01*
X153375212Y-118715565D01*
X153115293Y-119397734D01*
X149135000Y-119397734D01*
X149135000Y-118412825D01*
X153842430Y-118412825D01*
X154960000Y-119530395D01*
X156077570Y-118412825D01*
X158922430Y-118412825D01*
X160040000Y-119530395D01*
X161157570Y-118412825D01*
X161034435Y-118125212D01*
X160352266Y-117865293D01*
X159622557Y-117886214D01*
X159045565Y-118125212D01*
X158922430Y-118412825D01*
X156077570Y-118412825D01*
X155954435Y-118125212D01*
X155272266Y-117865293D01*
X154542557Y-117886214D01*
X153965565Y-118125212D01*
X153842430Y-118412825D01*
X149135000Y-118412825D01*
X149135000Y-116635000D01*
X158500000Y-116635000D01*
X159125687Y-116510543D01*
X159280480Y-116407114D01*
X159373033Y-116499829D01*
X159698190Y-116634846D01*
X160050265Y-116635153D01*
X160250089Y-116552587D01*
X160448190Y-116634846D01*
X160800265Y-116635153D01*
X161000089Y-116552587D01*
X161198190Y-116634846D01*
X161550265Y-116635153D01*
X161875657Y-116500704D01*
X161969455Y-116407070D01*
X162124313Y-116510543D01*
X162124313Y-116510543D01*
G37*
X162124313Y-116510543D02*
X162750000Y-116635000D01*
X184750000Y-116635000D01*
X185375687Y-116510543D01*
X185530480Y-116407114D01*
X185623033Y-116499829D01*
X185948190Y-116634846D01*
X186300265Y-116635153D01*
X186500089Y-116552587D01*
X186698190Y-116634846D01*
X187050265Y-116635153D01*
X187250089Y-116552587D01*
X187448190Y-116634846D01*
X187800265Y-116635153D01*
X188115728Y-116504807D01*
X188124313Y-116510543D01*
X188750000Y-116635000D01*
X198365000Y-116635000D01*
X198365000Y-148365000D01*
X149135000Y-148365000D01*
X149135000Y-136087175D01*
X153842430Y-136087175D01*
X153965565Y-136374788D01*
X154647734Y-136634707D01*
X155377443Y-136613786D01*
X155954435Y-136374788D01*
X156077570Y-136087175D01*
X158922430Y-136087175D01*
X159045565Y-136374788D01*
X159727734Y-136634707D01*
X160457443Y-136613786D01*
X161034435Y-136374788D01*
X161157570Y-136087175D01*
X160040000Y-134969605D01*
X158922430Y-136087175D01*
X156077570Y-136087175D01*
X154960000Y-134969605D01*
X153842430Y-136087175D01*
X149135000Y-136087175D01*
X149135000Y-134500000D01*
X149130572Y-134477734D01*
X153115293Y-134477734D01*
X153136214Y-135207443D01*
X153375212Y-135784435D01*
X153662825Y-135907570D01*
X154780395Y-134790000D01*
X153662825Y-133672430D01*
X153375212Y-133795565D01*
X153115293Y-134477734D01*
X149130572Y-134477734D01*
X149010543Y-133874313D01*
X148957217Y-133794505D01*
X148999829Y-133751967D01*
X149134846Y-133426810D01*
X149135153Y-133074735D01*
X149052587Y-132874911D01*
X149134846Y-132676810D01*
X149135153Y-132324735D01*
X149052587Y-132124911D01*
X149134846Y-131926810D01*
X149135153Y-131574735D01*
X149000704Y-131249343D01*
X148957103Y-131205666D01*
X149010543Y-131125687D01*
X149034116Y-131007175D01*
X153842430Y-131007175D01*
X153965565Y-131294788D01*
X154647734Y-131554707D01*
X155377443Y-131533786D01*
X155954435Y-131294788D01*
X156077569Y-131007177D01*
X156147932Y-131077540D01*
X155987633Y-131237559D01*
X155715311Y-131893384D01*
X155714691Y-132603501D01*
X155985868Y-133259800D01*
X156148088Y-133422304D01*
X156077569Y-133492823D01*
X155954435Y-133205212D01*
X155272266Y-132945293D01*
X154542557Y-132966214D01*
X153965565Y-133205212D01*
X153842430Y-133492825D01*
X154960000Y-134610395D01*
X154974143Y-134596253D01*
X155153748Y-134775858D01*
X155139605Y-134790000D01*
X156257175Y-135907570D01*
X156544788Y-135784435D01*
X156804707Y-135102266D01*
X156783786Y-134372557D01*
X156544788Y-133795565D01*
X156257177Y-133672431D01*
X156327540Y-133602068D01*
X156487559Y-133762367D01*
X157143384Y-134034689D01*
X157853501Y-134035309D01*
X158509800Y-133764132D01*
X158672304Y-133601912D01*
X158742823Y-133672431D01*
X158455212Y-133795565D01*
X158195293Y-134477734D01*
X158216214Y-135207443D01*
X158455212Y-135784435D01*
X158742825Y-135907570D01*
X159860395Y-134790000D01*
X160219605Y-134790000D01*
X161337175Y-135907570D01*
X161624788Y-135784435D01*
X161884707Y-135102266D01*
X161863786Y-134372557D01*
X161624788Y-133795565D01*
X161337175Y-133672430D01*
X160219605Y-134790000D01*
X159860395Y-134790000D01*
X159846253Y-134775858D01*
X160025858Y-134596253D01*
X160040000Y-134610395D01*
X161157570Y-133492825D01*
X161034435Y-133205212D01*
X160352266Y-132945293D01*
X159622557Y-132966214D01*
X159045565Y-133205212D01*
X158922431Y-133492823D01*
X158852068Y-133422460D01*
X159012367Y-133262441D01*
X159284689Y-132606616D01*
X159285309Y-131896499D01*
X159014132Y-131240200D01*
X158851912Y-131077696D01*
X158922431Y-131007177D01*
X159045565Y-131294788D01*
X159727734Y-131554707D01*
X160457443Y-131533786D01*
X161034435Y-131294788D01*
X161123319Y-131087175D01*
X188092430Y-131087175D01*
X188215565Y-131374788D01*
X188897734Y-131634707D01*
X189627443Y-131613786D01*
X190204435Y-131374788D01*
X190327570Y-131087175D01*
X193172430Y-131087175D01*
X193295565Y-131374788D01*
X193977734Y-131634707D01*
X194707443Y-131613786D01*
X195284435Y-131374788D01*
X195407570Y-131087175D01*
X194290000Y-129969605D01*
X193172430Y-131087175D01*
X190327570Y-131087175D01*
X189210000Y-129969605D01*
X188092430Y-131087175D01*
X161123319Y-131087175D01*
X161157570Y-131007175D01*
X160040000Y-129889605D01*
X160025858Y-129903748D01*
X159846253Y-129724143D01*
X159860395Y-129710000D01*
X160219605Y-129710000D01*
X161337175Y-130827570D01*
X161624788Y-130704435D01*
X161884707Y-130022266D01*
X161869096Y-129477734D01*
X187365293Y-129477734D01*
X187386214Y-130207443D01*
X187625212Y-130784435D01*
X187912825Y-130907570D01*
X189030395Y-129790000D01*
X187912825Y-128672430D01*
X187625212Y-128795565D01*
X187365293Y-129477734D01*
X161869096Y-129477734D01*
X161863786Y-129292557D01*
X161624788Y-128715565D01*
X161337175Y-128592430D01*
X160219605Y-129710000D01*
X159860395Y-129710000D01*
X158742825Y-128592430D01*
X158455212Y-128715565D01*
X158195293Y-129397734D01*
X158216214Y-130127443D01*
X158455212Y-130704435D01*
X158742823Y-130827569D01*
X158672460Y-130897932D01*
X158512441Y-130737633D01*
X157856616Y-130465311D01*
X157146499Y-130464691D01*
X156490200Y-130735868D01*
X156327696Y-130898088D01*
X156257177Y-130827569D01*
X156544788Y-130704435D01*
X156804707Y-130022266D01*
X156783786Y-129292557D01*
X156544788Y-128715565D01*
X156257175Y-128592430D01*
X155139605Y-129710000D01*
X155153748Y-129724143D01*
X154974143Y-129903748D01*
X154960000Y-129889605D01*
X153842430Y-131007175D01*
X149034116Y-131007175D01*
X149135000Y-130500000D01*
X149135000Y-129397734D01*
X153115293Y-129397734D01*
X153136214Y-130127443D01*
X153375212Y-130704435D01*
X153662825Y-130827570D01*
X154780395Y-129710000D01*
X153662825Y-128592430D01*
X153375212Y-128715565D01*
X153115293Y-129397734D01*
X149135000Y-129397734D01*
X149135000Y-128412825D01*
X153842430Y-128412825D01*
X154960000Y-129530395D01*
X156077570Y-128412825D01*
X158922430Y-128412825D01*
X160040000Y-129530395D01*
X161157570Y-128412825D01*
X161034435Y-128125212D01*
X160352266Y-127865293D01*
X159622557Y-127886214D01*
X159045565Y-128125212D01*
X158922430Y-128412825D01*
X156077570Y-128412825D01*
X155954435Y-128125212D01*
X155272266Y-127865293D01*
X154542557Y-127886214D01*
X153965565Y-128125212D01*
X153842430Y-128412825D01*
X149135000Y-128412825D01*
X149135000Y-126087175D01*
X153842430Y-126087175D01*
X153965565Y-126374788D01*
X154647734Y-126634707D01*
X155377443Y-126613786D01*
X155954435Y-126374788D01*
X156077570Y-126087175D01*
X158922430Y-126087175D01*
X159045565Y-126374788D01*
X159727734Y-126634707D01*
X160457443Y-126613786D01*
X161034435Y-126374788D01*
X161157570Y-126087175D01*
X161077570Y-126007175D01*
X188092430Y-126007175D01*
X188215565Y-126294788D01*
X188897734Y-126554707D01*
X189627443Y-126533786D01*
X190204435Y-126294788D01*
X190327569Y-126007177D01*
X190397932Y-126077540D01*
X190237633Y-126237559D01*
X189965311Y-126893384D01*
X189964691Y-127603501D01*
X190235868Y-128259800D01*
X190398088Y-128422304D01*
X190327569Y-128492823D01*
X190204435Y-128205212D01*
X189522266Y-127945293D01*
X188792557Y-127966214D01*
X188215565Y-128205212D01*
X188092430Y-128492825D01*
X189210000Y-129610395D01*
X189224143Y-129596253D01*
X189403748Y-129775858D01*
X189389605Y-129790000D01*
X190507175Y-130907570D01*
X190794788Y-130784435D01*
X191054707Y-130102266D01*
X191033786Y-129372557D01*
X190794788Y-128795565D01*
X190507177Y-128672431D01*
X190577540Y-128602068D01*
X190737559Y-128762367D01*
X191393384Y-129034689D01*
X192103501Y-129035309D01*
X192759800Y-128764132D01*
X192922304Y-128601912D01*
X192992823Y-128672431D01*
X192705212Y-128795565D01*
X192445293Y-129477734D01*
X192466214Y-130207443D01*
X192705212Y-130784435D01*
X192992825Y-130907570D01*
X194110395Y-129790000D01*
X194469605Y-129790000D01*
X195587175Y-130907570D01*
X195874788Y-130784435D01*
X196134707Y-130102266D01*
X196113786Y-129372557D01*
X195874788Y-128795565D01*
X195587175Y-128672430D01*
X194469605Y-129790000D01*
X194110395Y-129790000D01*
X194096253Y-129775858D01*
X194275858Y-129596253D01*
X194290000Y-129610395D01*
X195407570Y-128492825D01*
X195284435Y-128205212D01*
X194602266Y-127945293D01*
X193872557Y-127966214D01*
X193295565Y-128205212D01*
X193172431Y-128492823D01*
X193102068Y-128422460D01*
X193262367Y-128262441D01*
X193534689Y-127606616D01*
X193535309Y-126896499D01*
X193264132Y-126240200D01*
X193101912Y-126077696D01*
X193172431Y-126007177D01*
X193295565Y-126294788D01*
X193977734Y-126554707D01*
X194707443Y-126533786D01*
X195284435Y-126294788D01*
X195407570Y-126007175D01*
X194290000Y-124889605D01*
X194275858Y-124903748D01*
X194096253Y-124724143D01*
X194110395Y-124710000D01*
X194469605Y-124710000D01*
X195587175Y-125827570D01*
X195874788Y-125704435D01*
X196134707Y-125022266D01*
X196113786Y-124292557D01*
X195874788Y-123715565D01*
X195587175Y-123592430D01*
X194469605Y-124710000D01*
X194110395Y-124710000D01*
X192992825Y-123592430D01*
X192705212Y-123715565D01*
X192445293Y-124397734D01*
X192466214Y-125127443D01*
X192705212Y-125704435D01*
X192992823Y-125827569D01*
X192922460Y-125897932D01*
X192762441Y-125737633D01*
X192106616Y-125465311D01*
X191396499Y-125464691D01*
X190740200Y-125735868D01*
X190577696Y-125898088D01*
X190507177Y-125827569D01*
X190794788Y-125704435D01*
X191054707Y-125022266D01*
X191033786Y-124292557D01*
X190794788Y-123715565D01*
X190507175Y-123592430D01*
X189389605Y-124710000D01*
X189403748Y-124724143D01*
X189224143Y-124903748D01*
X189210000Y-124889605D01*
X188092430Y-126007175D01*
X161077570Y-126007175D01*
X160040000Y-124969605D01*
X158922430Y-126087175D01*
X156077570Y-126087175D01*
X154960000Y-124969605D01*
X153842430Y-126087175D01*
X149135000Y-126087175D01*
X149135000Y-124477734D01*
X153115293Y-124477734D01*
X153136214Y-125207443D01*
X153375212Y-125784435D01*
X153662825Y-125907570D01*
X154780395Y-124790000D01*
X153662825Y-123672430D01*
X153375212Y-123795565D01*
X153115293Y-124477734D01*
X149135000Y-124477734D01*
X149135000Y-121007175D01*
X153842430Y-121007175D01*
X153965565Y-121294788D01*
X154647734Y-121554707D01*
X155377443Y-121533786D01*
X155954435Y-121294788D01*
X156077569Y-121007177D01*
X156147932Y-121077540D01*
X155987633Y-121237559D01*
X155715311Y-121893384D01*
X155714691Y-122603501D01*
X155985868Y-123259800D01*
X156148088Y-123422304D01*
X156077569Y-123492823D01*
X155954435Y-123205212D01*
X155272266Y-122945293D01*
X154542557Y-122966214D01*
X153965565Y-123205212D01*
X153842430Y-123492825D01*
X154960000Y-124610395D01*
X154974143Y-124596253D01*
X155153748Y-124775858D01*
X155139605Y-124790000D01*
X156257175Y-125907570D01*
X156544788Y-125784435D01*
X156804707Y-125102266D01*
X156783786Y-124372557D01*
X156544788Y-123795565D01*
X156257177Y-123672431D01*
X156327540Y-123602068D01*
X156487559Y-123762367D01*
X157143384Y-124034689D01*
X157853501Y-124035309D01*
X158509800Y-123764132D01*
X158672304Y-123601912D01*
X158742823Y-123672431D01*
X158455212Y-123795565D01*
X158195293Y-124477734D01*
X158216214Y-125207443D01*
X158455212Y-125784435D01*
X158742825Y-125907570D01*
X159860395Y-124790000D01*
X160219605Y-124790000D01*
X161337175Y-125907570D01*
X161624788Y-125784435D01*
X161884707Y-125102266D01*
X161864508Y-124397734D01*
X187365293Y-124397734D01*
X187386214Y-125127443D01*
X187625212Y-125704435D01*
X187912825Y-125827570D01*
X189030395Y-124710000D01*
X187912825Y-123592430D01*
X187625212Y-123715565D01*
X187365293Y-124397734D01*
X161864508Y-124397734D01*
X161863786Y-124372557D01*
X161624788Y-123795565D01*
X161337175Y-123672430D01*
X160219605Y-124790000D01*
X159860395Y-124790000D01*
X159846253Y-124775858D01*
X160025858Y-124596253D01*
X160040000Y-124610395D01*
X161157570Y-123492825D01*
X161123320Y-123412825D01*
X188092430Y-123412825D01*
X189210000Y-124530395D01*
X190327570Y-123412825D01*
X193172430Y-123412825D01*
X194290000Y-124530395D01*
X195407570Y-123412825D01*
X195284435Y-123125212D01*
X194602266Y-122865293D01*
X193872557Y-122886214D01*
X193295565Y-123125212D01*
X193172430Y-123412825D01*
X190327570Y-123412825D01*
X190204435Y-123125212D01*
X189522266Y-122865293D01*
X188792557Y-122886214D01*
X188215565Y-123125212D01*
X188092430Y-123412825D01*
X161123320Y-123412825D01*
X161034435Y-123205212D01*
X160352266Y-122945293D01*
X159622557Y-122966214D01*
X159045565Y-123205212D01*
X158922431Y-123492823D01*
X158852068Y-123422460D01*
X159012367Y-123262441D01*
X159284689Y-122606616D01*
X159285309Y-121896499D01*
X159014132Y-121240200D01*
X158851912Y-121077696D01*
X158922431Y-121007177D01*
X159045565Y-121294788D01*
X159727734Y-121554707D01*
X160457443Y-121533786D01*
X161034435Y-121294788D01*
X161157570Y-121007175D01*
X160040000Y-119889605D01*
X160025858Y-119903748D01*
X159846253Y-119724143D01*
X159860395Y-119710000D01*
X160219605Y-119710000D01*
X161337175Y-120827570D01*
X161624788Y-120704435D01*
X161884707Y-120022266D01*
X161863786Y-119292557D01*
X161624788Y-118715565D01*
X161337175Y-118592430D01*
X160219605Y-119710000D01*
X159860395Y-119710000D01*
X158742825Y-118592430D01*
X158455212Y-118715565D01*
X158195293Y-119397734D01*
X158216214Y-120127443D01*
X158455212Y-120704435D01*
X158742823Y-120827569D01*
X158672460Y-120897932D01*
X158512441Y-120737633D01*
X157856616Y-120465311D01*
X157146499Y-120464691D01*
X156490200Y-120735868D01*
X156327696Y-120898088D01*
X156257177Y-120827569D01*
X156544788Y-120704435D01*
X156804707Y-120022266D01*
X156783786Y-119292557D01*
X156544788Y-118715565D01*
X156257175Y-118592430D01*
X155139605Y-119710000D01*
X155153748Y-119724143D01*
X154974143Y-119903748D01*
X154960000Y-119889605D01*
X153842430Y-121007175D01*
X149135000Y-121007175D01*
X149135000Y-119397734D01*
X153115293Y-119397734D01*
X153136214Y-120127443D01*
X153375212Y-120704435D01*
X153662825Y-120827570D01*
X154780395Y-119710000D01*
X153662825Y-118592430D01*
X153375212Y-118715565D01*
X153115293Y-119397734D01*
X149135000Y-119397734D01*
X149135000Y-118412825D01*
X153842430Y-118412825D01*
X154960000Y-119530395D01*
X156077570Y-118412825D01*
X158922430Y-118412825D01*
X160040000Y-119530395D01*
X161157570Y-118412825D01*
X161034435Y-118125212D01*
X160352266Y-117865293D01*
X159622557Y-117886214D01*
X159045565Y-118125212D01*
X158922430Y-118412825D01*
X156077570Y-118412825D01*
X155954435Y-118125212D01*
X155272266Y-117865293D01*
X154542557Y-117886214D01*
X153965565Y-118125212D01*
X153842430Y-118412825D01*
X149135000Y-118412825D01*
X149135000Y-116635000D01*
X158500000Y-116635000D01*
X159125687Y-116510543D01*
X159280480Y-116407114D01*
X159373033Y-116499829D01*
X159698190Y-116634846D01*
X160050265Y-116635153D01*
X160250089Y-116552587D01*
X160448190Y-116634846D01*
X160800265Y-116635153D01*
X161000089Y-116552587D01*
X161198190Y-116634846D01*
X161550265Y-116635153D01*
X161875657Y-116500704D01*
X161969455Y-116407070D01*
X162124313Y-116510543D01*
G36*
X198365000Y-113365000D02*
X188750000Y-113365000D01*
X188124313Y-113489457D01*
X188115441Y-113495385D01*
X187801810Y-113365154D01*
X187449735Y-113364847D01*
X187249911Y-113447413D01*
X187051810Y-113365154D01*
X186699735Y-113364847D01*
X186499911Y-113447413D01*
X186301810Y-113365154D01*
X185949735Y-113364847D01*
X185624343Y-113499296D01*
X185530545Y-113592930D01*
X185375687Y-113489457D01*
X184750000Y-113365000D01*
X162750000Y-113365000D01*
X162124313Y-113489457D01*
X161969520Y-113592886D01*
X161876967Y-113500171D01*
X161551810Y-113365154D01*
X161199735Y-113364847D01*
X160999911Y-113447413D01*
X160801810Y-113365154D01*
X160449735Y-113364847D01*
X160249911Y-113447413D01*
X160051810Y-113365154D01*
X159699735Y-113364847D01*
X159374343Y-113499296D01*
X159280545Y-113592930D01*
X159125687Y-113489457D01*
X158500000Y-113365000D01*
X151635000Y-113365000D01*
X151635000Y-110813893D01*
X184144725Y-110813893D01*
X184385519Y-111396657D01*
X184830997Y-111842914D01*
X185413341Y-112084724D01*
X186043893Y-112085275D01*
X186626657Y-111844481D01*
X186855186Y-111616350D01*
X187333255Y-111616350D01*
X187425792Y-111878019D01*
X188017398Y-112096188D01*
X188647461Y-112071352D01*
X189114208Y-111878019D01*
X189206745Y-111616350D01*
X188270000Y-110679605D01*
X187333255Y-111616350D01*
X186855186Y-111616350D01*
X187066116Y-111405789D01*
X187153650Y-111436745D01*
X188090395Y-110500000D01*
X188449605Y-110500000D01*
X189386350Y-111436745D01*
X189648019Y-111344208D01*
X189866188Y-110752602D01*
X189841352Y-110122539D01*
X189648019Y-109655792D01*
X189386350Y-109563255D01*
X188449605Y-110500000D01*
X188090395Y-110500000D01*
X187153650Y-109563255D01*
X187065561Y-109594407D01*
X186855172Y-109383650D01*
X187333255Y-109383650D01*
X188270000Y-110320395D01*
X189206745Y-109383650D01*
X189114208Y-109121981D01*
X188522602Y-108903812D01*
X187892539Y-108928648D01*
X187425792Y-109121981D01*
X187333255Y-109383650D01*
X186855172Y-109383650D01*
X186629003Y-109157086D01*
X186046659Y-108915276D01*
X185416107Y-108914725D01*
X184833343Y-109155519D01*
X184387086Y-109600997D01*
X184145276Y-110183341D01*
X184144725Y-110813893D01*
X151635000Y-110813893D01*
X151635000Y-105837175D01*
X187292430Y-105837175D01*
X187415565Y-106124788D01*
X188097734Y-106384707D01*
X188827443Y-106363786D01*
X189404435Y-106124788D01*
X189527570Y-105837175D01*
X192372430Y-105837175D01*
X192495565Y-106124788D01*
X193177734Y-106384707D01*
X193907443Y-106363786D01*
X194484435Y-106124788D01*
X194607570Y-105837175D01*
X193490000Y-104719605D01*
X192372430Y-105837175D01*
X189527570Y-105837175D01*
X188410000Y-104719605D01*
X187292430Y-105837175D01*
X151635000Y-105837175D01*
X151635000Y-104227734D01*
X186565293Y-104227734D01*
X186586214Y-104957443D01*
X186825212Y-105534435D01*
X187112825Y-105657570D01*
X188230395Y-104540000D01*
X187112825Y-103422430D01*
X186825212Y-103545565D01*
X186565293Y-104227734D01*
X151635000Y-104227734D01*
X151635000Y-100757175D01*
X187292430Y-100757175D01*
X187415565Y-101044788D01*
X188097734Y-101304707D01*
X188827443Y-101283786D01*
X189404435Y-101044788D01*
X189527569Y-100757177D01*
X189597932Y-100827540D01*
X189437633Y-100987559D01*
X189165311Y-101643384D01*
X189164691Y-102353501D01*
X189435868Y-103009800D01*
X189598088Y-103172304D01*
X189527569Y-103242823D01*
X189404435Y-102955212D01*
X188722266Y-102695293D01*
X187992557Y-102716214D01*
X187415565Y-102955212D01*
X187292430Y-103242825D01*
X188410000Y-104360395D01*
X188424143Y-104346253D01*
X188603748Y-104525858D01*
X188589605Y-104540000D01*
X189707175Y-105657570D01*
X189994788Y-105534435D01*
X190254707Y-104852266D01*
X190233786Y-104122557D01*
X189994788Y-103545565D01*
X189707177Y-103422431D01*
X189777540Y-103352068D01*
X189937559Y-103512367D01*
X190593384Y-103784689D01*
X191303501Y-103785309D01*
X191959800Y-103514132D01*
X192122304Y-103351912D01*
X192192823Y-103422431D01*
X191905212Y-103545565D01*
X191645293Y-104227734D01*
X191666214Y-104957443D01*
X191905212Y-105534435D01*
X192192825Y-105657570D01*
X193310395Y-104540000D01*
X193669605Y-104540000D01*
X194787175Y-105657570D01*
X195074788Y-105534435D01*
X195334707Y-104852266D01*
X195313786Y-104122557D01*
X195074788Y-103545565D01*
X194787175Y-103422430D01*
X193669605Y-104540000D01*
X193310395Y-104540000D01*
X193296253Y-104525858D01*
X193475858Y-104346253D01*
X193490000Y-104360395D01*
X194607570Y-103242825D01*
X194484435Y-102955212D01*
X193802266Y-102695293D01*
X193072557Y-102716214D01*
X192495565Y-102955212D01*
X192372431Y-103242823D01*
X192302068Y-103172460D01*
X192462367Y-103012441D01*
X192734689Y-102356616D01*
X192735309Y-101646499D01*
X192464132Y-100990200D01*
X192301912Y-100827696D01*
X192372431Y-100757177D01*
X192495565Y-101044788D01*
X193177734Y-101304707D01*
X193907443Y-101283786D01*
X194484435Y-101044788D01*
X194607570Y-100757175D01*
X193490000Y-99639605D01*
X193475858Y-99653748D01*
X193296253Y-99474143D01*
X193310395Y-99460000D01*
X193669605Y-99460000D01*
X194787175Y-100577570D01*
X195074788Y-100454435D01*
X195334707Y-99772266D01*
X195313786Y-99042557D01*
X195074788Y-98465565D01*
X194787175Y-98342430D01*
X193669605Y-99460000D01*
X193310395Y-99460000D01*
X192192825Y-98342430D01*
X191905212Y-98465565D01*
X191645293Y-99147734D01*
X191666214Y-99877443D01*
X191905212Y-100454435D01*
X192192823Y-100577569D01*
X192122460Y-100647932D01*
X191962441Y-100487633D01*
X191306616Y-100215311D01*
X190596499Y-100214691D01*
X189940200Y-100485868D01*
X189777696Y-100648088D01*
X189707177Y-100577569D01*
X189994788Y-100454435D01*
X190254707Y-99772266D01*
X190233786Y-99042557D01*
X189994788Y-98465565D01*
X189707175Y-98342430D01*
X188589605Y-99460000D01*
X188603748Y-99474143D01*
X188424143Y-99653748D01*
X188410000Y-99639605D01*
X187292430Y-100757175D01*
X151635000Y-100757175D01*
X151635000Y-100750000D01*
X151510543Y-100124313D01*
X151457217Y-100044505D01*
X151499829Y-100001967D01*
X151634846Y-99676810D01*
X151635153Y-99324735D01*
X151562018Y-99147734D01*
X186565293Y-99147734D01*
X186586214Y-99877443D01*
X186825212Y-100454435D01*
X187112825Y-100577570D01*
X188230395Y-99460000D01*
X187112825Y-98342430D01*
X186825212Y-98465565D01*
X186565293Y-99147734D01*
X151562018Y-99147734D01*
X151552587Y-99124911D01*
X151634846Y-98926810D01*
X151635153Y-98574735D01*
X151552587Y-98374911D01*
X151634846Y-98176810D01*
X151634858Y-98162825D01*
X187292430Y-98162825D01*
X188410000Y-99280395D01*
X189527570Y-98162825D01*
X192372430Y-98162825D01*
X193490000Y-99280395D01*
X194607570Y-98162825D01*
X194484435Y-97875212D01*
X193802266Y-97615293D01*
X193072557Y-97636214D01*
X192495565Y-97875212D01*
X192372430Y-98162825D01*
X189527570Y-98162825D01*
X189404435Y-97875212D01*
X188722266Y-97615293D01*
X187992557Y-97636214D01*
X187415565Y-97875212D01*
X187292430Y-98162825D01*
X151634858Y-98162825D01*
X151635153Y-97824735D01*
X151500704Y-97499343D01*
X151457103Y-97455666D01*
X151510543Y-97375687D01*
X151635000Y-96750000D01*
X151635000Y-84935167D01*
X175314838Y-84935167D01*
X175456883Y-85278943D01*
X175490000Y-85312118D01*
X175490000Y-90000000D01*
X175547852Y-90290839D01*
X175712599Y-90537401D01*
X179814878Y-94639680D01*
X179814838Y-94685167D01*
X179956883Y-95028943D01*
X180219673Y-95292192D01*
X180563201Y-95434838D01*
X180935167Y-95435162D01*
X181278943Y-95293117D01*
X181542192Y-95030327D01*
X181684838Y-94686799D01*
X181685162Y-94314833D01*
X181543117Y-93971057D01*
X181280327Y-93707808D01*
X180936799Y-93565162D01*
X180889923Y-93565121D01*
X177010000Y-89685198D01*
X177010000Y-85312463D01*
X177042192Y-85280327D01*
X177184838Y-84936799D01*
X177185162Y-84564833D01*
X177043117Y-84221057D01*
X176780327Y-83957808D01*
X176436799Y-83815162D01*
X176064833Y-83814838D01*
X175721057Y-83956883D01*
X175457808Y-84219673D01*
X175315162Y-84563201D01*
X175314838Y-84935167D01*
X151635000Y-84935167D01*
X151635000Y-80685167D01*
X179314838Y-80685167D01*
X179365000Y-80806569D01*
X179365000Y-84443178D01*
X179315162Y-84563201D01*
X179314838Y-84935167D01*
X179456883Y-85278943D01*
X179719673Y-85542192D01*
X180063201Y-85684838D01*
X180435167Y-85685162D01*
X180778943Y-85543117D01*
X181042192Y-85280327D01*
X181184838Y-84936799D01*
X181185162Y-84564833D01*
X181135000Y-84443431D01*
X181135000Y-80806822D01*
X181184838Y-80686799D01*
X181185162Y-80314833D01*
X181043117Y-79971057D01*
X180780327Y-79707808D01*
X180436799Y-79565162D01*
X180064833Y-79564838D01*
X179721057Y-79706883D01*
X179457808Y-79969673D01*
X179315162Y-80313201D01*
X179314838Y-80685167D01*
X151635000Y-80685167D01*
X151635000Y-71035750D01*
X153349000Y-71035750D01*
X153349000Y-71739909D01*
X153445673Y-71973298D01*
X153624301Y-72151927D01*
X153857690Y-72248600D01*
X154714250Y-72248600D01*
X154873000Y-72089850D01*
X154873000Y-70877000D01*
X155127000Y-70877000D01*
X155127000Y-72089850D01*
X155285750Y-72248600D01*
X156142310Y-72248600D01*
X156375699Y-72151927D01*
X156554327Y-71973298D01*
X156651000Y-71739909D01*
X156651000Y-71035750D01*
X156492250Y-70877000D01*
X155127000Y-70877000D01*
X154873000Y-70877000D01*
X153507750Y-70877000D01*
X153349000Y-71035750D01*
X151635000Y-71035750D01*
X151635000Y-68250000D01*
X151510543Y-67624313D01*
X151457217Y-67544505D01*
X151499829Y-67501967D01*
X151634846Y-67176810D01*
X151635153Y-66824735D01*
X151552587Y-66624911D01*
X151634846Y-66426810D01*
X151635153Y-66074735D01*
X151552587Y-65874911D01*
X151634846Y-65676810D01*
X151634851Y-65670000D01*
X153316655Y-65670000D01*
X153430729Y-66243489D01*
X153755585Y-66729670D01*
X154070366Y-66940000D01*
X153755585Y-67150330D01*
X153430729Y-67636511D01*
X153316655Y-68210000D01*
X153430729Y-68783489D01*
X153755585Y-69269670D01*
X153777780Y-69284500D01*
X153624301Y-69348073D01*
X153445673Y-69526702D01*
X153349000Y-69760091D01*
X153349000Y-70464250D01*
X153507750Y-70623000D01*
X154873000Y-70623000D01*
X154873000Y-70603000D01*
X155127000Y-70603000D01*
X155127000Y-70623000D01*
X156492250Y-70623000D01*
X156651000Y-70464250D01*
X156651000Y-69760091D01*
X156554327Y-69526702D01*
X156375699Y-69348073D01*
X156222220Y-69284500D01*
X156244415Y-69269670D01*
X156444648Y-68970000D01*
X163145198Y-68970000D01*
X165212599Y-71037401D01*
X165459161Y-71202148D01*
X165750000Y-71260000D01*
X169687537Y-71260000D01*
X169719673Y-71292192D01*
X170063201Y-71434838D01*
X170435167Y-71435162D01*
X170778943Y-71293117D01*
X171042192Y-71030327D01*
X171184838Y-70686799D01*
X171185162Y-70314833D01*
X171043117Y-69971057D01*
X170780327Y-69707808D01*
X170436799Y-69565162D01*
X170064833Y-69564838D01*
X169721057Y-69706883D01*
X169687882Y-69740000D01*
X166064802Y-69740000D01*
X163997401Y-67672599D01*
X163750839Y-67507852D01*
X163460000Y-67450000D01*
X162559999Y-67450000D01*
X162559999Y-67049999D01*
X162502147Y-66759160D01*
X162435080Y-66658787D01*
X162435162Y-66564833D01*
X162412506Y-66510000D01*
X172437537Y-66510000D01*
X172469673Y-66542192D01*
X172813201Y-66684838D01*
X173185167Y-66685162D01*
X173528943Y-66543117D01*
X173792192Y-66280327D01*
X173934838Y-65936799D01*
X173935162Y-65564833D01*
X173793117Y-65221057D01*
X173530327Y-64957808D01*
X173186799Y-64815162D01*
X172814833Y-64814838D01*
X172471057Y-64956883D01*
X172437882Y-64990000D01*
X156498103Y-64990000D01*
X156244415Y-64610330D01*
X155758234Y-64285474D01*
X155184745Y-64171400D01*
X154815255Y-64171400D01*
X154241766Y-64285474D01*
X153755585Y-64610330D01*
X153430729Y-65096511D01*
X153316655Y-65670000D01*
X151634851Y-65670000D01*
X151635153Y-65324735D01*
X151500704Y-64999343D01*
X151457103Y-64955666D01*
X151510543Y-64875687D01*
X151635000Y-64250000D01*
X151635000Y-55170000D01*
X153316655Y-55170000D01*
X153430729Y-55743489D01*
X153755585Y-56229670D01*
X154070366Y-56440000D01*
X153755585Y-56650330D01*
X153430729Y-57136511D01*
X153316655Y-57710000D01*
X153430729Y-58283489D01*
X153755585Y-58769670D01*
X153769913Y-58779243D01*
X153748683Y-58783238D01*
X153532559Y-58922310D01*
X153387569Y-59134510D01*
X153336560Y-59386400D01*
X153336560Y-61113600D01*
X153380838Y-61348917D01*
X153519910Y-61565041D01*
X153732110Y-61710031D01*
X153984000Y-61761040D01*
X156016000Y-61761040D01*
X156251317Y-61716762D01*
X156467441Y-61577690D01*
X156612431Y-61365490D01*
X156663440Y-61113600D01*
X156663440Y-59661362D01*
X157064802Y-59260000D01*
X167185198Y-59260000D01*
X170712599Y-62787401D01*
X170959161Y-62952148D01*
X171250000Y-63010000D01*
X176500000Y-63010000D01*
X176790839Y-62952148D01*
X177037401Y-62787401D01*
X177200000Y-62624802D01*
X177200000Y-70488477D01*
X177065162Y-70813201D01*
X177064838Y-71185167D01*
X177206883Y-71528943D01*
X177469673Y-71792192D01*
X177813201Y-71934838D01*
X178185167Y-71935162D01*
X178528943Y-71793117D01*
X178792192Y-71530327D01*
X178934838Y-71186799D01*
X178935162Y-70814833D01*
X178793117Y-70471057D01*
X178720000Y-70397812D01*
X178720000Y-56694648D01*
X179019670Y-56494415D01*
X179029243Y-56480087D01*
X179033238Y-56501317D01*
X179172310Y-56717441D01*
X179384510Y-56862431D01*
X179636400Y-56913440D01*
X179740000Y-56913440D01*
X179740000Y-74185198D01*
X177435198Y-76490000D01*
X166808937Y-76490000D01*
X166934838Y-76186799D01*
X166935162Y-75814833D01*
X166793117Y-75471057D01*
X166760000Y-75437882D01*
X166760000Y-73250000D01*
X166702148Y-72959161D01*
X166537401Y-72712599D01*
X164685122Y-70860320D01*
X164685162Y-70814833D01*
X164543117Y-70471057D01*
X164280327Y-70207808D01*
X163936799Y-70065162D01*
X163564833Y-70064838D01*
X163221057Y-70206883D01*
X162957808Y-70469673D01*
X162815162Y-70813201D01*
X162814838Y-71185167D01*
X162956883Y-71528943D01*
X163219673Y-71792192D01*
X163563201Y-71934838D01*
X163610077Y-71934879D01*
X165240000Y-73564802D01*
X165240000Y-75437537D01*
X165207808Y-75469673D01*
X165065162Y-75813201D01*
X165064838Y-76185167D01*
X165190792Y-76490000D01*
X162062463Y-76490000D01*
X162030327Y-76457808D01*
X161686799Y-76315162D01*
X161314833Y-76314838D01*
X160971057Y-76456883D01*
X160707808Y-76719673D01*
X160565162Y-77063201D01*
X160564838Y-77435167D01*
X160706883Y-77778943D01*
X160969673Y-78042192D01*
X161313201Y-78184838D01*
X161685167Y-78185162D01*
X162028943Y-78043117D01*
X162062118Y-78010000D01*
X177750000Y-78010000D01*
X178040839Y-77952148D01*
X178287401Y-77787401D01*
X181037401Y-75037401D01*
X181202148Y-74790840D01*
X181260000Y-74500000D01*
X181260000Y-61162747D01*
X181313201Y-61184838D01*
X181360077Y-61184879D01*
X181740000Y-61564802D01*
X181740000Y-85687537D01*
X181707808Y-85719673D01*
X181565162Y-86063201D01*
X181564838Y-86435167D01*
X181706883Y-86778943D01*
X181969673Y-87042192D01*
X182313201Y-87184838D01*
X182685167Y-87185162D01*
X183028943Y-87043117D01*
X183292192Y-86780327D01*
X183434838Y-86436799D01*
X183435162Y-86064833D01*
X183293117Y-85721057D01*
X183260000Y-85687882D01*
X183260000Y-65935167D01*
X183564838Y-65935167D01*
X183706883Y-66278943D01*
X183740000Y-66312118D01*
X183740000Y-85000000D01*
X183797852Y-85290839D01*
X183962599Y-85537401D01*
X185814856Y-87389658D01*
X185814838Y-87410167D01*
X185956883Y-87753943D01*
X186219673Y-88017192D01*
X186563201Y-88159838D01*
X186935167Y-88160162D01*
X187278943Y-88018117D01*
X187542192Y-87755327D01*
X187684838Y-87411799D01*
X187685162Y-87039833D01*
X187598896Y-86831052D01*
X188528047Y-86831052D01*
X188529876Y-87019648D01*
X188856388Y-87121837D01*
X189197151Y-87091297D01*
X189370124Y-87019648D01*
X189371953Y-86831052D01*
X190028047Y-86831052D01*
X190029876Y-87019648D01*
X190356388Y-87121837D01*
X190697151Y-87091297D01*
X190870124Y-87019648D01*
X190871953Y-86831052D01*
X190450000Y-86409099D01*
X190028047Y-86831052D01*
X189371953Y-86831052D01*
X188950000Y-86409099D01*
X188528047Y-86831052D01*
X187598896Y-86831052D01*
X187543117Y-86696057D01*
X187280327Y-86432808D01*
X186936799Y-86290162D01*
X186864901Y-86290099D01*
X186731190Y-86156388D01*
X188078163Y-86156388D01*
X188108703Y-86497151D01*
X188180352Y-86670124D01*
X188368948Y-86671953D01*
X188790901Y-86250000D01*
X189109099Y-86250000D01*
X189531052Y-86671953D01*
X189700000Y-86670315D01*
X189868948Y-86671953D01*
X190290901Y-86250000D01*
X190609099Y-86250000D01*
X191031052Y-86671953D01*
X191219648Y-86670124D01*
X191321837Y-86343612D01*
X191291297Y-86002849D01*
X191219648Y-85829876D01*
X191031052Y-85828047D01*
X190609099Y-86250000D01*
X190290901Y-86250000D01*
X189700000Y-85659099D01*
X189109099Y-86250000D01*
X188790901Y-86250000D01*
X188368948Y-85828047D01*
X188180352Y-85829876D01*
X188078163Y-86156388D01*
X186731190Y-86156388D01*
X185905854Y-85331052D01*
X188528047Y-85331052D01*
X188529685Y-85500000D01*
X188528047Y-85668948D01*
X188950000Y-86090901D01*
X189540901Y-85500000D01*
X189859099Y-85500000D01*
X190450000Y-86090901D01*
X190871953Y-85668948D01*
X190870315Y-85500000D01*
X190871953Y-85331052D01*
X190450000Y-84909099D01*
X189859099Y-85500000D01*
X189540901Y-85500000D01*
X188950000Y-84909099D01*
X188528047Y-85331052D01*
X185905854Y-85331052D01*
X185260000Y-84685198D01*
X185260000Y-84656388D01*
X188078163Y-84656388D01*
X188108703Y-84997151D01*
X188180352Y-85170124D01*
X188368948Y-85171953D01*
X188790901Y-84750000D01*
X189109099Y-84750000D01*
X189700000Y-85340901D01*
X190290901Y-84750000D01*
X190609099Y-84750000D01*
X191031052Y-85171953D01*
X191219648Y-85170124D01*
X191321837Y-84843612D01*
X191291297Y-84502849D01*
X191219648Y-84329876D01*
X191031052Y-84328047D01*
X190609099Y-84750000D01*
X190290901Y-84750000D01*
X189868948Y-84328047D01*
X189700000Y-84329685D01*
X189531052Y-84328047D01*
X189109099Y-84750000D01*
X188790901Y-84750000D01*
X188368948Y-84328047D01*
X188180352Y-84329876D01*
X188078163Y-84656388D01*
X185260000Y-84656388D01*
X185260000Y-84168948D01*
X188528047Y-84168948D01*
X188950000Y-84590901D01*
X189371953Y-84168948D01*
X190028047Y-84168948D01*
X190450000Y-84590901D01*
X190871953Y-84168948D01*
X190870124Y-83980352D01*
X190543612Y-83878163D01*
X190202849Y-83908703D01*
X190029876Y-83980352D01*
X190028047Y-84168948D01*
X189371953Y-84168948D01*
X189370124Y-83980352D01*
X189043612Y-83878163D01*
X188702849Y-83908703D01*
X188529876Y-83980352D01*
X188528047Y-84168948D01*
X185260000Y-84168948D01*
X185260000Y-66312463D01*
X185292192Y-66280327D01*
X185434838Y-65936799D01*
X185435162Y-65564833D01*
X185293117Y-65221057D01*
X185030327Y-64957808D01*
X184686799Y-64815162D01*
X184314833Y-64814838D01*
X183971057Y-64956883D01*
X183707808Y-65219673D01*
X183565162Y-65563201D01*
X183564838Y-65935167D01*
X183260000Y-65935167D01*
X183260000Y-64787175D01*
X187542430Y-64787175D01*
X187665565Y-65074788D01*
X188347734Y-65334707D01*
X189077443Y-65313786D01*
X189654435Y-65074788D01*
X189777570Y-64787175D01*
X192622430Y-64787175D01*
X192745565Y-65074788D01*
X193427734Y-65334707D01*
X194157443Y-65313786D01*
X194734435Y-65074788D01*
X194857570Y-64787175D01*
X193740000Y-63669605D01*
X192622430Y-64787175D01*
X189777570Y-64787175D01*
X188660000Y-63669605D01*
X187542430Y-64787175D01*
X183260000Y-64787175D01*
X183260000Y-63177734D01*
X186815293Y-63177734D01*
X186836214Y-63907443D01*
X187075212Y-64484435D01*
X187362825Y-64607570D01*
X188480395Y-63490000D01*
X187362825Y-62372430D01*
X187075212Y-62495565D01*
X186815293Y-63177734D01*
X183260000Y-63177734D01*
X183260000Y-61250000D01*
X183202148Y-60959161D01*
X183037401Y-60712599D01*
X182435122Y-60110320D01*
X182435162Y-60064833D01*
X182293117Y-59721057D01*
X182279260Y-59707175D01*
X187542430Y-59707175D01*
X187665565Y-59994788D01*
X188347734Y-60254707D01*
X189077443Y-60233786D01*
X189654435Y-59994788D01*
X189777569Y-59707177D01*
X189847932Y-59777540D01*
X189687633Y-59937559D01*
X189415311Y-60593384D01*
X189414691Y-61303501D01*
X189685868Y-61959800D01*
X189848088Y-62122304D01*
X189777569Y-62192823D01*
X189654435Y-61905212D01*
X188972266Y-61645293D01*
X188242557Y-61666214D01*
X187665565Y-61905212D01*
X187542430Y-62192825D01*
X188660000Y-63310395D01*
X188674143Y-63296253D01*
X188853748Y-63475858D01*
X188839605Y-63490000D01*
X189957175Y-64607570D01*
X190244788Y-64484435D01*
X190504707Y-63802266D01*
X190483786Y-63072557D01*
X190244788Y-62495565D01*
X189957177Y-62372431D01*
X190027540Y-62302068D01*
X190187559Y-62462367D01*
X190843384Y-62734689D01*
X191553501Y-62735309D01*
X192209800Y-62464132D01*
X192372304Y-62301912D01*
X192442823Y-62372431D01*
X192155212Y-62495565D01*
X191895293Y-63177734D01*
X191916214Y-63907443D01*
X192155212Y-64484435D01*
X192442825Y-64607570D01*
X193560395Y-63490000D01*
X193919605Y-63490000D01*
X195037175Y-64607570D01*
X195324788Y-64484435D01*
X195584707Y-63802266D01*
X195563786Y-63072557D01*
X195324788Y-62495565D01*
X195037175Y-62372430D01*
X193919605Y-63490000D01*
X193560395Y-63490000D01*
X193546253Y-63475858D01*
X193725858Y-63296253D01*
X193740000Y-63310395D01*
X194857570Y-62192825D01*
X194734435Y-61905212D01*
X194052266Y-61645293D01*
X193322557Y-61666214D01*
X192745565Y-61905212D01*
X192622431Y-62192823D01*
X192552068Y-62122460D01*
X192712367Y-61962441D01*
X192984689Y-61306616D01*
X192985309Y-60596499D01*
X192714132Y-59940200D01*
X192551912Y-59777696D01*
X192622431Y-59707177D01*
X192745565Y-59994788D01*
X193427734Y-60254707D01*
X194157443Y-60233786D01*
X194734435Y-59994788D01*
X194857570Y-59707175D01*
X193740000Y-58589605D01*
X193725858Y-58603748D01*
X193546253Y-58424143D01*
X193560395Y-58410000D01*
X193919605Y-58410000D01*
X195037175Y-59527570D01*
X195324788Y-59404435D01*
X195584707Y-58722266D01*
X195563786Y-57992557D01*
X195324788Y-57415565D01*
X195037175Y-57292430D01*
X193919605Y-58410000D01*
X193560395Y-58410000D01*
X192442825Y-57292430D01*
X192155212Y-57415565D01*
X191895293Y-58097734D01*
X191916214Y-58827443D01*
X192155212Y-59404435D01*
X192442823Y-59527569D01*
X192372460Y-59597932D01*
X192212441Y-59437633D01*
X191556616Y-59165311D01*
X190846499Y-59164691D01*
X190190200Y-59435868D01*
X190027696Y-59598088D01*
X189957177Y-59527569D01*
X190244788Y-59404435D01*
X190504707Y-58722266D01*
X190483786Y-57992557D01*
X190244788Y-57415565D01*
X189957175Y-57292430D01*
X188839605Y-58410000D01*
X188853748Y-58424143D01*
X188674143Y-58603748D01*
X188660000Y-58589605D01*
X187542430Y-59707175D01*
X182279260Y-59707175D01*
X182030327Y-59457808D01*
X181686799Y-59315162D01*
X181314833Y-59314838D01*
X181260000Y-59337494D01*
X181260000Y-58097734D01*
X186815293Y-58097734D01*
X186836214Y-58827443D01*
X187075212Y-59404435D01*
X187362825Y-59527570D01*
X188480395Y-58410000D01*
X187362825Y-57292430D01*
X187075212Y-57415565D01*
X186815293Y-58097734D01*
X181260000Y-58097734D01*
X181260000Y-57112825D01*
X187542430Y-57112825D01*
X188660000Y-58230395D01*
X189777570Y-57112825D01*
X192622430Y-57112825D01*
X193740000Y-58230395D01*
X194857570Y-57112825D01*
X194734435Y-56825212D01*
X194052266Y-56565293D01*
X193322557Y-56586214D01*
X192745565Y-56825212D01*
X192622430Y-57112825D01*
X189777570Y-57112825D01*
X189654435Y-56825212D01*
X188972266Y-56565293D01*
X188242557Y-56586214D01*
X187665565Y-56825212D01*
X187542430Y-57112825D01*
X181260000Y-57112825D01*
X181260000Y-56913440D01*
X181363600Y-56913440D01*
X181598917Y-56869162D01*
X181815041Y-56730090D01*
X181960031Y-56517890D01*
X182011040Y-56266000D01*
X182011040Y-54234000D01*
X181966762Y-53998683D01*
X181827690Y-53782559D01*
X181615490Y-53637569D01*
X181363600Y-53586560D01*
X179636400Y-53586560D01*
X179401083Y-53630838D01*
X179184959Y-53769910D01*
X179039969Y-53982110D01*
X179031600Y-54023439D01*
X179019670Y-54005585D01*
X178533489Y-53680729D01*
X177960000Y-53566655D01*
X177386511Y-53680729D01*
X176900330Y-54005585D01*
X176690000Y-54320366D01*
X176479670Y-54005585D01*
X175993489Y-53680729D01*
X175420000Y-53566655D01*
X174846511Y-53680729D01*
X174360330Y-54005585D01*
X174035474Y-54491766D01*
X173921400Y-55065255D01*
X173921400Y-55434745D01*
X174035474Y-56008234D01*
X174360330Y-56494415D01*
X174846511Y-56819271D01*
X175420000Y-56933345D01*
X175993489Y-56819271D01*
X176479670Y-56494415D01*
X176690000Y-56179634D01*
X176900330Y-56494415D01*
X177200000Y-56694648D01*
X177200000Y-60564956D01*
X177064833Y-60564838D01*
X176721057Y-60706883D01*
X176457808Y-60969673D01*
X176315162Y-61313201D01*
X176315121Y-61360077D01*
X176185198Y-61490000D01*
X172685009Y-61490000D01*
X172685162Y-61314833D01*
X172543117Y-60971057D01*
X172280327Y-60707808D01*
X171936799Y-60565162D01*
X171889923Y-60565121D01*
X168497401Y-57172599D01*
X168250839Y-57007852D01*
X167960000Y-56950000D01*
X156444648Y-56950000D01*
X156244415Y-56650330D01*
X155929634Y-56440000D01*
X156244415Y-56229670D01*
X156569271Y-55743489D01*
X156683345Y-55170000D01*
X156569271Y-54596511D01*
X156244415Y-54110330D01*
X155758234Y-53785474D01*
X155184745Y-53671400D01*
X154815255Y-53671400D01*
X154241766Y-53785474D01*
X153755585Y-54110330D01*
X153430729Y-54596511D01*
X153316655Y-55170000D01*
X151635000Y-55170000D01*
X151635000Y-51635000D01*
X198365000Y-51635000D01*
X198365000Y-113365000D01*
X198365000Y-113365000D01*
G37*
X198365000Y-113365000D02*
X188750000Y-113365000D01*
X188124313Y-113489457D01*
X188115441Y-113495385D01*
X187801810Y-113365154D01*
X187449735Y-113364847D01*
X187249911Y-113447413D01*
X187051810Y-113365154D01*
X186699735Y-113364847D01*
X186499911Y-113447413D01*
X186301810Y-113365154D01*
X185949735Y-113364847D01*
X185624343Y-113499296D01*
X185530545Y-113592930D01*
X185375687Y-113489457D01*
X184750000Y-113365000D01*
X162750000Y-113365000D01*
X162124313Y-113489457D01*
X161969520Y-113592886D01*
X161876967Y-113500171D01*
X161551810Y-113365154D01*
X161199735Y-113364847D01*
X160999911Y-113447413D01*
X160801810Y-113365154D01*
X160449735Y-113364847D01*
X160249911Y-113447413D01*
X160051810Y-113365154D01*
X159699735Y-113364847D01*
X159374343Y-113499296D01*
X159280545Y-113592930D01*
X159125687Y-113489457D01*
X158500000Y-113365000D01*
X151635000Y-113365000D01*
X151635000Y-110813893D01*
X184144725Y-110813893D01*
X184385519Y-111396657D01*
X184830997Y-111842914D01*
X185413341Y-112084724D01*
X186043893Y-112085275D01*
X186626657Y-111844481D01*
X186855186Y-111616350D01*
X187333255Y-111616350D01*
X187425792Y-111878019D01*
X188017398Y-112096188D01*
X188647461Y-112071352D01*
X189114208Y-111878019D01*
X189206745Y-111616350D01*
X188270000Y-110679605D01*
X187333255Y-111616350D01*
X186855186Y-111616350D01*
X187066116Y-111405789D01*
X187153650Y-111436745D01*
X188090395Y-110500000D01*
X188449605Y-110500000D01*
X189386350Y-111436745D01*
X189648019Y-111344208D01*
X189866188Y-110752602D01*
X189841352Y-110122539D01*
X189648019Y-109655792D01*
X189386350Y-109563255D01*
X188449605Y-110500000D01*
X188090395Y-110500000D01*
X187153650Y-109563255D01*
X187065561Y-109594407D01*
X186855172Y-109383650D01*
X187333255Y-109383650D01*
X188270000Y-110320395D01*
X189206745Y-109383650D01*
X189114208Y-109121981D01*
X188522602Y-108903812D01*
X187892539Y-108928648D01*
X187425792Y-109121981D01*
X187333255Y-109383650D01*
X186855172Y-109383650D01*
X186629003Y-109157086D01*
X186046659Y-108915276D01*
X185416107Y-108914725D01*
X184833343Y-109155519D01*
X184387086Y-109600997D01*
X184145276Y-110183341D01*
X184144725Y-110813893D01*
X151635000Y-110813893D01*
X151635000Y-105837175D01*
X187292430Y-105837175D01*
X187415565Y-106124788D01*
X188097734Y-106384707D01*
X188827443Y-106363786D01*
X189404435Y-106124788D01*
X189527570Y-105837175D01*
X192372430Y-105837175D01*
X192495565Y-106124788D01*
X193177734Y-106384707D01*
X193907443Y-106363786D01*
X194484435Y-106124788D01*
X194607570Y-105837175D01*
X193490000Y-104719605D01*
X192372430Y-105837175D01*
X189527570Y-105837175D01*
X188410000Y-104719605D01*
X187292430Y-105837175D01*
X151635000Y-105837175D01*
X151635000Y-104227734D01*
X186565293Y-104227734D01*
X186586214Y-104957443D01*
X186825212Y-105534435D01*
X187112825Y-105657570D01*
X188230395Y-104540000D01*
X187112825Y-103422430D01*
X186825212Y-103545565D01*
X186565293Y-104227734D01*
X151635000Y-104227734D01*
X151635000Y-100757175D01*
X187292430Y-100757175D01*
X187415565Y-101044788D01*
X188097734Y-101304707D01*
X188827443Y-101283786D01*
X189404435Y-101044788D01*
X189527569Y-100757177D01*
X189597932Y-100827540D01*
X189437633Y-100987559D01*
X189165311Y-101643384D01*
X189164691Y-102353501D01*
X189435868Y-103009800D01*
X189598088Y-103172304D01*
X189527569Y-103242823D01*
X189404435Y-102955212D01*
X188722266Y-102695293D01*
X187992557Y-102716214D01*
X187415565Y-102955212D01*
X187292430Y-103242825D01*
X188410000Y-104360395D01*
X188424143Y-104346253D01*
X188603748Y-104525858D01*
X188589605Y-104540000D01*
X189707175Y-105657570D01*
X189994788Y-105534435D01*
X190254707Y-104852266D01*
X190233786Y-104122557D01*
X189994788Y-103545565D01*
X189707177Y-103422431D01*
X189777540Y-103352068D01*
X189937559Y-103512367D01*
X190593384Y-103784689D01*
X191303501Y-103785309D01*
X191959800Y-103514132D01*
X192122304Y-103351912D01*
X192192823Y-103422431D01*
X191905212Y-103545565D01*
X191645293Y-104227734D01*
X191666214Y-104957443D01*
X191905212Y-105534435D01*
X192192825Y-105657570D01*
X193310395Y-104540000D01*
X193669605Y-104540000D01*
X194787175Y-105657570D01*
X195074788Y-105534435D01*
X195334707Y-104852266D01*
X195313786Y-104122557D01*
X195074788Y-103545565D01*
X194787175Y-103422430D01*
X193669605Y-104540000D01*
X193310395Y-104540000D01*
X193296253Y-104525858D01*
X193475858Y-104346253D01*
X193490000Y-104360395D01*
X194607570Y-103242825D01*
X194484435Y-102955212D01*
X193802266Y-102695293D01*
X193072557Y-102716214D01*
X192495565Y-102955212D01*
X192372431Y-103242823D01*
X192302068Y-103172460D01*
X192462367Y-103012441D01*
X192734689Y-102356616D01*
X192735309Y-101646499D01*
X192464132Y-100990200D01*
X192301912Y-100827696D01*
X192372431Y-100757177D01*
X192495565Y-101044788D01*
X193177734Y-101304707D01*
X193907443Y-101283786D01*
X194484435Y-101044788D01*
X194607570Y-100757175D01*
X193490000Y-99639605D01*
X193475858Y-99653748D01*
X193296253Y-99474143D01*
X193310395Y-99460000D01*
X193669605Y-99460000D01*
X194787175Y-100577570D01*
X195074788Y-100454435D01*
X195334707Y-99772266D01*
X195313786Y-99042557D01*
X195074788Y-98465565D01*
X194787175Y-98342430D01*
X193669605Y-99460000D01*
X193310395Y-99460000D01*
X192192825Y-98342430D01*
X191905212Y-98465565D01*
X191645293Y-99147734D01*
X191666214Y-99877443D01*
X191905212Y-100454435D01*
X192192823Y-100577569D01*
X192122460Y-100647932D01*
X191962441Y-100487633D01*
X191306616Y-100215311D01*
X190596499Y-100214691D01*
X189940200Y-100485868D01*
X189777696Y-100648088D01*
X189707177Y-100577569D01*
X189994788Y-100454435D01*
X190254707Y-99772266D01*
X190233786Y-99042557D01*
X189994788Y-98465565D01*
X189707175Y-98342430D01*
X188589605Y-99460000D01*
X188603748Y-99474143D01*
X188424143Y-99653748D01*
X188410000Y-99639605D01*
X187292430Y-100757175D01*
X151635000Y-100757175D01*
X151635000Y-100750000D01*
X151510543Y-100124313D01*
X151457217Y-100044505D01*
X151499829Y-100001967D01*
X151634846Y-99676810D01*
X151635153Y-99324735D01*
X151562018Y-99147734D01*
X186565293Y-99147734D01*
X186586214Y-99877443D01*
X186825212Y-100454435D01*
X187112825Y-100577570D01*
X188230395Y-99460000D01*
X187112825Y-98342430D01*
X186825212Y-98465565D01*
X186565293Y-99147734D01*
X151562018Y-99147734D01*
X151552587Y-99124911D01*
X151634846Y-98926810D01*
X151635153Y-98574735D01*
X151552587Y-98374911D01*
X151634846Y-98176810D01*
X151634858Y-98162825D01*
X187292430Y-98162825D01*
X188410000Y-99280395D01*
X189527570Y-98162825D01*
X192372430Y-98162825D01*
X193490000Y-99280395D01*
X194607570Y-98162825D01*
X194484435Y-97875212D01*
X193802266Y-97615293D01*
X193072557Y-97636214D01*
X192495565Y-97875212D01*
X192372430Y-98162825D01*
X189527570Y-98162825D01*
X189404435Y-97875212D01*
X188722266Y-97615293D01*
X187992557Y-97636214D01*
X187415565Y-97875212D01*
X187292430Y-98162825D01*
X151634858Y-98162825D01*
X151635153Y-97824735D01*
X151500704Y-97499343D01*
X151457103Y-97455666D01*
X151510543Y-97375687D01*
X151635000Y-96750000D01*
X151635000Y-84935167D01*
X175314838Y-84935167D01*
X175456883Y-85278943D01*
X175490000Y-85312118D01*
X175490000Y-90000000D01*
X175547852Y-90290839D01*
X175712599Y-90537401D01*
X179814878Y-94639680D01*
X179814838Y-94685167D01*
X179956883Y-95028943D01*
X180219673Y-95292192D01*
X180563201Y-95434838D01*
X180935167Y-95435162D01*
X181278943Y-95293117D01*
X181542192Y-95030327D01*
X181684838Y-94686799D01*
X181685162Y-94314833D01*
X181543117Y-93971057D01*
X181280327Y-93707808D01*
X180936799Y-93565162D01*
X180889923Y-93565121D01*
X177010000Y-89685198D01*
X177010000Y-85312463D01*
X177042192Y-85280327D01*
X177184838Y-84936799D01*
X177185162Y-84564833D01*
X177043117Y-84221057D01*
X176780327Y-83957808D01*
X176436799Y-83815162D01*
X176064833Y-83814838D01*
X175721057Y-83956883D01*
X175457808Y-84219673D01*
X175315162Y-84563201D01*
X175314838Y-84935167D01*
X151635000Y-84935167D01*
X151635000Y-80685167D01*
X179314838Y-80685167D01*
X179365000Y-80806569D01*
X179365000Y-84443178D01*
X179315162Y-84563201D01*
X179314838Y-84935167D01*
X179456883Y-85278943D01*
X179719673Y-85542192D01*
X180063201Y-85684838D01*
X180435167Y-85685162D01*
X180778943Y-85543117D01*
X181042192Y-85280327D01*
X181184838Y-84936799D01*
X181185162Y-84564833D01*
X181135000Y-84443431D01*
X181135000Y-80806822D01*
X181184838Y-80686799D01*
X181185162Y-80314833D01*
X181043117Y-79971057D01*
X180780327Y-79707808D01*
X180436799Y-79565162D01*
X180064833Y-79564838D01*
X179721057Y-79706883D01*
X179457808Y-79969673D01*
X179315162Y-80313201D01*
X179314838Y-80685167D01*
X151635000Y-80685167D01*
X151635000Y-71035750D01*
X153349000Y-71035750D01*
X153349000Y-71739909D01*
X153445673Y-71973298D01*
X153624301Y-72151927D01*
X153857690Y-72248600D01*
X154714250Y-72248600D01*
X154873000Y-72089850D01*
X154873000Y-70877000D01*
X155127000Y-70877000D01*
X155127000Y-72089850D01*
X155285750Y-72248600D01*
X156142310Y-72248600D01*
X156375699Y-72151927D01*
X156554327Y-71973298D01*
X156651000Y-71739909D01*
X156651000Y-71035750D01*
X156492250Y-70877000D01*
X155127000Y-70877000D01*
X154873000Y-70877000D01*
X153507750Y-70877000D01*
X153349000Y-71035750D01*
X151635000Y-71035750D01*
X151635000Y-68250000D01*
X151510543Y-67624313D01*
X151457217Y-67544505D01*
X151499829Y-67501967D01*
X151634846Y-67176810D01*
X151635153Y-66824735D01*
X151552587Y-66624911D01*
X151634846Y-66426810D01*
X151635153Y-66074735D01*
X151552587Y-65874911D01*
X151634846Y-65676810D01*
X151634851Y-65670000D01*
X153316655Y-65670000D01*
X153430729Y-66243489D01*
X153755585Y-66729670D01*
X154070366Y-66940000D01*
X153755585Y-67150330D01*
X153430729Y-67636511D01*
X153316655Y-68210000D01*
X153430729Y-68783489D01*
X153755585Y-69269670D01*
X153777780Y-69284500D01*
X153624301Y-69348073D01*
X153445673Y-69526702D01*
X153349000Y-69760091D01*
X153349000Y-70464250D01*
X153507750Y-70623000D01*
X154873000Y-70623000D01*
X154873000Y-70603000D01*
X155127000Y-70603000D01*
X155127000Y-70623000D01*
X156492250Y-70623000D01*
X156651000Y-70464250D01*
X156651000Y-69760091D01*
X156554327Y-69526702D01*
X156375699Y-69348073D01*
X156222220Y-69284500D01*
X156244415Y-69269670D01*
X156444648Y-68970000D01*
X163145198Y-68970000D01*
X165212599Y-71037401D01*
X165459161Y-71202148D01*
X165750000Y-71260000D01*
X169687537Y-71260000D01*
X169719673Y-71292192D01*
X170063201Y-71434838D01*
X170435167Y-71435162D01*
X170778943Y-71293117D01*
X171042192Y-71030327D01*
X171184838Y-70686799D01*
X171185162Y-70314833D01*
X171043117Y-69971057D01*
X170780327Y-69707808D01*
X170436799Y-69565162D01*
X170064833Y-69564838D01*
X169721057Y-69706883D01*
X169687882Y-69740000D01*
X166064802Y-69740000D01*
X163997401Y-67672599D01*
X163750839Y-67507852D01*
X163460000Y-67450000D01*
X162559999Y-67450000D01*
X162559999Y-67049999D01*
X162502147Y-66759160D01*
X162435080Y-66658787D01*
X162435162Y-66564833D01*
X162412506Y-66510000D01*
X172437537Y-66510000D01*
X172469673Y-66542192D01*
X172813201Y-66684838D01*
X173185167Y-66685162D01*
X173528943Y-66543117D01*
X173792192Y-66280327D01*
X173934838Y-65936799D01*
X173935162Y-65564833D01*
X173793117Y-65221057D01*
X173530327Y-64957808D01*
X173186799Y-64815162D01*
X172814833Y-64814838D01*
X172471057Y-64956883D01*
X172437882Y-64990000D01*
X156498103Y-64990000D01*
X156244415Y-64610330D01*
X155758234Y-64285474D01*
X155184745Y-64171400D01*
X154815255Y-64171400D01*
X154241766Y-64285474D01*
X153755585Y-64610330D01*
X153430729Y-65096511D01*
X153316655Y-65670000D01*
X151634851Y-65670000D01*
X151635153Y-65324735D01*
X151500704Y-64999343D01*
X151457103Y-64955666D01*
X151510543Y-64875687D01*
X151635000Y-64250000D01*
X151635000Y-55170000D01*
X153316655Y-55170000D01*
X153430729Y-55743489D01*
X153755585Y-56229670D01*
X154070366Y-56440000D01*
X153755585Y-56650330D01*
X153430729Y-57136511D01*
X153316655Y-57710000D01*
X153430729Y-58283489D01*
X153755585Y-58769670D01*
X153769913Y-58779243D01*
X153748683Y-58783238D01*
X153532559Y-58922310D01*
X153387569Y-59134510D01*
X153336560Y-59386400D01*
X153336560Y-61113600D01*
X153380838Y-61348917D01*
X153519910Y-61565041D01*
X153732110Y-61710031D01*
X153984000Y-61761040D01*
X156016000Y-61761040D01*
X156251317Y-61716762D01*
X156467441Y-61577690D01*
X156612431Y-61365490D01*
X156663440Y-61113600D01*
X156663440Y-59661362D01*
X157064802Y-59260000D01*
X167185198Y-59260000D01*
X170712599Y-62787401D01*
X170959161Y-62952148D01*
X171250000Y-63010000D01*
X176500000Y-63010000D01*
X176790839Y-62952148D01*
X177037401Y-62787401D01*
X177200000Y-62624802D01*
X177200000Y-70488477D01*
X177065162Y-70813201D01*
X177064838Y-71185167D01*
X177206883Y-71528943D01*
X177469673Y-71792192D01*
X177813201Y-71934838D01*
X178185167Y-71935162D01*
X178528943Y-71793117D01*
X178792192Y-71530327D01*
X178934838Y-71186799D01*
X178935162Y-70814833D01*
X178793117Y-70471057D01*
X178720000Y-70397812D01*
X178720000Y-56694648D01*
X179019670Y-56494415D01*
X179029243Y-56480087D01*
X179033238Y-56501317D01*
X179172310Y-56717441D01*
X179384510Y-56862431D01*
X179636400Y-56913440D01*
X179740000Y-56913440D01*
X179740000Y-74185198D01*
X177435198Y-76490000D01*
X166808937Y-76490000D01*
X166934838Y-76186799D01*
X166935162Y-75814833D01*
X166793117Y-75471057D01*
X166760000Y-75437882D01*
X166760000Y-73250000D01*
X166702148Y-72959161D01*
X166537401Y-72712599D01*
X164685122Y-70860320D01*
X164685162Y-70814833D01*
X164543117Y-70471057D01*
X164280327Y-70207808D01*
X163936799Y-70065162D01*
X163564833Y-70064838D01*
X163221057Y-70206883D01*
X162957808Y-70469673D01*
X162815162Y-70813201D01*
X162814838Y-71185167D01*
X162956883Y-71528943D01*
X163219673Y-71792192D01*
X163563201Y-71934838D01*
X163610077Y-71934879D01*
X165240000Y-73564802D01*
X165240000Y-75437537D01*
X165207808Y-75469673D01*
X165065162Y-75813201D01*
X165064838Y-76185167D01*
X165190792Y-76490000D01*
X162062463Y-76490000D01*
X162030327Y-76457808D01*
X161686799Y-76315162D01*
X161314833Y-76314838D01*
X160971057Y-76456883D01*
X160707808Y-76719673D01*
X160565162Y-77063201D01*
X160564838Y-77435167D01*
X160706883Y-77778943D01*
X160969673Y-78042192D01*
X161313201Y-78184838D01*
X161685167Y-78185162D01*
X162028943Y-78043117D01*
X162062118Y-78010000D01*
X177750000Y-78010000D01*
X178040839Y-77952148D01*
X178287401Y-77787401D01*
X181037401Y-75037401D01*
X181202148Y-74790840D01*
X181260000Y-74500000D01*
X181260000Y-61162747D01*
X181313201Y-61184838D01*
X181360077Y-61184879D01*
X181740000Y-61564802D01*
X181740000Y-85687537D01*
X181707808Y-85719673D01*
X181565162Y-86063201D01*
X181564838Y-86435167D01*
X181706883Y-86778943D01*
X181969673Y-87042192D01*
X182313201Y-87184838D01*
X182685167Y-87185162D01*
X183028943Y-87043117D01*
X183292192Y-86780327D01*
X183434838Y-86436799D01*
X183435162Y-86064833D01*
X183293117Y-85721057D01*
X183260000Y-85687882D01*
X183260000Y-65935167D01*
X183564838Y-65935167D01*
X183706883Y-66278943D01*
X183740000Y-66312118D01*
X183740000Y-85000000D01*
X183797852Y-85290839D01*
X183962599Y-85537401D01*
X185814856Y-87389658D01*
X185814838Y-87410167D01*
X185956883Y-87753943D01*
X186219673Y-88017192D01*
X186563201Y-88159838D01*
X186935167Y-88160162D01*
X187278943Y-88018117D01*
X187542192Y-87755327D01*
X187684838Y-87411799D01*
X187685162Y-87039833D01*
X187598896Y-86831052D01*
X188528047Y-86831052D01*
X188529876Y-87019648D01*
X188856388Y-87121837D01*
X189197151Y-87091297D01*
X189370124Y-87019648D01*
X189371953Y-86831052D01*
X190028047Y-86831052D01*
X190029876Y-87019648D01*
X190356388Y-87121837D01*
X190697151Y-87091297D01*
X190870124Y-87019648D01*
X190871953Y-86831052D01*
X190450000Y-86409099D01*
X190028047Y-86831052D01*
X189371953Y-86831052D01*
X188950000Y-86409099D01*
X188528047Y-86831052D01*
X187598896Y-86831052D01*
X187543117Y-86696057D01*
X187280327Y-86432808D01*
X186936799Y-86290162D01*
X186864901Y-86290099D01*
X186731190Y-86156388D01*
X188078163Y-86156388D01*
X188108703Y-86497151D01*
X188180352Y-86670124D01*
X188368948Y-86671953D01*
X188790901Y-86250000D01*
X189109099Y-86250000D01*
X189531052Y-86671953D01*
X189700000Y-86670315D01*
X189868948Y-86671953D01*
X190290901Y-86250000D01*
X190609099Y-86250000D01*
X191031052Y-86671953D01*
X191219648Y-86670124D01*
X191321837Y-86343612D01*
X191291297Y-86002849D01*
X191219648Y-85829876D01*
X191031052Y-85828047D01*
X190609099Y-86250000D01*
X190290901Y-86250000D01*
X189700000Y-85659099D01*
X189109099Y-86250000D01*
X188790901Y-86250000D01*
X188368948Y-85828047D01*
X188180352Y-85829876D01*
X188078163Y-86156388D01*
X186731190Y-86156388D01*
X185905854Y-85331052D01*
X188528047Y-85331052D01*
X188529685Y-85500000D01*
X188528047Y-85668948D01*
X188950000Y-86090901D01*
X189540901Y-85500000D01*
X189859099Y-85500000D01*
X190450000Y-86090901D01*
X190871953Y-85668948D01*
X190870315Y-85500000D01*
X190871953Y-85331052D01*
X190450000Y-84909099D01*
X189859099Y-85500000D01*
X189540901Y-85500000D01*
X188950000Y-84909099D01*
X188528047Y-85331052D01*
X185905854Y-85331052D01*
X185260000Y-84685198D01*
X185260000Y-84656388D01*
X188078163Y-84656388D01*
X188108703Y-84997151D01*
X188180352Y-85170124D01*
X188368948Y-85171953D01*
X188790901Y-84750000D01*
X189109099Y-84750000D01*
X189700000Y-85340901D01*
X190290901Y-84750000D01*
X190609099Y-84750000D01*
X191031052Y-85171953D01*
X191219648Y-85170124D01*
X191321837Y-84843612D01*
X191291297Y-84502849D01*
X191219648Y-84329876D01*
X191031052Y-84328047D01*
X190609099Y-84750000D01*
X190290901Y-84750000D01*
X189868948Y-84328047D01*
X189700000Y-84329685D01*
X189531052Y-84328047D01*
X189109099Y-84750000D01*
X188790901Y-84750000D01*
X188368948Y-84328047D01*
X188180352Y-84329876D01*
X188078163Y-84656388D01*
X185260000Y-84656388D01*
X185260000Y-84168948D01*
X188528047Y-84168948D01*
X188950000Y-84590901D01*
X189371953Y-84168948D01*
X190028047Y-84168948D01*
X190450000Y-84590901D01*
X190871953Y-84168948D01*
X190870124Y-83980352D01*
X190543612Y-83878163D01*
X190202849Y-83908703D01*
X190029876Y-83980352D01*
X190028047Y-84168948D01*
X189371953Y-84168948D01*
X189370124Y-83980352D01*
X189043612Y-83878163D01*
X188702849Y-83908703D01*
X188529876Y-83980352D01*
X188528047Y-84168948D01*
X185260000Y-84168948D01*
X185260000Y-66312463D01*
X185292192Y-66280327D01*
X185434838Y-65936799D01*
X185435162Y-65564833D01*
X185293117Y-65221057D01*
X185030327Y-64957808D01*
X184686799Y-64815162D01*
X184314833Y-64814838D01*
X183971057Y-64956883D01*
X183707808Y-65219673D01*
X183565162Y-65563201D01*
X183564838Y-65935167D01*
X183260000Y-65935167D01*
X183260000Y-64787175D01*
X187542430Y-64787175D01*
X187665565Y-65074788D01*
X188347734Y-65334707D01*
X189077443Y-65313786D01*
X189654435Y-65074788D01*
X189777570Y-64787175D01*
X192622430Y-64787175D01*
X192745565Y-65074788D01*
X193427734Y-65334707D01*
X194157443Y-65313786D01*
X194734435Y-65074788D01*
X194857570Y-64787175D01*
X193740000Y-63669605D01*
X192622430Y-64787175D01*
X189777570Y-64787175D01*
X188660000Y-63669605D01*
X187542430Y-64787175D01*
X183260000Y-64787175D01*
X183260000Y-63177734D01*
X186815293Y-63177734D01*
X186836214Y-63907443D01*
X187075212Y-64484435D01*
X187362825Y-64607570D01*
X188480395Y-63490000D01*
X187362825Y-62372430D01*
X187075212Y-62495565D01*
X186815293Y-63177734D01*
X183260000Y-63177734D01*
X183260000Y-61250000D01*
X183202148Y-60959161D01*
X183037401Y-60712599D01*
X182435122Y-60110320D01*
X182435162Y-60064833D01*
X182293117Y-59721057D01*
X182279260Y-59707175D01*
X187542430Y-59707175D01*
X187665565Y-59994788D01*
X188347734Y-60254707D01*
X189077443Y-60233786D01*
X189654435Y-59994788D01*
X189777569Y-59707177D01*
X189847932Y-59777540D01*
X189687633Y-59937559D01*
X189415311Y-60593384D01*
X189414691Y-61303501D01*
X189685868Y-61959800D01*
X189848088Y-62122304D01*
X189777569Y-62192823D01*
X189654435Y-61905212D01*
X188972266Y-61645293D01*
X188242557Y-61666214D01*
X187665565Y-61905212D01*
X187542430Y-62192825D01*
X188660000Y-63310395D01*
X188674143Y-63296253D01*
X188853748Y-63475858D01*
X188839605Y-63490000D01*
X189957175Y-64607570D01*
X190244788Y-64484435D01*
X190504707Y-63802266D01*
X190483786Y-63072557D01*
X190244788Y-62495565D01*
X189957177Y-62372431D01*
X190027540Y-62302068D01*
X190187559Y-62462367D01*
X190843384Y-62734689D01*
X191553501Y-62735309D01*
X192209800Y-62464132D01*
X192372304Y-62301912D01*
X192442823Y-62372431D01*
X192155212Y-62495565D01*
X191895293Y-63177734D01*
X191916214Y-63907443D01*
X192155212Y-64484435D01*
X192442825Y-64607570D01*
X193560395Y-63490000D01*
X193919605Y-63490000D01*
X195037175Y-64607570D01*
X195324788Y-64484435D01*
X195584707Y-63802266D01*
X195563786Y-63072557D01*
X195324788Y-62495565D01*
X195037175Y-62372430D01*
X193919605Y-63490000D01*
X193560395Y-63490000D01*
X193546253Y-63475858D01*
X193725858Y-63296253D01*
X193740000Y-63310395D01*
X194857570Y-62192825D01*
X194734435Y-61905212D01*
X194052266Y-61645293D01*
X193322557Y-61666214D01*
X192745565Y-61905212D01*
X192622431Y-62192823D01*
X192552068Y-62122460D01*
X192712367Y-61962441D01*
X192984689Y-61306616D01*
X192985309Y-60596499D01*
X192714132Y-59940200D01*
X192551912Y-59777696D01*
X192622431Y-59707177D01*
X192745565Y-59994788D01*
X193427734Y-60254707D01*
X194157443Y-60233786D01*
X194734435Y-59994788D01*
X194857570Y-59707175D01*
X193740000Y-58589605D01*
X193725858Y-58603748D01*
X193546253Y-58424143D01*
X193560395Y-58410000D01*
X193919605Y-58410000D01*
X195037175Y-59527570D01*
X195324788Y-59404435D01*
X195584707Y-58722266D01*
X195563786Y-57992557D01*
X195324788Y-57415565D01*
X195037175Y-57292430D01*
X193919605Y-58410000D01*
X193560395Y-58410000D01*
X192442825Y-57292430D01*
X192155212Y-57415565D01*
X191895293Y-58097734D01*
X191916214Y-58827443D01*
X192155212Y-59404435D01*
X192442823Y-59527569D01*
X192372460Y-59597932D01*
X192212441Y-59437633D01*
X191556616Y-59165311D01*
X190846499Y-59164691D01*
X190190200Y-59435868D01*
X190027696Y-59598088D01*
X189957177Y-59527569D01*
X190244788Y-59404435D01*
X190504707Y-58722266D01*
X190483786Y-57992557D01*
X190244788Y-57415565D01*
X189957175Y-57292430D01*
X188839605Y-58410000D01*
X188853748Y-58424143D01*
X188674143Y-58603748D01*
X188660000Y-58589605D01*
X187542430Y-59707175D01*
X182279260Y-59707175D01*
X182030327Y-59457808D01*
X181686799Y-59315162D01*
X181314833Y-59314838D01*
X181260000Y-59337494D01*
X181260000Y-58097734D01*
X186815293Y-58097734D01*
X186836214Y-58827443D01*
X187075212Y-59404435D01*
X187362825Y-59527570D01*
X188480395Y-58410000D01*
X187362825Y-57292430D01*
X187075212Y-57415565D01*
X186815293Y-58097734D01*
X181260000Y-58097734D01*
X181260000Y-57112825D01*
X187542430Y-57112825D01*
X188660000Y-58230395D01*
X189777570Y-57112825D01*
X192622430Y-57112825D01*
X193740000Y-58230395D01*
X194857570Y-57112825D01*
X194734435Y-56825212D01*
X194052266Y-56565293D01*
X193322557Y-56586214D01*
X192745565Y-56825212D01*
X192622430Y-57112825D01*
X189777570Y-57112825D01*
X189654435Y-56825212D01*
X188972266Y-56565293D01*
X188242557Y-56586214D01*
X187665565Y-56825212D01*
X187542430Y-57112825D01*
X181260000Y-57112825D01*
X181260000Y-56913440D01*
X181363600Y-56913440D01*
X181598917Y-56869162D01*
X181815041Y-56730090D01*
X181960031Y-56517890D01*
X182011040Y-56266000D01*
X182011040Y-54234000D01*
X181966762Y-53998683D01*
X181827690Y-53782559D01*
X181615490Y-53637569D01*
X181363600Y-53586560D01*
X179636400Y-53586560D01*
X179401083Y-53630838D01*
X179184959Y-53769910D01*
X179039969Y-53982110D01*
X179031600Y-54023439D01*
X179019670Y-54005585D01*
X178533489Y-53680729D01*
X177960000Y-53566655D01*
X177386511Y-53680729D01*
X176900330Y-54005585D01*
X176690000Y-54320366D01*
X176479670Y-54005585D01*
X175993489Y-53680729D01*
X175420000Y-53566655D01*
X174846511Y-53680729D01*
X174360330Y-54005585D01*
X174035474Y-54491766D01*
X173921400Y-55065255D01*
X173921400Y-55434745D01*
X174035474Y-56008234D01*
X174360330Y-56494415D01*
X174846511Y-56819271D01*
X175420000Y-56933345D01*
X175993489Y-56819271D01*
X176479670Y-56494415D01*
X176690000Y-56179634D01*
X176900330Y-56494415D01*
X177200000Y-56694648D01*
X177200000Y-60564956D01*
X177064833Y-60564838D01*
X176721057Y-60706883D01*
X176457808Y-60969673D01*
X176315162Y-61313201D01*
X176315121Y-61360077D01*
X176185198Y-61490000D01*
X172685009Y-61490000D01*
X172685162Y-61314833D01*
X172543117Y-60971057D01*
X172280327Y-60707808D01*
X171936799Y-60565162D01*
X171889923Y-60565121D01*
X168497401Y-57172599D01*
X168250839Y-57007852D01*
X167960000Y-56950000D01*
X156444648Y-56950000D01*
X156244415Y-56650330D01*
X155929634Y-56440000D01*
X156244415Y-56229670D01*
X156569271Y-55743489D01*
X156683345Y-55170000D01*
X156569271Y-54596511D01*
X156244415Y-54110330D01*
X155758234Y-53785474D01*
X155184745Y-53671400D01*
X154815255Y-53671400D01*
X154241766Y-53785474D01*
X153755585Y-54110330D01*
X153430729Y-54596511D01*
X153316655Y-55170000D01*
X151635000Y-55170000D01*
X151635000Y-51635000D01*
X198365000Y-51635000D01*
X198365000Y-113365000D01*
G36*
X148365000Y-64250000D02*
X148489457Y-64875687D01*
X148542783Y-64955495D01*
X148500171Y-64998033D01*
X148365154Y-65323190D01*
X148364847Y-65675265D01*
X148447413Y-65875089D01*
X148365154Y-66073190D01*
X148364847Y-66425265D01*
X148447413Y-66625089D01*
X148365154Y-66823190D01*
X148364847Y-67175265D01*
X148499296Y-67500657D01*
X148542897Y-67544334D01*
X148489457Y-67624313D01*
X148365000Y-68250000D01*
X148365000Y-96750000D01*
X148489457Y-97375687D01*
X148542783Y-97455495D01*
X148500171Y-97498033D01*
X148365154Y-97823190D01*
X148364847Y-98175265D01*
X148447413Y-98375089D01*
X148365154Y-98573190D01*
X148364847Y-98925265D01*
X148447413Y-99125089D01*
X148365154Y-99323190D01*
X148364847Y-99675265D01*
X148499296Y-100000657D01*
X148542897Y-100044334D01*
X148489457Y-100124313D01*
X148365000Y-100750000D01*
X148365000Y-113365000D01*
X137700000Y-113365000D01*
X137074313Y-113489457D01*
X136949514Y-113572845D01*
X136876967Y-113500171D01*
X136551810Y-113365154D01*
X136199735Y-113364847D01*
X135999911Y-113447413D01*
X135801810Y-113365154D01*
X135449735Y-113364847D01*
X135249911Y-113447413D01*
X135051810Y-113365154D01*
X134699735Y-113364847D01*
X134374343Y-113499296D01*
X134320642Y-113552904D01*
X134225687Y-113489457D01*
X133600000Y-113365000D01*
X113900000Y-113365000D01*
X113274313Y-113489457D01*
X113179508Y-113552804D01*
X113126967Y-113500171D01*
X112801810Y-113365154D01*
X112449735Y-113364847D01*
X112249911Y-113447413D01*
X112051810Y-113365154D01*
X111699735Y-113364847D01*
X111499911Y-113447413D01*
X111301810Y-113365154D01*
X110949735Y-113364847D01*
X110624343Y-113499296D01*
X110590690Y-113532890D01*
X110525687Y-113489457D01*
X109900000Y-113365000D01*
X101635000Y-113365000D01*
X101635000Y-110813893D01*
X134144725Y-110813893D01*
X134385519Y-111396657D01*
X134830997Y-111842914D01*
X135413341Y-112084724D01*
X136043893Y-112085275D01*
X136626657Y-111844481D01*
X136855186Y-111616350D01*
X137333255Y-111616350D01*
X137425792Y-111878019D01*
X138017398Y-112096188D01*
X138647461Y-112071352D01*
X139114208Y-111878019D01*
X139206745Y-111616350D01*
X138270000Y-110679605D01*
X137333255Y-111616350D01*
X136855186Y-111616350D01*
X137066116Y-111405789D01*
X137153650Y-111436745D01*
X138090395Y-110500000D01*
X138449605Y-110500000D01*
X139386350Y-111436745D01*
X139648019Y-111344208D01*
X139866188Y-110752602D01*
X139841352Y-110122539D01*
X139648019Y-109655792D01*
X139386350Y-109563255D01*
X138449605Y-110500000D01*
X138090395Y-110500000D01*
X137153650Y-109563255D01*
X137065561Y-109594407D01*
X136855172Y-109383650D01*
X137333255Y-109383650D01*
X138270000Y-110320395D01*
X139206745Y-109383650D01*
X139114208Y-109121981D01*
X138522602Y-108903812D01*
X137892539Y-108928648D01*
X137425792Y-109121981D01*
X137333255Y-109383650D01*
X136855172Y-109383650D01*
X136629003Y-109157086D01*
X136046659Y-108915276D01*
X135416107Y-108914725D01*
X134833343Y-109155519D01*
X134387086Y-109600997D01*
X134145276Y-110183341D01*
X134144725Y-110813893D01*
X101635000Y-110813893D01*
X101635000Y-105837175D01*
X137292430Y-105837175D01*
X137415565Y-106124788D01*
X138097734Y-106384707D01*
X138827443Y-106363786D01*
X139404435Y-106124788D01*
X139527570Y-105837175D01*
X142372430Y-105837175D01*
X142495565Y-106124788D01*
X143177734Y-106384707D01*
X143907443Y-106363786D01*
X144484435Y-106124788D01*
X144607570Y-105837175D01*
X143490000Y-104719605D01*
X142372430Y-105837175D01*
X139527570Y-105837175D01*
X138410000Y-104719605D01*
X137292430Y-105837175D01*
X101635000Y-105837175D01*
X101635000Y-104227734D01*
X136565293Y-104227734D01*
X136586214Y-104957443D01*
X136825212Y-105534435D01*
X137112825Y-105657570D01*
X138230395Y-104540000D01*
X137112825Y-103422430D01*
X136825212Y-103545565D01*
X136565293Y-104227734D01*
X101635000Y-104227734D01*
X101635000Y-100757175D01*
X137292430Y-100757175D01*
X137415565Y-101044788D01*
X138097734Y-101304707D01*
X138827443Y-101283786D01*
X139404435Y-101044788D01*
X139527569Y-100757177D01*
X139597932Y-100827540D01*
X139437633Y-100987559D01*
X139165311Y-101643384D01*
X139164691Y-102353501D01*
X139435868Y-103009800D01*
X139598088Y-103172304D01*
X139527569Y-103242823D01*
X139404435Y-102955212D01*
X138722266Y-102695293D01*
X137992557Y-102716214D01*
X137415565Y-102955212D01*
X137292430Y-103242825D01*
X138410000Y-104360395D01*
X138424143Y-104346253D01*
X138603748Y-104525858D01*
X138589605Y-104540000D01*
X139707175Y-105657570D01*
X139994788Y-105534435D01*
X140254707Y-104852266D01*
X140233786Y-104122557D01*
X139994788Y-103545565D01*
X139707177Y-103422431D01*
X139777540Y-103352068D01*
X139937559Y-103512367D01*
X140593384Y-103784689D01*
X141303501Y-103785309D01*
X141959800Y-103514132D01*
X142122304Y-103351912D01*
X142192823Y-103422431D01*
X141905212Y-103545565D01*
X141645293Y-104227734D01*
X141666214Y-104957443D01*
X141905212Y-105534435D01*
X142192825Y-105657570D01*
X143310395Y-104540000D01*
X143669605Y-104540000D01*
X144787175Y-105657570D01*
X145074788Y-105534435D01*
X145334707Y-104852266D01*
X145313786Y-104122557D01*
X145074788Y-103545565D01*
X144787175Y-103422430D01*
X143669605Y-104540000D01*
X143310395Y-104540000D01*
X143296253Y-104525858D01*
X143475858Y-104346253D01*
X143490000Y-104360395D01*
X144607570Y-103242825D01*
X144484435Y-102955212D01*
X143802266Y-102695293D01*
X143072557Y-102716214D01*
X142495565Y-102955212D01*
X142372431Y-103242823D01*
X142302068Y-103172460D01*
X142462367Y-103012441D01*
X142734689Y-102356616D01*
X142735309Y-101646499D01*
X142464132Y-100990200D01*
X142301912Y-100827696D01*
X142372431Y-100757177D01*
X142495565Y-101044788D01*
X143177734Y-101304707D01*
X143907443Y-101283786D01*
X144484435Y-101044788D01*
X144607570Y-100757175D01*
X143490000Y-99639605D01*
X143475858Y-99653748D01*
X143296253Y-99474143D01*
X143310395Y-99460000D01*
X143669605Y-99460000D01*
X144787175Y-100577570D01*
X145074788Y-100454435D01*
X145334707Y-99772266D01*
X145313786Y-99042557D01*
X145074788Y-98465565D01*
X144787175Y-98342430D01*
X143669605Y-99460000D01*
X143310395Y-99460000D01*
X142192825Y-98342430D01*
X141905212Y-98465565D01*
X141645293Y-99147734D01*
X141666214Y-99877443D01*
X141905212Y-100454435D01*
X142192823Y-100577569D01*
X142122460Y-100647932D01*
X141962441Y-100487633D01*
X141306616Y-100215311D01*
X140596499Y-100214691D01*
X139940200Y-100485868D01*
X139777696Y-100648088D01*
X139707177Y-100577569D01*
X139994788Y-100454435D01*
X140254707Y-99772266D01*
X140233786Y-99042557D01*
X139994788Y-98465565D01*
X139707175Y-98342430D01*
X138589605Y-99460000D01*
X138603748Y-99474143D01*
X138424143Y-99653748D01*
X138410000Y-99639605D01*
X137292430Y-100757175D01*
X101635000Y-100757175D01*
X101635000Y-99147734D01*
X136565293Y-99147734D01*
X136586214Y-99877443D01*
X136825212Y-100454435D01*
X137112825Y-100577570D01*
X138230395Y-99460000D01*
X137112825Y-98342430D01*
X136825212Y-98465565D01*
X136565293Y-99147734D01*
X101635000Y-99147734D01*
X101635000Y-98162825D01*
X137292430Y-98162825D01*
X138410000Y-99280395D01*
X139527570Y-98162825D01*
X142372430Y-98162825D01*
X143490000Y-99280395D01*
X144607570Y-98162825D01*
X144484435Y-97875212D01*
X143802266Y-97615293D01*
X143072557Y-97636214D01*
X142495565Y-97875212D01*
X142372430Y-98162825D01*
X139527570Y-98162825D01*
X139404435Y-97875212D01*
X138722266Y-97615293D01*
X137992557Y-97636214D01*
X137415565Y-97875212D01*
X137292430Y-98162825D01*
X101635000Y-98162825D01*
X101635000Y-84935167D01*
X125314838Y-84935167D01*
X125456883Y-85278943D01*
X125490000Y-85312118D01*
X125490000Y-90000000D01*
X125547852Y-90290839D01*
X125712599Y-90537401D01*
X129814878Y-94639680D01*
X129814838Y-94685167D01*
X129956883Y-95028943D01*
X130219673Y-95292192D01*
X130563201Y-95434838D01*
X130935167Y-95435162D01*
X131278943Y-95293117D01*
X131542192Y-95030327D01*
X131684838Y-94686799D01*
X131685162Y-94314833D01*
X131543117Y-93971057D01*
X131280327Y-93707808D01*
X130936799Y-93565162D01*
X130889923Y-93565121D01*
X127010000Y-89685198D01*
X127010000Y-85312463D01*
X127042192Y-85280327D01*
X127184838Y-84936799D01*
X127185162Y-84564833D01*
X127043117Y-84221057D01*
X126780327Y-83957808D01*
X126436799Y-83815162D01*
X126064833Y-83814838D01*
X125721057Y-83956883D01*
X125457808Y-84219673D01*
X125315162Y-84563201D01*
X125314838Y-84935167D01*
X101635000Y-84935167D01*
X101635000Y-80685167D01*
X129314838Y-80685167D01*
X129365000Y-80806569D01*
X129365000Y-84443178D01*
X129315162Y-84563201D01*
X129314838Y-84935167D01*
X129456883Y-85278943D01*
X129719673Y-85542192D01*
X130063201Y-85684838D01*
X130435167Y-85685162D01*
X130778943Y-85543117D01*
X131042192Y-85280327D01*
X131184838Y-84936799D01*
X131185162Y-84564833D01*
X131135000Y-84443431D01*
X131135000Y-80806822D01*
X131184838Y-80686799D01*
X131185162Y-80314833D01*
X131043117Y-79971057D01*
X130780327Y-79707808D01*
X130436799Y-79565162D01*
X130064833Y-79564838D01*
X129721057Y-79706883D01*
X129457808Y-79969673D01*
X129315162Y-80313201D01*
X129314838Y-80685167D01*
X101635000Y-80685167D01*
X101635000Y-71035750D01*
X103349000Y-71035750D01*
X103349000Y-71739909D01*
X103445673Y-71973298D01*
X103624301Y-72151927D01*
X103857690Y-72248600D01*
X104714250Y-72248600D01*
X104873000Y-72089850D01*
X104873000Y-70877000D01*
X105127000Y-70877000D01*
X105127000Y-72089850D01*
X105285750Y-72248600D01*
X106142310Y-72248600D01*
X106375699Y-72151927D01*
X106554327Y-71973298D01*
X106651000Y-71739909D01*
X106651000Y-71035750D01*
X106492250Y-70877000D01*
X105127000Y-70877000D01*
X104873000Y-70877000D01*
X103507750Y-70877000D01*
X103349000Y-71035750D01*
X101635000Y-71035750D01*
X101635000Y-65670000D01*
X103316655Y-65670000D01*
X103430729Y-66243489D01*
X103755585Y-66729670D01*
X104070366Y-66940000D01*
X103755585Y-67150330D01*
X103430729Y-67636511D01*
X103316655Y-68210000D01*
X103430729Y-68783489D01*
X103755585Y-69269670D01*
X103777780Y-69284500D01*
X103624301Y-69348073D01*
X103445673Y-69526702D01*
X103349000Y-69760091D01*
X103349000Y-70464250D01*
X103507750Y-70623000D01*
X104873000Y-70623000D01*
X104873000Y-70603000D01*
X105127000Y-70603000D01*
X105127000Y-70623000D01*
X106492250Y-70623000D01*
X106651000Y-70464250D01*
X106651000Y-69760091D01*
X106554327Y-69526702D01*
X106375699Y-69348073D01*
X106222220Y-69284500D01*
X106244415Y-69269670D01*
X106444648Y-68970000D01*
X113145198Y-68970000D01*
X115212599Y-71037401D01*
X115459161Y-71202148D01*
X115750000Y-71260000D01*
X119687537Y-71260000D01*
X119719673Y-71292192D01*
X120063201Y-71434838D01*
X120435167Y-71435162D01*
X120778943Y-71293117D01*
X121042192Y-71030327D01*
X121184838Y-70686799D01*
X121185162Y-70314833D01*
X121043117Y-69971057D01*
X120780327Y-69707808D01*
X120436799Y-69565162D01*
X120064833Y-69564838D01*
X119721057Y-69706883D01*
X119687882Y-69740000D01*
X116064802Y-69740000D01*
X113997401Y-67672599D01*
X113750839Y-67507852D01*
X113460000Y-67450000D01*
X112559999Y-67450000D01*
X112559999Y-67049999D01*
X112502147Y-66759160D01*
X112435080Y-66658787D01*
X112435162Y-66564833D01*
X112412506Y-66510000D01*
X122437537Y-66510000D01*
X122469673Y-66542192D01*
X122813201Y-66684838D01*
X123185167Y-66685162D01*
X123528943Y-66543117D01*
X123792192Y-66280327D01*
X123934838Y-65936799D01*
X123935162Y-65564833D01*
X123793117Y-65221057D01*
X123530327Y-64957808D01*
X123186799Y-64815162D01*
X122814833Y-64814838D01*
X122471057Y-64956883D01*
X122437882Y-64990000D01*
X106498103Y-64990000D01*
X106244415Y-64610330D01*
X105758234Y-64285474D01*
X105184745Y-64171400D01*
X104815255Y-64171400D01*
X104241766Y-64285474D01*
X103755585Y-64610330D01*
X103430729Y-65096511D01*
X103316655Y-65670000D01*
X101635000Y-65670000D01*
X101635000Y-55170000D01*
X103316655Y-55170000D01*
X103430729Y-55743489D01*
X103755585Y-56229670D01*
X104070366Y-56440000D01*
X103755585Y-56650330D01*
X103430729Y-57136511D01*
X103316655Y-57710000D01*
X103430729Y-58283489D01*
X103755585Y-58769670D01*
X103769913Y-58779243D01*
X103748683Y-58783238D01*
X103532559Y-58922310D01*
X103387569Y-59134510D01*
X103336560Y-59386400D01*
X103336560Y-61113600D01*
X103380838Y-61348917D01*
X103519910Y-61565041D01*
X103732110Y-61710031D01*
X103984000Y-61761040D01*
X106016000Y-61761040D01*
X106251317Y-61716762D01*
X106467441Y-61577690D01*
X106612431Y-61365490D01*
X106663440Y-61113600D01*
X106663440Y-59661362D01*
X107064802Y-59260000D01*
X117185198Y-59260000D01*
X120712599Y-62787401D01*
X120959161Y-62952148D01*
X121250000Y-63010000D01*
X126500000Y-63010000D01*
X126790839Y-62952148D01*
X127037401Y-62787401D01*
X127200000Y-62624802D01*
X127200000Y-70488477D01*
X127065162Y-70813201D01*
X127064838Y-71185167D01*
X127206883Y-71528943D01*
X127469673Y-71792192D01*
X127813201Y-71934838D01*
X128185167Y-71935162D01*
X128528943Y-71793117D01*
X128792192Y-71530327D01*
X128934838Y-71186799D01*
X128935162Y-70814833D01*
X128793117Y-70471057D01*
X128720000Y-70397812D01*
X128720000Y-56694648D01*
X129019670Y-56494415D01*
X129029243Y-56480087D01*
X129033238Y-56501317D01*
X129172310Y-56717441D01*
X129384510Y-56862431D01*
X129636400Y-56913440D01*
X129740000Y-56913440D01*
X129740000Y-74185198D01*
X127435198Y-76490000D01*
X116808937Y-76490000D01*
X116934838Y-76186799D01*
X116935162Y-75814833D01*
X116793117Y-75471057D01*
X116760000Y-75437882D01*
X116760000Y-73250000D01*
X116702148Y-72959161D01*
X116537401Y-72712599D01*
X114685122Y-70860320D01*
X114685162Y-70814833D01*
X114543117Y-70471057D01*
X114280327Y-70207808D01*
X113936799Y-70065162D01*
X113564833Y-70064838D01*
X113221057Y-70206883D01*
X112957808Y-70469673D01*
X112815162Y-70813201D01*
X112814838Y-71185167D01*
X112956883Y-71528943D01*
X113219673Y-71792192D01*
X113563201Y-71934838D01*
X113610077Y-71934879D01*
X115240000Y-73564802D01*
X115240000Y-75437537D01*
X115207808Y-75469673D01*
X115065162Y-75813201D01*
X115064838Y-76185167D01*
X115190792Y-76490000D01*
X112062463Y-76490000D01*
X112030327Y-76457808D01*
X111686799Y-76315162D01*
X111314833Y-76314838D01*
X110971057Y-76456883D01*
X110707808Y-76719673D01*
X110565162Y-77063201D01*
X110564838Y-77435167D01*
X110706883Y-77778943D01*
X110969673Y-78042192D01*
X111313201Y-78184838D01*
X111685167Y-78185162D01*
X112028943Y-78043117D01*
X112062118Y-78010000D01*
X127750000Y-78010000D01*
X128040839Y-77952148D01*
X128287401Y-77787401D01*
X131037401Y-75037401D01*
X131202148Y-74790840D01*
X131260000Y-74500000D01*
X131260000Y-61162747D01*
X131313201Y-61184838D01*
X131360077Y-61184879D01*
X131740000Y-61564802D01*
X131740000Y-85687537D01*
X131707808Y-85719673D01*
X131565162Y-86063201D01*
X131564838Y-86435167D01*
X131706883Y-86778943D01*
X131969673Y-87042192D01*
X132313201Y-87184838D01*
X132685167Y-87185162D01*
X133028943Y-87043117D01*
X133292192Y-86780327D01*
X133434838Y-86436799D01*
X133435162Y-86064833D01*
X133293117Y-85721057D01*
X133260000Y-85687882D01*
X133260000Y-65935167D01*
X133564838Y-65935167D01*
X133706883Y-66278943D01*
X133740000Y-66312118D01*
X133740000Y-85000000D01*
X133797852Y-85290839D01*
X133962599Y-85537401D01*
X135814856Y-87389658D01*
X135814838Y-87410167D01*
X135956883Y-87753943D01*
X136219673Y-88017192D01*
X136563201Y-88159838D01*
X136935167Y-88160162D01*
X137278943Y-88018117D01*
X137542192Y-87755327D01*
X137684838Y-87411799D01*
X137685162Y-87039833D01*
X137598896Y-86831052D01*
X138528047Y-86831052D01*
X138529876Y-87019648D01*
X138856388Y-87121837D01*
X139197151Y-87091297D01*
X139370124Y-87019648D01*
X139371953Y-86831052D01*
X140028047Y-86831052D01*
X140029876Y-87019648D01*
X140356388Y-87121837D01*
X140697151Y-87091297D01*
X140870124Y-87019648D01*
X140871953Y-86831052D01*
X140450000Y-86409099D01*
X140028047Y-86831052D01*
X139371953Y-86831052D01*
X138950000Y-86409099D01*
X138528047Y-86831052D01*
X137598896Y-86831052D01*
X137543117Y-86696057D01*
X137280327Y-86432808D01*
X136936799Y-86290162D01*
X136864901Y-86290099D01*
X136731190Y-86156388D01*
X138078163Y-86156388D01*
X138108703Y-86497151D01*
X138180352Y-86670124D01*
X138368948Y-86671953D01*
X138790901Y-86250000D01*
X139109099Y-86250000D01*
X139531052Y-86671953D01*
X139700000Y-86670315D01*
X139868948Y-86671953D01*
X140290901Y-86250000D01*
X140609099Y-86250000D01*
X141031052Y-86671953D01*
X141219648Y-86670124D01*
X141321837Y-86343612D01*
X141291297Y-86002849D01*
X141219648Y-85829876D01*
X141031052Y-85828047D01*
X140609099Y-86250000D01*
X140290901Y-86250000D01*
X139700000Y-85659099D01*
X139109099Y-86250000D01*
X138790901Y-86250000D01*
X138368948Y-85828047D01*
X138180352Y-85829876D01*
X138078163Y-86156388D01*
X136731190Y-86156388D01*
X135905854Y-85331052D01*
X138528047Y-85331052D01*
X138529685Y-85500000D01*
X138528047Y-85668948D01*
X138950000Y-86090901D01*
X139540901Y-85500000D01*
X139859099Y-85500000D01*
X140450000Y-86090901D01*
X140871953Y-85668948D01*
X140870315Y-85500000D01*
X140871953Y-85331052D01*
X140450000Y-84909099D01*
X139859099Y-85500000D01*
X139540901Y-85500000D01*
X138950000Y-84909099D01*
X138528047Y-85331052D01*
X135905854Y-85331052D01*
X135260000Y-84685198D01*
X135260000Y-84656388D01*
X138078163Y-84656388D01*
X138108703Y-84997151D01*
X138180352Y-85170124D01*
X138368948Y-85171953D01*
X138790901Y-84750000D01*
X139109099Y-84750000D01*
X139700000Y-85340901D01*
X140290901Y-84750000D01*
X140609099Y-84750000D01*
X141031052Y-85171953D01*
X141219648Y-85170124D01*
X141321837Y-84843612D01*
X141291297Y-84502849D01*
X141219648Y-84329876D01*
X141031052Y-84328047D01*
X140609099Y-84750000D01*
X140290901Y-84750000D01*
X139868948Y-84328047D01*
X139700000Y-84329685D01*
X139531052Y-84328047D01*
X139109099Y-84750000D01*
X138790901Y-84750000D01*
X138368948Y-84328047D01*
X138180352Y-84329876D01*
X138078163Y-84656388D01*
X135260000Y-84656388D01*
X135260000Y-84168948D01*
X138528047Y-84168948D01*
X138950000Y-84590901D01*
X139371953Y-84168948D01*
X140028047Y-84168948D01*
X140450000Y-84590901D01*
X140871953Y-84168948D01*
X140870124Y-83980352D01*
X140543612Y-83878163D01*
X140202849Y-83908703D01*
X140029876Y-83980352D01*
X140028047Y-84168948D01*
X139371953Y-84168948D01*
X139370124Y-83980352D01*
X139043612Y-83878163D01*
X138702849Y-83908703D01*
X138529876Y-83980352D01*
X138528047Y-84168948D01*
X135260000Y-84168948D01*
X135260000Y-66312463D01*
X135292192Y-66280327D01*
X135434838Y-65936799D01*
X135435162Y-65564833D01*
X135293117Y-65221057D01*
X135030327Y-64957808D01*
X134686799Y-64815162D01*
X134314833Y-64814838D01*
X133971057Y-64956883D01*
X133707808Y-65219673D01*
X133565162Y-65563201D01*
X133564838Y-65935167D01*
X133260000Y-65935167D01*
X133260000Y-64787175D01*
X137542430Y-64787175D01*
X137665565Y-65074788D01*
X138347734Y-65334707D01*
X139077443Y-65313786D01*
X139654435Y-65074788D01*
X139777570Y-64787175D01*
X142622430Y-64787175D01*
X142745565Y-65074788D01*
X143427734Y-65334707D01*
X144157443Y-65313786D01*
X144734435Y-65074788D01*
X144857570Y-64787175D01*
X143740000Y-63669605D01*
X142622430Y-64787175D01*
X139777570Y-64787175D01*
X138660000Y-63669605D01*
X137542430Y-64787175D01*
X133260000Y-64787175D01*
X133260000Y-63177734D01*
X136815293Y-63177734D01*
X136836214Y-63907443D01*
X137075212Y-64484435D01*
X137362825Y-64607570D01*
X138480395Y-63490000D01*
X137362825Y-62372430D01*
X137075212Y-62495565D01*
X136815293Y-63177734D01*
X133260000Y-63177734D01*
X133260000Y-61250000D01*
X133202148Y-60959161D01*
X133037401Y-60712599D01*
X132435122Y-60110320D01*
X132435162Y-60064833D01*
X132293117Y-59721057D01*
X132279260Y-59707175D01*
X137542430Y-59707175D01*
X137665565Y-59994788D01*
X138347734Y-60254707D01*
X139077443Y-60233786D01*
X139654435Y-59994788D01*
X139777569Y-59707177D01*
X139847932Y-59777540D01*
X139687633Y-59937559D01*
X139415311Y-60593384D01*
X139414691Y-61303501D01*
X139685868Y-61959800D01*
X139848088Y-62122304D01*
X139777569Y-62192823D01*
X139654435Y-61905212D01*
X138972266Y-61645293D01*
X138242557Y-61666214D01*
X137665565Y-61905212D01*
X137542430Y-62192825D01*
X138660000Y-63310395D01*
X138674143Y-63296253D01*
X138853748Y-63475858D01*
X138839605Y-63490000D01*
X139957175Y-64607570D01*
X140244788Y-64484435D01*
X140504707Y-63802266D01*
X140483786Y-63072557D01*
X140244788Y-62495565D01*
X139957177Y-62372431D01*
X140027540Y-62302068D01*
X140187559Y-62462367D01*
X140843384Y-62734689D01*
X141553501Y-62735309D01*
X142209800Y-62464132D01*
X142372304Y-62301912D01*
X142442823Y-62372431D01*
X142155212Y-62495565D01*
X141895293Y-63177734D01*
X141916214Y-63907443D01*
X142155212Y-64484435D01*
X142442825Y-64607570D01*
X143560395Y-63490000D01*
X143919605Y-63490000D01*
X145037175Y-64607570D01*
X145324788Y-64484435D01*
X145584707Y-63802266D01*
X145563786Y-63072557D01*
X145324788Y-62495565D01*
X145037175Y-62372430D01*
X143919605Y-63490000D01*
X143560395Y-63490000D01*
X143546253Y-63475858D01*
X143725858Y-63296253D01*
X143740000Y-63310395D01*
X144857570Y-62192825D01*
X144734435Y-61905212D01*
X144052266Y-61645293D01*
X143322557Y-61666214D01*
X142745565Y-61905212D01*
X142622431Y-62192823D01*
X142552068Y-62122460D01*
X142712367Y-61962441D01*
X142984689Y-61306616D01*
X142985309Y-60596499D01*
X142714132Y-59940200D01*
X142551912Y-59777696D01*
X142622431Y-59707177D01*
X142745565Y-59994788D01*
X143427734Y-60254707D01*
X144157443Y-60233786D01*
X144734435Y-59994788D01*
X144857570Y-59707175D01*
X143740000Y-58589605D01*
X143725858Y-58603748D01*
X143546253Y-58424143D01*
X143560395Y-58410000D01*
X143919605Y-58410000D01*
X145037175Y-59527570D01*
X145324788Y-59404435D01*
X145584707Y-58722266D01*
X145563786Y-57992557D01*
X145324788Y-57415565D01*
X145037175Y-57292430D01*
X143919605Y-58410000D01*
X143560395Y-58410000D01*
X142442825Y-57292430D01*
X142155212Y-57415565D01*
X141895293Y-58097734D01*
X141916214Y-58827443D01*
X142155212Y-59404435D01*
X142442823Y-59527569D01*
X142372460Y-59597932D01*
X142212441Y-59437633D01*
X141556616Y-59165311D01*
X140846499Y-59164691D01*
X140190200Y-59435868D01*
X140027696Y-59598088D01*
X139957177Y-59527569D01*
X140244788Y-59404435D01*
X140504707Y-58722266D01*
X140483786Y-57992557D01*
X140244788Y-57415565D01*
X139957175Y-57292430D01*
X138839605Y-58410000D01*
X138853748Y-58424143D01*
X138674143Y-58603748D01*
X138660000Y-58589605D01*
X137542430Y-59707175D01*
X132279260Y-59707175D01*
X132030327Y-59457808D01*
X131686799Y-59315162D01*
X131314833Y-59314838D01*
X131260000Y-59337494D01*
X131260000Y-58097734D01*
X136815293Y-58097734D01*
X136836214Y-58827443D01*
X137075212Y-59404435D01*
X137362825Y-59527570D01*
X138480395Y-58410000D01*
X137362825Y-57292430D01*
X137075212Y-57415565D01*
X136815293Y-58097734D01*
X131260000Y-58097734D01*
X131260000Y-57112825D01*
X137542430Y-57112825D01*
X138660000Y-58230395D01*
X139777570Y-57112825D01*
X142622430Y-57112825D01*
X143740000Y-58230395D01*
X144857570Y-57112825D01*
X144734435Y-56825212D01*
X144052266Y-56565293D01*
X143322557Y-56586214D01*
X142745565Y-56825212D01*
X142622430Y-57112825D01*
X139777570Y-57112825D01*
X139654435Y-56825212D01*
X138972266Y-56565293D01*
X138242557Y-56586214D01*
X137665565Y-56825212D01*
X137542430Y-57112825D01*
X131260000Y-57112825D01*
X131260000Y-56913440D01*
X131363600Y-56913440D01*
X131598917Y-56869162D01*
X131815041Y-56730090D01*
X131960031Y-56517890D01*
X132011040Y-56266000D01*
X132011040Y-54234000D01*
X131966762Y-53998683D01*
X131827690Y-53782559D01*
X131615490Y-53637569D01*
X131363600Y-53586560D01*
X129636400Y-53586560D01*
X129401083Y-53630838D01*
X129184959Y-53769910D01*
X129039969Y-53982110D01*
X129031600Y-54023439D01*
X129019670Y-54005585D01*
X128533489Y-53680729D01*
X127960000Y-53566655D01*
X127386511Y-53680729D01*
X126900330Y-54005585D01*
X126690000Y-54320366D01*
X126479670Y-54005585D01*
X125993489Y-53680729D01*
X125420000Y-53566655D01*
X124846511Y-53680729D01*
X124360330Y-54005585D01*
X124035474Y-54491766D01*
X123921400Y-55065255D01*
X123921400Y-55434745D01*
X124035474Y-56008234D01*
X124360330Y-56494415D01*
X124846511Y-56819271D01*
X125420000Y-56933345D01*
X125993489Y-56819271D01*
X126479670Y-56494415D01*
X126690000Y-56179634D01*
X126900330Y-56494415D01*
X127200000Y-56694648D01*
X127200000Y-60564956D01*
X127064833Y-60564838D01*
X126721057Y-60706883D01*
X126457808Y-60969673D01*
X126315162Y-61313201D01*
X126315121Y-61360077D01*
X126185198Y-61490000D01*
X122685009Y-61490000D01*
X122685162Y-61314833D01*
X122543117Y-60971057D01*
X122280327Y-60707808D01*
X121936799Y-60565162D01*
X121889923Y-60565121D01*
X118497401Y-57172599D01*
X118250839Y-57007852D01*
X117960000Y-56950000D01*
X106444648Y-56950000D01*
X106244415Y-56650330D01*
X105929634Y-56440000D01*
X106244415Y-56229670D01*
X106569271Y-55743489D01*
X106683345Y-55170000D01*
X106569271Y-54596511D01*
X106244415Y-54110330D01*
X105758234Y-53785474D01*
X105184745Y-53671400D01*
X104815255Y-53671400D01*
X104241766Y-53785474D01*
X103755585Y-54110330D01*
X103430729Y-54596511D01*
X103316655Y-55170000D01*
X101635000Y-55170000D01*
X101635000Y-51635000D01*
X148365000Y-51635000D01*
X148365000Y-64250000D01*
X148365000Y-64250000D01*
G37*
X148365000Y-64250000D02*
X148489457Y-64875687D01*
X148542783Y-64955495D01*
X148500171Y-64998033D01*
X148365154Y-65323190D01*
X148364847Y-65675265D01*
X148447413Y-65875089D01*
X148365154Y-66073190D01*
X148364847Y-66425265D01*
X148447413Y-66625089D01*
X148365154Y-66823190D01*
X148364847Y-67175265D01*
X148499296Y-67500657D01*
X148542897Y-67544334D01*
X148489457Y-67624313D01*
X148365000Y-68250000D01*
X148365000Y-96750000D01*
X148489457Y-97375687D01*
X148542783Y-97455495D01*
X148500171Y-97498033D01*
X148365154Y-97823190D01*
X148364847Y-98175265D01*
X148447413Y-98375089D01*
X148365154Y-98573190D01*
X148364847Y-98925265D01*
X148447413Y-99125089D01*
X148365154Y-99323190D01*
X148364847Y-99675265D01*
X148499296Y-100000657D01*
X148542897Y-100044334D01*
X148489457Y-100124313D01*
X148365000Y-100750000D01*
X148365000Y-113365000D01*
X137700000Y-113365000D01*
X137074313Y-113489457D01*
X136949514Y-113572845D01*
X136876967Y-113500171D01*
X136551810Y-113365154D01*
X136199735Y-113364847D01*
X135999911Y-113447413D01*
X135801810Y-113365154D01*
X135449735Y-113364847D01*
X135249911Y-113447413D01*
X135051810Y-113365154D01*
X134699735Y-113364847D01*
X134374343Y-113499296D01*
X134320642Y-113552904D01*
X134225687Y-113489457D01*
X133600000Y-113365000D01*
X113900000Y-113365000D01*
X113274313Y-113489457D01*
X113179508Y-113552804D01*
X113126967Y-113500171D01*
X112801810Y-113365154D01*
X112449735Y-113364847D01*
X112249911Y-113447413D01*
X112051810Y-113365154D01*
X111699735Y-113364847D01*
X111499911Y-113447413D01*
X111301810Y-113365154D01*
X110949735Y-113364847D01*
X110624343Y-113499296D01*
X110590690Y-113532890D01*
X110525687Y-113489457D01*
X109900000Y-113365000D01*
X101635000Y-113365000D01*
X101635000Y-110813893D01*
X134144725Y-110813893D01*
X134385519Y-111396657D01*
X134830997Y-111842914D01*
X135413341Y-112084724D01*
X136043893Y-112085275D01*
X136626657Y-111844481D01*
X136855186Y-111616350D01*
X137333255Y-111616350D01*
X137425792Y-111878019D01*
X138017398Y-112096188D01*
X138647461Y-112071352D01*
X139114208Y-111878019D01*
X139206745Y-111616350D01*
X138270000Y-110679605D01*
X137333255Y-111616350D01*
X136855186Y-111616350D01*
X137066116Y-111405789D01*
X137153650Y-111436745D01*
X138090395Y-110500000D01*
X138449605Y-110500000D01*
X139386350Y-111436745D01*
X139648019Y-111344208D01*
X139866188Y-110752602D01*
X139841352Y-110122539D01*
X139648019Y-109655792D01*
X139386350Y-109563255D01*
X138449605Y-110500000D01*
X138090395Y-110500000D01*
X137153650Y-109563255D01*
X137065561Y-109594407D01*
X136855172Y-109383650D01*
X137333255Y-109383650D01*
X138270000Y-110320395D01*
X139206745Y-109383650D01*
X139114208Y-109121981D01*
X138522602Y-108903812D01*
X137892539Y-108928648D01*
X137425792Y-109121981D01*
X137333255Y-109383650D01*
X136855172Y-109383650D01*
X136629003Y-109157086D01*
X136046659Y-108915276D01*
X135416107Y-108914725D01*
X134833343Y-109155519D01*
X134387086Y-109600997D01*
X134145276Y-110183341D01*
X134144725Y-110813893D01*
X101635000Y-110813893D01*
X101635000Y-105837175D01*
X137292430Y-105837175D01*
X137415565Y-106124788D01*
X138097734Y-106384707D01*
X138827443Y-106363786D01*
X139404435Y-106124788D01*
X139527570Y-105837175D01*
X142372430Y-105837175D01*
X142495565Y-106124788D01*
X143177734Y-106384707D01*
X143907443Y-106363786D01*
X144484435Y-106124788D01*
X144607570Y-105837175D01*
X143490000Y-104719605D01*
X142372430Y-105837175D01*
X139527570Y-105837175D01*
X138410000Y-104719605D01*
X137292430Y-105837175D01*
X101635000Y-105837175D01*
X101635000Y-104227734D01*
X136565293Y-104227734D01*
X136586214Y-104957443D01*
X136825212Y-105534435D01*
X137112825Y-105657570D01*
X138230395Y-104540000D01*
X137112825Y-103422430D01*
X136825212Y-103545565D01*
X136565293Y-104227734D01*
X101635000Y-104227734D01*
X101635000Y-100757175D01*
X137292430Y-100757175D01*
X137415565Y-101044788D01*
X138097734Y-101304707D01*
X138827443Y-101283786D01*
X139404435Y-101044788D01*
X139527569Y-100757177D01*
X139597932Y-100827540D01*
X139437633Y-100987559D01*
X139165311Y-101643384D01*
X139164691Y-102353501D01*
X139435868Y-103009800D01*
X139598088Y-103172304D01*
X139527569Y-103242823D01*
X139404435Y-102955212D01*
X138722266Y-102695293D01*
X137992557Y-102716214D01*
X137415565Y-102955212D01*
X137292430Y-103242825D01*
X138410000Y-104360395D01*
X138424143Y-104346253D01*
X138603748Y-104525858D01*
X138589605Y-104540000D01*
X139707175Y-105657570D01*
X139994788Y-105534435D01*
X140254707Y-104852266D01*
X140233786Y-104122557D01*
X139994788Y-103545565D01*
X139707177Y-103422431D01*
X139777540Y-103352068D01*
X139937559Y-103512367D01*
X140593384Y-103784689D01*
X141303501Y-103785309D01*
X141959800Y-103514132D01*
X142122304Y-103351912D01*
X142192823Y-103422431D01*
X141905212Y-103545565D01*
X141645293Y-104227734D01*
X141666214Y-104957443D01*
X141905212Y-105534435D01*
X142192825Y-105657570D01*
X143310395Y-104540000D01*
X143669605Y-104540000D01*
X144787175Y-105657570D01*
X145074788Y-105534435D01*
X145334707Y-104852266D01*
X145313786Y-104122557D01*
X145074788Y-103545565D01*
X144787175Y-103422430D01*
X143669605Y-104540000D01*
X143310395Y-104540000D01*
X143296253Y-104525858D01*
X143475858Y-104346253D01*
X143490000Y-104360395D01*
X144607570Y-103242825D01*
X144484435Y-102955212D01*
X143802266Y-102695293D01*
X143072557Y-102716214D01*
X142495565Y-102955212D01*
X142372431Y-103242823D01*
X142302068Y-103172460D01*
X142462367Y-103012441D01*
X142734689Y-102356616D01*
X142735309Y-101646499D01*
X142464132Y-100990200D01*
X142301912Y-100827696D01*
X142372431Y-100757177D01*
X142495565Y-101044788D01*
X143177734Y-101304707D01*
X143907443Y-101283786D01*
X144484435Y-101044788D01*
X144607570Y-100757175D01*
X143490000Y-99639605D01*
X143475858Y-99653748D01*
X143296253Y-99474143D01*
X143310395Y-99460000D01*
X143669605Y-99460000D01*
X144787175Y-100577570D01*
X145074788Y-100454435D01*
X145334707Y-99772266D01*
X145313786Y-99042557D01*
X145074788Y-98465565D01*
X144787175Y-98342430D01*
X143669605Y-99460000D01*
X143310395Y-99460000D01*
X142192825Y-98342430D01*
X141905212Y-98465565D01*
X141645293Y-99147734D01*
X141666214Y-99877443D01*
X141905212Y-100454435D01*
X142192823Y-100577569D01*
X142122460Y-100647932D01*
X141962441Y-100487633D01*
X141306616Y-100215311D01*
X140596499Y-100214691D01*
X139940200Y-100485868D01*
X139777696Y-100648088D01*
X139707177Y-100577569D01*
X139994788Y-100454435D01*
X140254707Y-99772266D01*
X140233786Y-99042557D01*
X139994788Y-98465565D01*
X139707175Y-98342430D01*
X138589605Y-99460000D01*
X138603748Y-99474143D01*
X138424143Y-99653748D01*
X138410000Y-99639605D01*
X137292430Y-100757175D01*
X101635000Y-100757175D01*
X101635000Y-99147734D01*
X136565293Y-99147734D01*
X136586214Y-99877443D01*
X136825212Y-100454435D01*
X137112825Y-100577570D01*
X138230395Y-99460000D01*
X137112825Y-98342430D01*
X136825212Y-98465565D01*
X136565293Y-99147734D01*
X101635000Y-99147734D01*
X101635000Y-98162825D01*
X137292430Y-98162825D01*
X138410000Y-99280395D01*
X139527570Y-98162825D01*
X142372430Y-98162825D01*
X143490000Y-99280395D01*
X144607570Y-98162825D01*
X144484435Y-97875212D01*
X143802266Y-97615293D01*
X143072557Y-97636214D01*
X142495565Y-97875212D01*
X142372430Y-98162825D01*
X139527570Y-98162825D01*
X139404435Y-97875212D01*
X138722266Y-97615293D01*
X137992557Y-97636214D01*
X137415565Y-97875212D01*
X137292430Y-98162825D01*
X101635000Y-98162825D01*
X101635000Y-84935167D01*
X125314838Y-84935167D01*
X125456883Y-85278943D01*
X125490000Y-85312118D01*
X125490000Y-90000000D01*
X125547852Y-90290839D01*
X125712599Y-90537401D01*
X129814878Y-94639680D01*
X129814838Y-94685167D01*
X129956883Y-95028943D01*
X130219673Y-95292192D01*
X130563201Y-95434838D01*
X130935167Y-95435162D01*
X131278943Y-95293117D01*
X131542192Y-95030327D01*
X131684838Y-94686799D01*
X131685162Y-94314833D01*
X131543117Y-93971057D01*
X131280327Y-93707808D01*
X130936799Y-93565162D01*
X130889923Y-93565121D01*
X127010000Y-89685198D01*
X127010000Y-85312463D01*
X127042192Y-85280327D01*
X127184838Y-84936799D01*
X127185162Y-84564833D01*
X127043117Y-84221057D01*
X126780327Y-83957808D01*
X126436799Y-83815162D01*
X126064833Y-83814838D01*
X125721057Y-83956883D01*
X125457808Y-84219673D01*
X125315162Y-84563201D01*
X125314838Y-84935167D01*
X101635000Y-84935167D01*
X101635000Y-80685167D01*
X129314838Y-80685167D01*
X129365000Y-80806569D01*
X129365000Y-84443178D01*
X129315162Y-84563201D01*
X129314838Y-84935167D01*
X129456883Y-85278943D01*
X129719673Y-85542192D01*
X130063201Y-85684838D01*
X130435167Y-85685162D01*
X130778943Y-85543117D01*
X131042192Y-85280327D01*
X131184838Y-84936799D01*
X131185162Y-84564833D01*
X131135000Y-84443431D01*
X131135000Y-80806822D01*
X131184838Y-80686799D01*
X131185162Y-80314833D01*
X131043117Y-79971057D01*
X130780327Y-79707808D01*
X130436799Y-79565162D01*
X130064833Y-79564838D01*
X129721057Y-79706883D01*
X129457808Y-79969673D01*
X129315162Y-80313201D01*
X129314838Y-80685167D01*
X101635000Y-80685167D01*
X101635000Y-71035750D01*
X103349000Y-71035750D01*
X103349000Y-71739909D01*
X103445673Y-71973298D01*
X103624301Y-72151927D01*
X103857690Y-72248600D01*
X104714250Y-72248600D01*
X104873000Y-72089850D01*
X104873000Y-70877000D01*
X105127000Y-70877000D01*
X105127000Y-72089850D01*
X105285750Y-72248600D01*
X106142310Y-72248600D01*
X106375699Y-72151927D01*
X106554327Y-71973298D01*
X106651000Y-71739909D01*
X106651000Y-71035750D01*
X106492250Y-70877000D01*
X105127000Y-70877000D01*
X104873000Y-70877000D01*
X103507750Y-70877000D01*
X103349000Y-71035750D01*
X101635000Y-71035750D01*
X101635000Y-65670000D01*
X103316655Y-65670000D01*
X103430729Y-66243489D01*
X103755585Y-66729670D01*
X104070366Y-66940000D01*
X103755585Y-67150330D01*
X103430729Y-67636511D01*
X103316655Y-68210000D01*
X103430729Y-68783489D01*
X103755585Y-69269670D01*
X103777780Y-69284500D01*
X103624301Y-69348073D01*
X103445673Y-69526702D01*
X103349000Y-69760091D01*
X103349000Y-70464250D01*
X103507750Y-70623000D01*
X104873000Y-70623000D01*
X104873000Y-70603000D01*
X105127000Y-70603000D01*
X105127000Y-70623000D01*
X106492250Y-70623000D01*
X106651000Y-70464250D01*
X106651000Y-69760091D01*
X106554327Y-69526702D01*
X106375699Y-69348073D01*
X106222220Y-69284500D01*
X106244415Y-69269670D01*
X106444648Y-68970000D01*
X113145198Y-68970000D01*
X115212599Y-71037401D01*
X115459161Y-71202148D01*
X115750000Y-71260000D01*
X119687537Y-71260000D01*
X119719673Y-71292192D01*
X120063201Y-71434838D01*
X120435167Y-71435162D01*
X120778943Y-71293117D01*
X121042192Y-71030327D01*
X121184838Y-70686799D01*
X121185162Y-70314833D01*
X121043117Y-69971057D01*
X120780327Y-69707808D01*
X120436799Y-69565162D01*
X120064833Y-69564838D01*
X119721057Y-69706883D01*
X119687882Y-69740000D01*
X116064802Y-69740000D01*
X113997401Y-67672599D01*
X113750839Y-67507852D01*
X113460000Y-67450000D01*
X112559999Y-67450000D01*
X112559999Y-67049999D01*
X112502147Y-66759160D01*
X112435080Y-66658787D01*
X112435162Y-66564833D01*
X112412506Y-66510000D01*
X122437537Y-66510000D01*
X122469673Y-66542192D01*
X122813201Y-66684838D01*
X123185167Y-66685162D01*
X123528943Y-66543117D01*
X123792192Y-66280327D01*
X123934838Y-65936799D01*
X123935162Y-65564833D01*
X123793117Y-65221057D01*
X123530327Y-64957808D01*
X123186799Y-64815162D01*
X122814833Y-64814838D01*
X122471057Y-64956883D01*
X122437882Y-64990000D01*
X106498103Y-64990000D01*
X106244415Y-64610330D01*
X105758234Y-64285474D01*
X105184745Y-64171400D01*
X104815255Y-64171400D01*
X104241766Y-64285474D01*
X103755585Y-64610330D01*
X103430729Y-65096511D01*
X103316655Y-65670000D01*
X101635000Y-65670000D01*
X101635000Y-55170000D01*
X103316655Y-55170000D01*
X103430729Y-55743489D01*
X103755585Y-56229670D01*
X104070366Y-56440000D01*
X103755585Y-56650330D01*
X103430729Y-57136511D01*
X103316655Y-57710000D01*
X103430729Y-58283489D01*
X103755585Y-58769670D01*
X103769913Y-58779243D01*
X103748683Y-58783238D01*
X103532559Y-58922310D01*
X103387569Y-59134510D01*
X103336560Y-59386400D01*
X103336560Y-61113600D01*
X103380838Y-61348917D01*
X103519910Y-61565041D01*
X103732110Y-61710031D01*
X103984000Y-61761040D01*
X106016000Y-61761040D01*
X106251317Y-61716762D01*
X106467441Y-61577690D01*
X106612431Y-61365490D01*
X106663440Y-61113600D01*
X106663440Y-59661362D01*
X107064802Y-59260000D01*
X117185198Y-59260000D01*
X120712599Y-62787401D01*
X120959161Y-62952148D01*
X121250000Y-63010000D01*
X126500000Y-63010000D01*
X126790839Y-62952148D01*
X127037401Y-62787401D01*
X127200000Y-62624802D01*
X127200000Y-70488477D01*
X127065162Y-70813201D01*
X127064838Y-71185167D01*
X127206883Y-71528943D01*
X127469673Y-71792192D01*
X127813201Y-71934838D01*
X128185167Y-71935162D01*
X128528943Y-71793117D01*
X128792192Y-71530327D01*
X128934838Y-71186799D01*
X128935162Y-70814833D01*
X128793117Y-70471057D01*
X128720000Y-70397812D01*
X128720000Y-56694648D01*
X129019670Y-56494415D01*
X129029243Y-56480087D01*
X129033238Y-56501317D01*
X129172310Y-56717441D01*
X129384510Y-56862431D01*
X129636400Y-56913440D01*
X129740000Y-56913440D01*
X129740000Y-74185198D01*
X127435198Y-76490000D01*
X116808937Y-76490000D01*
X116934838Y-76186799D01*
X116935162Y-75814833D01*
X116793117Y-75471057D01*
X116760000Y-75437882D01*
X116760000Y-73250000D01*
X116702148Y-72959161D01*
X116537401Y-72712599D01*
X114685122Y-70860320D01*
X114685162Y-70814833D01*
X114543117Y-70471057D01*
X114280327Y-70207808D01*
X113936799Y-70065162D01*
X113564833Y-70064838D01*
X113221057Y-70206883D01*
X112957808Y-70469673D01*
X112815162Y-70813201D01*
X112814838Y-71185167D01*
X112956883Y-71528943D01*
X113219673Y-71792192D01*
X113563201Y-71934838D01*
X113610077Y-71934879D01*
X115240000Y-73564802D01*
X115240000Y-75437537D01*
X115207808Y-75469673D01*
X115065162Y-75813201D01*
X115064838Y-76185167D01*
X115190792Y-76490000D01*
X112062463Y-76490000D01*
X112030327Y-76457808D01*
X111686799Y-76315162D01*
X111314833Y-76314838D01*
X110971057Y-76456883D01*
X110707808Y-76719673D01*
X110565162Y-77063201D01*
X110564838Y-77435167D01*
X110706883Y-77778943D01*
X110969673Y-78042192D01*
X111313201Y-78184838D01*
X111685167Y-78185162D01*
X112028943Y-78043117D01*
X112062118Y-78010000D01*
X127750000Y-78010000D01*
X128040839Y-77952148D01*
X128287401Y-77787401D01*
X131037401Y-75037401D01*
X131202148Y-74790840D01*
X131260000Y-74500000D01*
X131260000Y-61162747D01*
X131313201Y-61184838D01*
X131360077Y-61184879D01*
X131740000Y-61564802D01*
X131740000Y-85687537D01*
X131707808Y-85719673D01*
X131565162Y-86063201D01*
X131564838Y-86435167D01*
X131706883Y-86778943D01*
X131969673Y-87042192D01*
X132313201Y-87184838D01*
X132685167Y-87185162D01*
X133028943Y-87043117D01*
X133292192Y-86780327D01*
X133434838Y-86436799D01*
X133435162Y-86064833D01*
X133293117Y-85721057D01*
X133260000Y-85687882D01*
X133260000Y-65935167D01*
X133564838Y-65935167D01*
X133706883Y-66278943D01*
X133740000Y-66312118D01*
X133740000Y-85000000D01*
X133797852Y-85290839D01*
X133962599Y-85537401D01*
X135814856Y-87389658D01*
X135814838Y-87410167D01*
X135956883Y-87753943D01*
X136219673Y-88017192D01*
X136563201Y-88159838D01*
X136935167Y-88160162D01*
X137278943Y-88018117D01*
X137542192Y-87755327D01*
X137684838Y-87411799D01*
X137685162Y-87039833D01*
X137598896Y-86831052D01*
X138528047Y-86831052D01*
X138529876Y-87019648D01*
X138856388Y-87121837D01*
X139197151Y-87091297D01*
X139370124Y-87019648D01*
X139371953Y-86831052D01*
X140028047Y-86831052D01*
X140029876Y-87019648D01*
X140356388Y-87121837D01*
X140697151Y-87091297D01*
X140870124Y-87019648D01*
X140871953Y-86831052D01*
X140450000Y-86409099D01*
X140028047Y-86831052D01*
X139371953Y-86831052D01*
X138950000Y-86409099D01*
X138528047Y-86831052D01*
X137598896Y-86831052D01*
X137543117Y-86696057D01*
X137280327Y-86432808D01*
X136936799Y-86290162D01*
X136864901Y-86290099D01*
X136731190Y-86156388D01*
X138078163Y-86156388D01*
X138108703Y-86497151D01*
X138180352Y-86670124D01*
X138368948Y-86671953D01*
X138790901Y-86250000D01*
X139109099Y-86250000D01*
X139531052Y-86671953D01*
X139700000Y-86670315D01*
X139868948Y-86671953D01*
X140290901Y-86250000D01*
X140609099Y-86250000D01*
X141031052Y-86671953D01*
X141219648Y-86670124D01*
X141321837Y-86343612D01*
X141291297Y-86002849D01*
X141219648Y-85829876D01*
X141031052Y-85828047D01*
X140609099Y-86250000D01*
X140290901Y-86250000D01*
X139700000Y-85659099D01*
X139109099Y-86250000D01*
X138790901Y-86250000D01*
X138368948Y-85828047D01*
X138180352Y-85829876D01*
X138078163Y-86156388D01*
X136731190Y-86156388D01*
X135905854Y-85331052D01*
X138528047Y-85331052D01*
X138529685Y-85500000D01*
X138528047Y-85668948D01*
X138950000Y-86090901D01*
X139540901Y-85500000D01*
X139859099Y-85500000D01*
X140450000Y-86090901D01*
X140871953Y-85668948D01*
X140870315Y-85500000D01*
X140871953Y-85331052D01*
X140450000Y-84909099D01*
X139859099Y-85500000D01*
X139540901Y-85500000D01*
X138950000Y-84909099D01*
X138528047Y-85331052D01*
X135905854Y-85331052D01*
X135260000Y-84685198D01*
X135260000Y-84656388D01*
X138078163Y-84656388D01*
X138108703Y-84997151D01*
X138180352Y-85170124D01*
X138368948Y-85171953D01*
X138790901Y-84750000D01*
X139109099Y-84750000D01*
X139700000Y-85340901D01*
X140290901Y-84750000D01*
X140609099Y-84750000D01*
X141031052Y-85171953D01*
X141219648Y-85170124D01*
X141321837Y-84843612D01*
X141291297Y-84502849D01*
X141219648Y-84329876D01*
X141031052Y-84328047D01*
X140609099Y-84750000D01*
X140290901Y-84750000D01*
X139868948Y-84328047D01*
X139700000Y-84329685D01*
X139531052Y-84328047D01*
X139109099Y-84750000D01*
X138790901Y-84750000D01*
X138368948Y-84328047D01*
X138180352Y-84329876D01*
X138078163Y-84656388D01*
X135260000Y-84656388D01*
X135260000Y-84168948D01*
X138528047Y-84168948D01*
X138950000Y-84590901D01*
X139371953Y-84168948D01*
X140028047Y-84168948D01*
X140450000Y-84590901D01*
X140871953Y-84168948D01*
X140870124Y-83980352D01*
X140543612Y-83878163D01*
X140202849Y-83908703D01*
X140029876Y-83980352D01*
X140028047Y-84168948D01*
X139371953Y-84168948D01*
X139370124Y-83980352D01*
X139043612Y-83878163D01*
X138702849Y-83908703D01*
X138529876Y-83980352D01*
X138528047Y-84168948D01*
X135260000Y-84168948D01*
X135260000Y-66312463D01*
X135292192Y-66280327D01*
X135434838Y-65936799D01*
X135435162Y-65564833D01*
X135293117Y-65221057D01*
X135030327Y-64957808D01*
X134686799Y-64815162D01*
X134314833Y-64814838D01*
X133971057Y-64956883D01*
X133707808Y-65219673D01*
X133565162Y-65563201D01*
X133564838Y-65935167D01*
X133260000Y-65935167D01*
X133260000Y-64787175D01*
X137542430Y-64787175D01*
X137665565Y-65074788D01*
X138347734Y-65334707D01*
X139077443Y-65313786D01*
X139654435Y-65074788D01*
X139777570Y-64787175D01*
X142622430Y-64787175D01*
X142745565Y-65074788D01*
X143427734Y-65334707D01*
X144157443Y-65313786D01*
X144734435Y-65074788D01*
X144857570Y-64787175D01*
X143740000Y-63669605D01*
X142622430Y-64787175D01*
X139777570Y-64787175D01*
X138660000Y-63669605D01*
X137542430Y-64787175D01*
X133260000Y-64787175D01*
X133260000Y-63177734D01*
X136815293Y-63177734D01*
X136836214Y-63907443D01*
X137075212Y-64484435D01*
X137362825Y-64607570D01*
X138480395Y-63490000D01*
X137362825Y-62372430D01*
X137075212Y-62495565D01*
X136815293Y-63177734D01*
X133260000Y-63177734D01*
X133260000Y-61250000D01*
X133202148Y-60959161D01*
X133037401Y-60712599D01*
X132435122Y-60110320D01*
X132435162Y-60064833D01*
X132293117Y-59721057D01*
X132279260Y-59707175D01*
X137542430Y-59707175D01*
X137665565Y-59994788D01*
X138347734Y-60254707D01*
X139077443Y-60233786D01*
X139654435Y-59994788D01*
X139777569Y-59707177D01*
X139847932Y-59777540D01*
X139687633Y-59937559D01*
X139415311Y-60593384D01*
X139414691Y-61303501D01*
X139685868Y-61959800D01*
X139848088Y-62122304D01*
X139777569Y-62192823D01*
X139654435Y-61905212D01*
X138972266Y-61645293D01*
X138242557Y-61666214D01*
X137665565Y-61905212D01*
X137542430Y-62192825D01*
X138660000Y-63310395D01*
X138674143Y-63296253D01*
X138853748Y-63475858D01*
X138839605Y-63490000D01*
X139957175Y-64607570D01*
X140244788Y-64484435D01*
X140504707Y-63802266D01*
X140483786Y-63072557D01*
X140244788Y-62495565D01*
X139957177Y-62372431D01*
X140027540Y-62302068D01*
X140187559Y-62462367D01*
X140843384Y-62734689D01*
X141553501Y-62735309D01*
X142209800Y-62464132D01*
X142372304Y-62301912D01*
X142442823Y-62372431D01*
X142155212Y-62495565D01*
X141895293Y-63177734D01*
X141916214Y-63907443D01*
X142155212Y-64484435D01*
X142442825Y-64607570D01*
X143560395Y-63490000D01*
X143919605Y-63490000D01*
X145037175Y-64607570D01*
X145324788Y-64484435D01*
X145584707Y-63802266D01*
X145563786Y-63072557D01*
X145324788Y-62495565D01*
X145037175Y-62372430D01*
X143919605Y-63490000D01*
X143560395Y-63490000D01*
X143546253Y-63475858D01*
X143725858Y-63296253D01*
X143740000Y-63310395D01*
X144857570Y-62192825D01*
X144734435Y-61905212D01*
X144052266Y-61645293D01*
X143322557Y-61666214D01*
X142745565Y-61905212D01*
X142622431Y-62192823D01*
X142552068Y-62122460D01*
X142712367Y-61962441D01*
X142984689Y-61306616D01*
X142985309Y-60596499D01*
X142714132Y-59940200D01*
X142551912Y-59777696D01*
X142622431Y-59707177D01*
X142745565Y-59994788D01*
X143427734Y-60254707D01*
X144157443Y-60233786D01*
X144734435Y-59994788D01*
X144857570Y-59707175D01*
X143740000Y-58589605D01*
X143725858Y-58603748D01*
X143546253Y-58424143D01*
X143560395Y-58410000D01*
X143919605Y-58410000D01*
X145037175Y-59527570D01*
X145324788Y-59404435D01*
X145584707Y-58722266D01*
X145563786Y-57992557D01*
X145324788Y-57415565D01*
X145037175Y-57292430D01*
X143919605Y-58410000D01*
X143560395Y-58410000D01*
X142442825Y-57292430D01*
X142155212Y-57415565D01*
X141895293Y-58097734D01*
X141916214Y-58827443D01*
X142155212Y-59404435D01*
X142442823Y-59527569D01*
X142372460Y-59597932D01*
X142212441Y-59437633D01*
X141556616Y-59165311D01*
X140846499Y-59164691D01*
X140190200Y-59435868D01*
X140027696Y-59598088D01*
X139957177Y-59527569D01*
X140244788Y-59404435D01*
X140504707Y-58722266D01*
X140483786Y-57992557D01*
X140244788Y-57415565D01*
X139957175Y-57292430D01*
X138839605Y-58410000D01*
X138853748Y-58424143D01*
X138674143Y-58603748D01*
X138660000Y-58589605D01*
X137542430Y-59707175D01*
X132279260Y-59707175D01*
X132030327Y-59457808D01*
X131686799Y-59315162D01*
X131314833Y-59314838D01*
X131260000Y-59337494D01*
X131260000Y-58097734D01*
X136815293Y-58097734D01*
X136836214Y-58827443D01*
X137075212Y-59404435D01*
X137362825Y-59527570D01*
X138480395Y-58410000D01*
X137362825Y-57292430D01*
X137075212Y-57415565D01*
X136815293Y-58097734D01*
X131260000Y-58097734D01*
X131260000Y-57112825D01*
X137542430Y-57112825D01*
X138660000Y-58230395D01*
X139777570Y-57112825D01*
X142622430Y-57112825D01*
X143740000Y-58230395D01*
X144857570Y-57112825D01*
X144734435Y-56825212D01*
X144052266Y-56565293D01*
X143322557Y-56586214D01*
X142745565Y-56825212D01*
X142622430Y-57112825D01*
X139777570Y-57112825D01*
X139654435Y-56825212D01*
X138972266Y-56565293D01*
X138242557Y-56586214D01*
X137665565Y-56825212D01*
X137542430Y-57112825D01*
X131260000Y-57112825D01*
X131260000Y-56913440D01*
X131363600Y-56913440D01*
X131598917Y-56869162D01*
X131815041Y-56730090D01*
X131960031Y-56517890D01*
X132011040Y-56266000D01*
X132011040Y-54234000D01*
X131966762Y-53998683D01*
X131827690Y-53782559D01*
X131615490Y-53637569D01*
X131363600Y-53586560D01*
X129636400Y-53586560D01*
X129401083Y-53630838D01*
X129184959Y-53769910D01*
X129039969Y-53982110D01*
X129031600Y-54023439D01*
X129019670Y-54005585D01*
X128533489Y-53680729D01*
X127960000Y-53566655D01*
X127386511Y-53680729D01*
X126900330Y-54005585D01*
X126690000Y-54320366D01*
X126479670Y-54005585D01*
X125993489Y-53680729D01*
X125420000Y-53566655D01*
X124846511Y-53680729D01*
X124360330Y-54005585D01*
X124035474Y-54491766D01*
X123921400Y-55065255D01*
X123921400Y-55434745D01*
X124035474Y-56008234D01*
X124360330Y-56494415D01*
X124846511Y-56819271D01*
X125420000Y-56933345D01*
X125993489Y-56819271D01*
X126479670Y-56494415D01*
X126690000Y-56179634D01*
X126900330Y-56494415D01*
X127200000Y-56694648D01*
X127200000Y-60564956D01*
X127064833Y-60564838D01*
X126721057Y-60706883D01*
X126457808Y-60969673D01*
X126315162Y-61313201D01*
X126315121Y-61360077D01*
X126185198Y-61490000D01*
X122685009Y-61490000D01*
X122685162Y-61314833D01*
X122543117Y-60971057D01*
X122280327Y-60707808D01*
X121936799Y-60565162D01*
X121889923Y-60565121D01*
X118497401Y-57172599D01*
X118250839Y-57007852D01*
X117960000Y-56950000D01*
X106444648Y-56950000D01*
X106244415Y-56650330D01*
X105929634Y-56440000D01*
X106244415Y-56229670D01*
X106569271Y-55743489D01*
X106683345Y-55170000D01*
X106569271Y-54596511D01*
X106244415Y-54110330D01*
X105758234Y-53785474D01*
X105184745Y-53671400D01*
X104815255Y-53671400D01*
X104241766Y-53785474D01*
X103755585Y-54110330D01*
X103430729Y-54596511D01*
X103316655Y-55170000D01*
X101635000Y-55170000D01*
X101635000Y-51635000D01*
X148365000Y-51635000D01*
X148365000Y-64250000D01*
M02*
